M48
; DRILL file {KiCad 9.0.7} date 2026-07-27T21:47:21-0600
; FORMAT={-:-/ absolute / metric / decimal}
; #@! TF.CreationDate,2026-07-27T21:47:21-06:00
; #@! TF.GenerationSoftware,Kicad,Pcbnew,9.0.7
; #@! TF.FileFunction,Plated,1,2,PTH
FMAT,2
METRIC
; #@! TA.AperFunction,Plated,PTH,ViaDrill
T1C0.300
; #@! TA.AperFunction,Plated,PTH,ComponentDrill
T2C0.500
; #@! TA.AperFunction,Plated,PTH,ComponentDrill
T3C0.750
; #@! TA.AperFunction,Plated,PTH,ComponentDrill
T4C0.800
; #@! TA.AperFunction,Plated,PTH,ComponentDrill
T5C0.840
; #@! TA.AperFunction,Plated,PTH,ComponentDrill
T6C1.000
; #@! TA.AperFunction,Plated,PTH,ComponentDrill
T7C1.200
%
G90
G05
T1
X143.2Y-54.2
X146.55Y-57.6
X146.55Y-59.0
X148.65Y-61.0
X148.8Y-59.8
X157.2Y-50.8
X157.4Y-48.6
X157.4Y-58.4
X158.4Y-46.0
X158.4Y-84.6
X160.4Y-53.4
X161.2Y-48.8
X161.4Y-51.8
X162.4Y-62.0
X162.6Y-66.6
X162.6Y-70.0
X163.45Y-66.6
X163.45Y-70.0
X164.0Y-62.2
X164.3Y-66.6
X164.3Y-70.0
X165.2Y-66.6
X165.2Y-70.0
X166.0Y-64.4
X166.05Y-66.6
X166.05Y-70.0
X166.9Y-66.6
X166.9Y-70.0
X170.0Y-65.4
T2
X145.0Y-53.075
X145.0Y-54.325
X145.0Y-55.575
X145.0Y-56.825
X145.0Y-58.075
X145.0Y-59.325
X145.0Y-60.575
X145.0Y-61.825
T3
X142.6Y-90.5
X144.6Y-90.5
X156.4Y-87.0
X158.4Y-87.0
X160.4Y-87.0
X162.4Y-87.0
X164.4Y-87.0
X166.4Y-87.0
X168.4Y-87.0
X170.4Y-87.0
T4
X143.4Y-46.805
X143.4Y-48.805
T5
X154.38Y-45.7
X154.38Y-48.24
X154.38Y-50.78
X154.38Y-53.32
X154.38Y-55.86
X154.38Y-58.4
X154.38Y-60.94
X154.38Y-63.48
X169.62Y-45.7
X169.62Y-48.24
X169.62Y-50.78
X169.62Y-53.32
X169.62Y-55.86
X169.62Y-58.4
X169.62Y-60.94
X169.62Y-63.48
T6
X149.2Y-91.6
X156.4Y-73.57
X156.4Y-76.11
X156.4Y-78.65
T7
X143.75Y-82.2
X149.05Y-82.2
M30
