%TF.GenerationSoftware,KiCad,Pcbnew,9.0.7*%
%TF.CreationDate,2026-07-27T21:47:09-06:00*%
%TF.ProjectId,air_aware_simple,6169725f-6177-4617-9265-5f73696d706c,rev?*%
%TF.SameCoordinates,Original*%
%TF.FileFunction,Copper,L2,Bot*%
%TF.FilePolarity,Positive*%
%FSLAX46Y46*%
G04 Gerber Fmt 4.6, Leading zero omitted, Abs format (unit mm)*
G04 Created by KiCad (PCBNEW 9.0.7) date 2026-07-27 21:47:09*
%MOMM*%
%LPD*%
G01*
G04 APERTURE LIST*
G04 Aperture macros list*
%AMRoundRect*
0 Rectangle with rounded corners*
0 $1 Rounding radius*
0 $2 $3 $4 $5 $6 $7 $8 $9 X,Y pos of 4 corners*
0 Add a 4 corners polygon primitive as box body*
4,1,4,$2,$3,$4,$5,$6,$7,$8,$9,$2,$3,0*
0 Add four circle primitives for the rounded corners*
1,1,$1+$1,$2,$3*
1,1,$1+$1,$4,$5*
1,1,$1+$1,$6,$7*
1,1,$1+$1,$8,$9*
0 Add four rect primitives between the rounded corners*
20,1,$1+$1,$2,$3,$4,$5,0*
20,1,$1+$1,$4,$5,$6,$7,0*
20,1,$1+$1,$6,$7,$8,$9,0*
20,1,$1+$1,$8,$9,$2,$3,0*%
G04 Aperture macros list end*
%TA.AperFunction,ComponentPad*%
%ADD10R,1.700000X1.700000*%
%TD*%
%TA.AperFunction,ComponentPad*%
%ADD11C,1.700000*%
%TD*%
%TA.AperFunction,ComponentPad*%
%ADD12C,1.348000*%
%TD*%
%TA.AperFunction,ComponentPad*%
%ADD13RoundRect,0.250000X-0.350000X-0.625000X0.350000X-0.625000X0.350000X0.625000X-0.350000X0.625000X0*%
%TD*%
%TA.AperFunction,ComponentPad*%
%ADD14O,1.200000X1.750000*%
%TD*%
%TA.AperFunction,ComponentPad*%
%ADD15C,2.000000*%
%TD*%
%TA.AperFunction,ComponentPad*%
%ADD16RoundRect,0.250000X0.550000X-0.550000X0.550000X0.550000X-0.550000X0.550000X-0.550000X-0.550000X0*%
%TD*%
%TA.AperFunction,ComponentPad*%
%ADD17C,1.600000*%
%TD*%
%TA.AperFunction,ComponentPad*%
%ADD18RoundRect,0.200000X-0.450000X0.200000X-0.450000X-0.200000X0.450000X-0.200000X0.450000X0.200000X0*%
%TD*%
%TA.AperFunction,ComponentPad*%
%ADD19O,1.300000X0.800000*%
%TD*%
%TA.AperFunction,ComponentPad*%
%ADD20C,2.400000*%
%TD*%
%TA.AperFunction,ViaPad*%
%ADD21C,0.600000*%
%TD*%
%TA.AperFunction,Conductor*%
%ADD22C,0.500000*%
%TD*%
%TA.AperFunction,Conductor*%
%ADD23C,0.250000*%
%TD*%
G04 APERTURE END LIST*
D10*
%TO.P,M1,1,Pin_1*%
%TO.N,/VBAT_SW*%
X156400000Y-73570000D03*
D11*
%TO.P,M1,2,Pin_2*%
%TO.N,GND*%
X156400000Y-76110000D03*
%TO.P,M1,3,Pin_3*%
%TO.N,+5V*%
X156400000Y-78650000D03*
%TD*%
D12*
%TO.P,U1,0,GPIO0*%
%TO.N,unconnected-(U1-GPIO0-Pad0)*%
X169620000Y-63480000D03*
%TO.P,U1,1,GPIO1*%
%TO.N,/LCD_BL*%
X169620000Y-60940000D03*
%TO.P,U1,2,GPIO2*%
%TO.N,unconnected-(U1-GPIO2-Pad2)*%
X169620000Y-58400000D03*
%TO.P,U1,3,GPIO3*%
%TO.N,/BAT_SENSE*%
X169620000Y-55860000D03*
%TO.P,U1,3.3,3V3*%
%TO.N,+3V3*%
X169620000Y-50780000D03*
%TO.P,U1,4,GPIO4*%
%TO.N,/LCD_DC*%
X169620000Y-53320000D03*
%TO.P,U1,5,GPIO5*%
%TO.N,/LCD_RST*%
X154380000Y-45700000D03*
%TO.P,U1,5V,5V*%
%TO.N,+5V*%
X169620000Y-45700000D03*
%TO.P,U1,6,GPIO6*%
%TO.N,/LCD_CLK*%
X154380000Y-48240000D03*
%TO.P,U1,7,GPIO7*%
%TO.N,/LCD_MOSI*%
X154380000Y-50780000D03*
%TO.P,U1,8,GPIO8*%
%TO.N,unconnected-(U1-GPIO8-Pad8)*%
X154380000Y-53320000D03*
%TO.P,U1,9,GPIO9*%
%TO.N,unconnected-(U1-GPIO9-Pad9)*%
X154380000Y-55860000D03*
%TO.P,U1,10,GPIO10*%
%TO.N,/LCD_CS*%
X154380000Y-58400000D03*
%TO.P,U1,20,GPIO20*%
%TO.N,/PMS_RX*%
X154380000Y-60940000D03*
%TO.P,U1,21,GPIO21*%
%TO.N,/PMS_TX*%
X154380000Y-63480000D03*
%TO.P,U1,G,GND*%
%TO.N,GND*%
X169620000Y-48240000D03*
%TD*%
D13*
%TO.P,J1,1,Pin_1*%
%TO.N,/BAT_RAW*%
X142600000Y-90500000D03*
D14*
%TO.P,J1,2,Pin_2*%
%TO.N,GND*%
X144600000Y-90500000D03*
%TD*%
D13*
%TO.P,J3,1,Pin_1*%
%TO.N,+3V3*%
X156400000Y-87000000D03*
D14*
%TO.P,J3,2,Pin_2*%
%TO.N,GND*%
X158400000Y-87000000D03*
%TO.P,J3,3,Pin_3*%
%TO.N,/LCD_MOSI*%
X160400000Y-87000000D03*
%TO.P,J3,4,Pin_4*%
%TO.N,/LCD_CLK*%
X162400000Y-87000000D03*
%TO.P,J3,5,Pin_5*%
%TO.N,/LCD_CS*%
X164400000Y-87000000D03*
%TO.P,J3,6,Pin_6*%
%TO.N,/LCD_DC*%
X166400000Y-87000000D03*
%TO.P,J3,7,Pin_7*%
%TO.N,/LCD_RST*%
X168400000Y-87000000D03*
%TO.P,J3,8,Pin_8*%
%TO.N,/LCD_BL*%
X170400000Y-87000000D03*
%TD*%
D15*
%TO.P,TP1,1,1*%
%TO.N,GND*%
X149200000Y-91600000D03*
%TD*%
D16*
%TO.P,C2,1*%
%TO.N,+5V*%
X143400000Y-48805113D03*
D17*
%TO.P,C2,2*%
%TO.N,GND*%
X143400000Y-46805113D03*
%TD*%
D18*
%TO.P,J2,1,Pin_1*%
%TO.N,+5V*%
X145000000Y-53075000D03*
D19*
%TO.P,J2,2,Pin_2*%
%TO.N,GND*%
X145000000Y-54325000D03*
%TO.P,J2,3,Pin_3*%
%TO.N,unconnected-(J2-Pin_3-Pad3)*%
X145000000Y-55575000D03*
%TO.P,J2,4,Pin_4*%
%TO.N,/PMS_RX*%
X145000000Y-56825000D03*
%TO.P,J2,5,Pin_5*%
%TO.N,/PMS_TX*%
X145000000Y-58075000D03*
%TO.P,J2,6,Pin_6*%
%TO.N,unconnected-(J2-Pin_6-Pad6)*%
X145000000Y-59325000D03*
%TO.P,J2,7,Pin_7*%
%TO.N,unconnected-(J2-Pin_7-Pad7)*%
X145000000Y-60575000D03*
%TO.P,J2,8,Pin_8*%
%TO.N,unconnected-(J2-Pin_8-Pad8)*%
X145000000Y-61825000D03*
%TD*%
D20*
%TO.P,SW1,1,A*%
%TO.N,/BAT_RAW*%
X143750000Y-82200000D03*
%TO.P,SW1,2,B*%
%TO.N,/VBAT_SW*%
X149050000Y-82200000D03*
%TD*%
D21*
%TO.N,GND*%
X158400000Y-84600000D03*
X170000000Y-65400000D03*
X143200000Y-54200000D03*
%TO.N,/PMS_RX*%
X146550000Y-57600000D03*
X148800000Y-59800000D03*
%TO.N,/PMS_TX*%
X146550000Y-59000000D03*
X148650000Y-61000000D03*
%TO.N,/LCD_MOSI*%
X160400000Y-53400000D03*
X157200000Y-50800000D03*
X162600000Y-70000000D03*
X162600000Y-66600000D03*
%TO.N,/LCD_CLK*%
X163450003Y-70000000D03*
X163450003Y-66600000D03*
X161400000Y-51800000D03*
X157400000Y-48600000D03*
%TO.N,/LCD_CS*%
X164300006Y-66600000D03*
X157400000Y-58400000D03*
X164300006Y-70000000D03*
X162400000Y-62000000D03*
%TO.N,/LCD_DC*%
X165200000Y-66600000D03*
X165200000Y-70000000D03*
%TO.N,/LCD_BL*%
X166900006Y-70000000D03*
X166900006Y-66600000D03*
%TO.N,/LCD_RST*%
X166000000Y-64400000D03*
X166050003Y-66600000D03*
X164000000Y-62200000D03*
X166050003Y-70000000D03*
X161200000Y-48800000D03*
X158400000Y-46000000D03*
%TD*%
D22*
%TO.N,GND*%
X158400000Y-84600000D02*
X158400000Y-84000000D01*
X170000000Y-65400000D02*
X170000000Y-65800000D01*
X143200000Y-54200000D02*
X142800000Y-53800000D01*
D23*
%TO.N,/PMS_RX*%
X146550000Y-57600000D02*
X148750000Y-59800000D01*
X148750000Y-59800000D02*
X148800000Y-59800000D01*
%TO.N,/PMS_TX*%
X146550000Y-59000000D02*
X146650000Y-59000000D01*
X146650000Y-59000000D02*
X148650000Y-61000000D01*
%TO.N,/LCD_MOSI*%
X162600000Y-70000000D02*
X162600000Y-66600000D01*
X160400000Y-53400000D02*
X157800000Y-50800000D01*
X157800000Y-50800000D02*
X157200000Y-50800000D01*
%TO.N,/LCD_CLK*%
X158200000Y-48600000D02*
X157400000Y-48600000D01*
X161400000Y-51800000D02*
X158200000Y-48600000D01*
X163450003Y-70000000D02*
X163450003Y-66600000D01*
%TO.N,/LCD_CS*%
X162400000Y-62000000D02*
X158800000Y-58400000D01*
X158800000Y-58400000D02*
X157400000Y-58400000D01*
X164300006Y-70000000D02*
X164300006Y-66600000D01*
%TO.N,/LCD_DC*%
X165200000Y-70000000D02*
X165200000Y-66600000D01*
%TO.N,/LCD_BL*%
X166900006Y-70000000D02*
X166900006Y-66600000D01*
%TO.N,/LCD_RST*%
X166050003Y-70000000D02*
X166050003Y-66600000D01*
X166000000Y-64400000D02*
X164000000Y-62400000D01*
X164000000Y-62400000D02*
X164000000Y-62200000D01*
X161200000Y-48800000D02*
X158400000Y-46000000D01*
%TD*%
%TA.AperFunction,Conductor*%
%TO.N,GND*%
G36*
X174604418Y-40800816D02*
G01*
X174804561Y-40815130D01*
X174822063Y-40817647D01*
X175013797Y-40859355D01*
X175030755Y-40864334D01*
X175214609Y-40932909D01*
X175230701Y-40940259D01*
X175402904Y-41034288D01*
X175417784Y-41043849D01*
X175574867Y-41161441D01*
X175588237Y-41173027D01*
X175726972Y-41311762D01*
X175738558Y-41325132D01*
X175856146Y-41482210D01*
X175865711Y-41497095D01*
X175959740Y-41669298D01*
X175967090Y-41685390D01*
X176035662Y-41869236D01*
X176040646Y-41886212D01*
X176082351Y-42077931D01*
X176084869Y-42095442D01*
X176099184Y-42295580D01*
X176099500Y-42304427D01*
X176099500Y-92895572D01*
X176099184Y-92904419D01*
X176084869Y-93104557D01*
X176082351Y-93122068D01*
X176040646Y-93313787D01*
X176035662Y-93330763D01*
X175967090Y-93514609D01*
X175959740Y-93530701D01*
X175865711Y-93702904D01*
X175856146Y-93717789D01*
X175738558Y-93874867D01*
X175726972Y-93888237D01*
X175588237Y-94026972D01*
X175574867Y-94038558D01*
X175417789Y-94156146D01*
X175402904Y-94165711D01*
X175230701Y-94259740D01*
X175214609Y-94267090D01*
X175030763Y-94335662D01*
X175013787Y-94340646D01*
X174822068Y-94382351D01*
X174804557Y-94384869D01*
X174623779Y-94397799D01*
X174604417Y-94399184D01*
X174595572Y-94399500D01*
X141204428Y-94399500D01*
X141195582Y-94399184D01*
X141173622Y-94397613D01*
X140995442Y-94384869D01*
X140977931Y-94382351D01*
X140786212Y-94340646D01*
X140769236Y-94335662D01*
X140585390Y-94267090D01*
X140569298Y-94259740D01*
X140397095Y-94165711D01*
X140382210Y-94156146D01*
X140225132Y-94038558D01*
X140211762Y-94026972D01*
X140073027Y-93888237D01*
X140061441Y-93874867D01*
X139943849Y-93717784D01*
X139934288Y-93702904D01*
X139840259Y-93530701D01*
X139832909Y-93514609D01*
X139772091Y-93351551D01*
X139764334Y-93330755D01*
X139759355Y-93313797D01*
X139717647Y-93122063D01*
X139715130Y-93104556D01*
X139714804Y-93100000D01*
X139700816Y-92904418D01*
X139700500Y-92895572D01*
X139700500Y-89824983D01*
X141499500Y-89824983D01*
X141499500Y-91175001D01*
X141499501Y-91175018D01*
X141510000Y-91277796D01*
X141510001Y-91277799D01*
X141552817Y-91407007D01*
X141565186Y-91444334D01*
X141657288Y-91593656D01*
X141781344Y-91717712D01*
X141930666Y-91809814D01*
X142097203Y-91864999D01*
X142199991Y-91875500D01*
X143000008Y-91875499D01*
X143000016Y-91875498D01*
X143000019Y-91875498D01*
X143056302Y-91869748D01*
X143102797Y-91864999D01*
X143269334Y-91809814D01*
X143418656Y-91717712D01*
X143542712Y-91593656D01*
X143582581Y-91529016D01*
X143634525Y-91482294D01*
X143703488Y-91471071D01*
X143767570Y-91498914D01*
X143775799Y-91506434D01*
X143883397Y-91614032D01*
X144023475Y-91715804D01*
X144177744Y-91794408D01*
X144342415Y-91847914D01*
X144342414Y-91847914D01*
X144349999Y-91849115D01*
X144350000Y-91849114D01*
X144350000Y-90780330D01*
X144369745Y-90800075D01*
X144455255Y-90849444D01*
X144550630Y-90875000D01*
X144649370Y-90875000D01*
X144744745Y-90849444D01*
X144830255Y-90800075D01*
X144850000Y-90780330D01*
X144850000Y-91849115D01*
X144857584Y-91847914D01*
X145022255Y-91794408D01*
X145176524Y-91715804D01*
X145316602Y-91614032D01*
X145439034Y-91491600D01*
X145439038Y-91491595D01*
X145446048Y-91481947D01*
X147700000Y-91481947D01*
X147700000Y-91718052D01*
X147736934Y-91951247D01*
X147809897Y-92175802D01*
X147917087Y-92386174D01*
X147977338Y-92469104D01*
X147977340Y-92469105D01*
X148717037Y-91729408D01*
X148734075Y-91792993D01*
X148799901Y-91907007D01*
X148892993Y-92000099D01*
X149007007Y-92065925D01*
X149070590Y-92082962D01*
X148330893Y-92822658D01*
X148413828Y-92882914D01*
X148624197Y-92990102D01*
X148848752Y-93063065D01*
X148848751Y-93063065D01*
X149081948Y-93100000D01*
X149318052Y-93100000D01*
X149551247Y-93063065D01*
X149775802Y-92990102D01*
X149986163Y-92882918D01*
X149986169Y-92882914D01*
X150069104Y-92822658D01*
X150069105Y-92822658D01*
X149329408Y-92082962D01*
X149392993Y-92065925D01*
X149507007Y-92000099D01*
X149600099Y-91907007D01*
X149665925Y-91792993D01*
X149682962Y-91729409D01*
X150422658Y-92469105D01*
X150422658Y-92469104D01*
X150482914Y-92386169D01*
X150482918Y-92386163D01*
X150590102Y-92175802D01*
X150663065Y-91951247D01*
X150700000Y-91718052D01*
X150700000Y-91481947D01*
X150663065Y-91248752D01*
X150590102Y-91024197D01*
X150482914Y-90813828D01*
X150422658Y-90730894D01*
X150422658Y-90730893D01*
X149682962Y-91470590D01*
X149665925Y-91407007D01*
X149600099Y-91292993D01*
X149507007Y-91199901D01*
X149392993Y-91134075D01*
X149329409Y-91117037D01*
X150069105Y-90377340D01*
X150069104Y-90377338D01*
X149986174Y-90317087D01*
X149775802Y-90209897D01*
X149551247Y-90136934D01*
X149551248Y-90136934D01*
X149318052Y-90100000D01*
X149081948Y-90100000D01*
X148848752Y-90136934D01*
X148624197Y-90209897D01*
X148413830Y-90317084D01*
X148330894Y-90377340D01*
X149070591Y-91117037D01*
X149007007Y-91134075D01*
X148892993Y-91199901D01*
X148799901Y-91292993D01*
X148734075Y-91407007D01*
X148717037Y-91470591D01*
X147977340Y-90730894D01*
X147917084Y-90813830D01*
X147809897Y-91024197D01*
X147736934Y-91248752D01*
X147700000Y-91481947D01*
X145446048Y-91481947D01*
X145502539Y-91404193D01*
X145502541Y-91404190D01*
X145540804Y-91351524D01*
X145619408Y-91197257D01*
X145672914Y-91032584D01*
X145700000Y-90861571D01*
X145700000Y-90750000D01*
X144880330Y-90750000D01*
X144900075Y-90730255D01*
X144949444Y-90644745D01*
X144975000Y-90549370D01*
X144975000Y-90450630D01*
X144949444Y-90355255D01*
X144900075Y-90269745D01*
X144880330Y-90250000D01*
X145700000Y-90250000D01*
X145700000Y-90138428D01*
X145672914Y-89967415D01*
X145619408Y-89802742D01*
X145540804Y-89648475D01*
X145439032Y-89508397D01*
X145316602Y-89385967D01*
X145176524Y-89284195D01*
X145022257Y-89205591D01*
X144857589Y-89152087D01*
X144857581Y-89152085D01*
X144850000Y-89150884D01*
X144850000Y-90219670D01*
X144830255Y-90199925D01*
X144744745Y-90150556D01*
X144649370Y-90125000D01*
X144550630Y-90125000D01*
X144455255Y-90150556D01*
X144369745Y-90199925D01*
X144350000Y-90219670D01*
X144350000Y-89150884D01*
X144349999Y-89150884D01*
X144342418Y-89152085D01*
X144342410Y-89152087D01*
X144177742Y-89205591D01*
X144023475Y-89284195D01*
X143883401Y-89385964D01*
X143775799Y-89493566D01*
X143714476Y-89527050D01*
X143644784Y-89522066D01*
X143588851Y-89480194D01*
X143582585Y-89470988D01*
X143542712Y-89406344D01*
X143418656Y-89282288D01*
X143269334Y-89190186D01*
X143102797Y-89135001D01*
X143102795Y-89135000D01*
X143000010Y-89124500D01*
X142199998Y-89124500D01*
X142199980Y-89124501D01*
X142097203Y-89135000D01*
X142097200Y-89135001D01*
X141930668Y-89190185D01*
X141930663Y-89190187D01*
X141781342Y-89282289D01*
X141657289Y-89406342D01*
X141565187Y-89555663D01*
X141565186Y-89555666D01*
X141510001Y-89722203D01*
X141510001Y-89722204D01*
X141510000Y-89722204D01*
X141499500Y-89824983D01*
X139700500Y-89824983D01*
X139700500Y-86324983D01*
X155299500Y-86324983D01*
X155299500Y-87675001D01*
X155299501Y-87675018D01*
X155310000Y-87777796D01*
X155310001Y-87777799D01*
X155348013Y-87892510D01*
X155365186Y-87944334D01*
X155457288Y-88093656D01*
X155581344Y-88217712D01*
X155730666Y-88309814D01*
X155897203Y-88364999D01*
X155999991Y-88375500D01*
X156800008Y-88375499D01*
X156800016Y-88375498D01*
X156800019Y-88375498D01*
X156856302Y-88369748D01*
X156902797Y-88364999D01*
X157069334Y-88309814D01*
X157218656Y-88217712D01*
X157342712Y-88093656D01*
X157382581Y-88029016D01*
X157434525Y-87982294D01*
X157503488Y-87971071D01*
X157567570Y-87998914D01*
X157575799Y-88006434D01*
X157683397Y-88114032D01*
X157823475Y-88215804D01*
X157977744Y-88294408D01*
X158142415Y-88347914D01*
X158142414Y-88347914D01*
X158149999Y-88349115D01*
X158150000Y-88349114D01*
X158150000Y-87280330D01*
X158169745Y-87300075D01*
X158255255Y-87349444D01*
X158350630Y-87375000D01*
X158449370Y-87375000D01*
X158544745Y-87349444D01*
X158630255Y-87300075D01*
X158650000Y-87280330D01*
X158650000Y-88349115D01*
X158657584Y-88347914D01*
X158822255Y-88294408D01*
X158976524Y-88215804D01*
X159116602Y-88114032D01*
X159239036Y-87991598D01*
X159299371Y-87908552D01*
X159354700Y-87865886D01*
X159424313Y-87859905D01*
X159486109Y-87892510D01*
X159500008Y-87908550D01*
X159500318Y-87908976D01*
X159560586Y-87991928D01*
X159683072Y-88114414D01*
X159823212Y-88216232D01*
X159977555Y-88294873D01*
X160142299Y-88348402D01*
X160313389Y-88375500D01*
X160313390Y-88375500D01*
X160486610Y-88375500D01*
X160486611Y-88375500D01*
X160657701Y-88348402D01*
X160822445Y-88294873D01*
X160976788Y-88216232D01*
X161116928Y-88114414D01*
X161239414Y-87991928D01*
X161299682Y-87908975D01*
X161355012Y-87866311D01*
X161424626Y-87860332D01*
X161486421Y-87892938D01*
X161500315Y-87908973D01*
X161560586Y-87991928D01*
X161683072Y-88114414D01*
X161823212Y-88216232D01*
X161977555Y-88294873D01*
X162142299Y-88348402D01*
X162313389Y-88375500D01*
X162313390Y-88375500D01*
X162486610Y-88375500D01*
X162486611Y-88375500D01*
X162657701Y-88348402D01*
X162822445Y-88294873D01*
X162976788Y-88216232D01*
X163116928Y-88114414D01*
X163239414Y-87991928D01*
X163299682Y-87908975D01*
X163355012Y-87866311D01*
X163424626Y-87860332D01*
X163486421Y-87892938D01*
X163500315Y-87908973D01*
X163560586Y-87991928D01*
X163683072Y-88114414D01*
X163823212Y-88216232D01*
X163977555Y-88294873D01*
X164142299Y-88348402D01*
X164313389Y-88375500D01*
X164313390Y-88375500D01*
X164486610Y-88375500D01*
X164486611Y-88375500D01*
X164657701Y-88348402D01*
X164822445Y-88294873D01*
X164976788Y-88216232D01*
X165116928Y-88114414D01*
X165239414Y-87991928D01*
X165299682Y-87908975D01*
X165355012Y-87866311D01*
X165424626Y-87860332D01*
X165486421Y-87892938D01*
X165500315Y-87908973D01*
X165560586Y-87991928D01*
X165683072Y-88114414D01*
X165823212Y-88216232D01*
X165977555Y-88294873D01*
X166142299Y-88348402D01*
X166313389Y-88375500D01*
X166313390Y-88375500D01*
X166486610Y-88375500D01*
X166486611Y-88375500D01*
X166657701Y-88348402D01*
X166822445Y-88294873D01*
X166976788Y-88216232D01*
X167116928Y-88114414D01*
X167239414Y-87991928D01*
X167299682Y-87908975D01*
X167355012Y-87866311D01*
X167424626Y-87860332D01*
X167486421Y-87892938D01*
X167500315Y-87908973D01*
X167560586Y-87991928D01*
X167683072Y-88114414D01*
X167823212Y-88216232D01*
X167977555Y-88294873D01*
X168142299Y-88348402D01*
X168313389Y-88375500D01*
X168313390Y-88375500D01*
X168486610Y-88375500D01*
X168486611Y-88375500D01*
X168657701Y-88348402D01*
X168822445Y-88294873D01*
X168976788Y-88216232D01*
X169116928Y-88114414D01*
X169239414Y-87991928D01*
X169299682Y-87908975D01*
X169355012Y-87866311D01*
X169424626Y-87860332D01*
X169486421Y-87892938D01*
X169500315Y-87908973D01*
X169560586Y-87991928D01*
X169683072Y-88114414D01*
X169823212Y-88216232D01*
X169977555Y-88294873D01*
X170142299Y-88348402D01*
X170313389Y-88375500D01*
X170313390Y-88375500D01*
X170486610Y-88375500D01*
X170486611Y-88375500D01*
X170657701Y-88348402D01*
X170822445Y-88294873D01*
X170976788Y-88216232D01*
X171116928Y-88114414D01*
X171239414Y-87991928D01*
X171341232Y-87851788D01*
X171419873Y-87697445D01*
X171473402Y-87532701D01*
X171500500Y-87361611D01*
X171500500Y-86638389D01*
X171473402Y-86467299D01*
X171419873Y-86302555D01*
X171341232Y-86148212D01*
X171239414Y-86008072D01*
X171116928Y-85885586D01*
X170976788Y-85783768D01*
X170822445Y-85705127D01*
X170657701Y-85651598D01*
X170657699Y-85651597D01*
X170657698Y-85651597D01*
X170526271Y-85630781D01*
X170486611Y-85624500D01*
X170313389Y-85624500D01*
X170273728Y-85630781D01*
X170142302Y-85651597D01*
X169977552Y-85705128D01*
X169823211Y-85783768D01*
X169743256Y-85841859D01*
X169683072Y-85885586D01*
X169683070Y-85885588D01*
X169683069Y-85885588D01*
X169560588Y-86008069D01*
X169560581Y-86008078D01*
X169500317Y-86091023D01*
X169444987Y-86133689D01*
X169375374Y-86139667D01*
X169313579Y-86107061D01*
X169299683Y-86091023D01*
X169239418Y-86008078D01*
X169239414Y-86008072D01*
X169116928Y-85885586D01*
X168976788Y-85783768D01*
X168822445Y-85705127D01*
X168657701Y-85651598D01*
X168657699Y-85651597D01*
X168657698Y-85651597D01*
X168526271Y-85630781D01*
X168486611Y-85624500D01*
X168313389Y-85624500D01*
X168273728Y-85630781D01*
X168142302Y-85651597D01*
X167977552Y-85705128D01*
X167823211Y-85783768D01*
X167743256Y-85841859D01*
X167683072Y-85885586D01*
X167683070Y-85885588D01*
X167683069Y-85885588D01*
X167560588Y-86008069D01*
X167560581Y-86008078D01*
X167500317Y-86091023D01*
X167444987Y-86133689D01*
X167375374Y-86139667D01*
X167313579Y-86107061D01*
X167299683Y-86091023D01*
X167239418Y-86008078D01*
X167239414Y-86008072D01*
X167116928Y-85885586D01*
X166976788Y-85783768D01*
X166822445Y-85705127D01*
X166657701Y-85651598D01*
X166657699Y-85651597D01*
X166657698Y-85651597D01*
X166526271Y-85630781D01*
X166486611Y-85624500D01*
X166313389Y-85624500D01*
X166273728Y-85630781D01*
X166142302Y-85651597D01*
X165977552Y-85705128D01*
X165823211Y-85783768D01*
X165743256Y-85841859D01*
X165683072Y-85885586D01*
X165683070Y-85885588D01*
X165683069Y-85885588D01*
X165560588Y-86008069D01*
X165560581Y-86008078D01*
X165500317Y-86091023D01*
X165444987Y-86133689D01*
X165375374Y-86139667D01*
X165313579Y-86107061D01*
X165299683Y-86091023D01*
X165239418Y-86008078D01*
X165239414Y-86008072D01*
X165116928Y-85885586D01*
X164976788Y-85783768D01*
X164822445Y-85705127D01*
X164657701Y-85651598D01*
X164657699Y-85651597D01*
X164657698Y-85651597D01*
X164526271Y-85630781D01*
X164486611Y-85624500D01*
X164313389Y-85624500D01*
X164273728Y-85630781D01*
X164142302Y-85651597D01*
X163977552Y-85705128D01*
X163823211Y-85783768D01*
X163743256Y-85841859D01*
X163683072Y-85885586D01*
X163683070Y-85885588D01*
X163683069Y-85885588D01*
X163560588Y-86008069D01*
X163560581Y-86008078D01*
X163500317Y-86091023D01*
X163444987Y-86133689D01*
X163375374Y-86139667D01*
X163313579Y-86107061D01*
X163299683Y-86091023D01*
X163239418Y-86008078D01*
X163239414Y-86008072D01*
X163116928Y-85885586D01*
X162976788Y-85783768D01*
X162822445Y-85705127D01*
X162657701Y-85651598D01*
X162657699Y-85651597D01*
X162657698Y-85651597D01*
X162526271Y-85630781D01*
X162486611Y-85624500D01*
X162313389Y-85624500D01*
X162273728Y-85630781D01*
X162142302Y-85651597D01*
X161977552Y-85705128D01*
X161823211Y-85783768D01*
X161743256Y-85841859D01*
X161683072Y-85885586D01*
X161683070Y-85885588D01*
X161683069Y-85885588D01*
X161560588Y-86008069D01*
X161560581Y-86008078D01*
X161500317Y-86091023D01*
X161444987Y-86133689D01*
X161375374Y-86139667D01*
X161313579Y-86107061D01*
X161299683Y-86091023D01*
X161239418Y-86008078D01*
X161239414Y-86008072D01*
X161116928Y-85885586D01*
X160976788Y-85783768D01*
X160822445Y-85705127D01*
X160657701Y-85651598D01*
X160657699Y-85651597D01*
X160657698Y-85651597D01*
X160526271Y-85630781D01*
X160486611Y-85624500D01*
X160313389Y-85624500D01*
X160273728Y-85630781D01*
X160142302Y-85651597D01*
X159977552Y-85705128D01*
X159823211Y-85783768D01*
X159743256Y-85841859D01*
X159683072Y-85885586D01*
X159683070Y-85885588D01*
X159683069Y-85885588D01*
X159560585Y-86008072D01*
X159500007Y-86091450D01*
X159444677Y-86134115D01*
X159375063Y-86140093D01*
X159313269Y-86107486D01*
X159299371Y-86091447D01*
X159239036Y-86008401D01*
X159116602Y-85885967D01*
X158976524Y-85784195D01*
X158822257Y-85705591D01*
X158657589Y-85652087D01*
X158657581Y-85652085D01*
X158650000Y-85650884D01*
X158650000Y-86719670D01*
X158630255Y-86699925D01*
X158544745Y-86650556D01*
X158449370Y-86625000D01*
X158350630Y-86625000D01*
X158255255Y-86650556D01*
X158169745Y-86699925D01*
X158150000Y-86719670D01*
X158150000Y-85650884D01*
X158149999Y-85650884D01*
X158142418Y-85652085D01*
X158142410Y-85652087D01*
X157977742Y-85705591D01*
X157823475Y-85784195D01*
X157683401Y-85885964D01*
X157575799Y-85993566D01*
X157514476Y-86027050D01*
X157444784Y-86022066D01*
X157388851Y-85980194D01*
X157382585Y-85970988D01*
X157342712Y-85906344D01*
X157218656Y-85782288D01*
X157093559Y-85705128D01*
X157069336Y-85690187D01*
X157069331Y-85690185D01*
X157067862Y-85689698D01*
X156902797Y-85635001D01*
X156902795Y-85635000D01*
X156800010Y-85624500D01*
X155999998Y-85624500D01*
X155999980Y-85624501D01*
X155897203Y-85635000D01*
X155897200Y-85635001D01*
X155730668Y-85690185D01*
X155730663Y-85690187D01*
X155581342Y-85782289D01*
X155457289Y-85906342D01*
X155365187Y-86055663D01*
X155365185Y-86055668D01*
X155339332Y-86133689D01*
X155310001Y-86222203D01*
X155310001Y-86222204D01*
X155310000Y-86222204D01*
X155299500Y-86324983D01*
X139700500Y-86324983D01*
X139700500Y-82088549D01*
X142049500Y-82088549D01*
X142049500Y-82311450D01*
X142049501Y-82311466D01*
X142078594Y-82532452D01*
X142078595Y-82532457D01*
X142078596Y-82532463D01*
X142078597Y-82532465D01*
X142136290Y-82747780D01*
X142136293Y-82747790D01*
X142221593Y-82953722D01*
X142221595Y-82953726D01*
X142333052Y-83146774D01*
X142333057Y-83146780D01*
X142333058Y-83146782D01*
X142468751Y-83323622D01*
X142468757Y-83323629D01*
X142626370Y-83481242D01*
X142626376Y-83481247D01*
X142803226Y-83616948D01*
X142996274Y-83728405D01*
X143202219Y-83813710D01*
X143417537Y-83871404D01*
X143638543Y-83900500D01*
X143638550Y-83900500D01*
X143861450Y-83900500D01*
X143861457Y-83900500D01*
X144082463Y-83871404D01*
X144297781Y-83813710D01*
X144503726Y-83728405D01*
X144696774Y-83616948D01*
X144873624Y-83481247D01*
X145031247Y-83323624D01*
X145166948Y-83146774D01*
X145278405Y-82953726D01*
X145363710Y-82747781D01*
X145421404Y-82532463D01*
X145450500Y-82311457D01*
X145450500Y-82088549D01*
X147349500Y-82088549D01*
X147349500Y-82311450D01*
X147349501Y-82311466D01*
X147378594Y-82532452D01*
X147378595Y-82532457D01*
X147378596Y-82532463D01*
X147378597Y-82532465D01*
X147436290Y-82747780D01*
X147436293Y-82747790D01*
X147521593Y-82953722D01*
X147521595Y-82953726D01*
X147633052Y-83146774D01*
X147633057Y-83146780D01*
X147633058Y-83146782D01*
X147768751Y-83323622D01*
X147768757Y-83323629D01*
X147926370Y-83481242D01*
X147926376Y-83481247D01*
X148103226Y-83616948D01*
X148296274Y-83728405D01*
X148502219Y-83813710D01*
X148717537Y-83871404D01*
X148938543Y-83900500D01*
X148938550Y-83900500D01*
X149161450Y-83900500D01*
X149161457Y-83900500D01*
X149382463Y-83871404D01*
X149597781Y-83813710D01*
X149803726Y-83728405D01*
X149996774Y-83616948D01*
X150173624Y-83481247D01*
X150331247Y-83323624D01*
X150466948Y-83146774D01*
X150578405Y-82953726D01*
X150663710Y-82747781D01*
X150721404Y-82532463D01*
X150750500Y-82311457D01*
X150750500Y-82088543D01*
X150721404Y-81867537D01*
X150663710Y-81652219D01*
X150578405Y-81446274D01*
X150466948Y-81253226D01*
X150331247Y-81076376D01*
X150331242Y-81076370D01*
X150173629Y-80918757D01*
X150173622Y-80918751D01*
X149996782Y-80783058D01*
X149996780Y-80783057D01*
X149996774Y-80783052D01*
X149803726Y-80671595D01*
X149803722Y-80671593D01*
X149597790Y-80586293D01*
X149597783Y-80586291D01*
X149597781Y-80586290D01*
X149382463Y-80528596D01*
X149382457Y-80528595D01*
X149382452Y-80528594D01*
X149161466Y-80499501D01*
X149161463Y-80499500D01*
X149161457Y-80499500D01*
X148938543Y-80499500D01*
X148938537Y-80499500D01*
X148938533Y-80499501D01*
X148717547Y-80528594D01*
X148717540Y-80528595D01*
X148717537Y-80528596D01*
X148502219Y-80586290D01*
X148502209Y-80586293D01*
X148296277Y-80671593D01*
X148296273Y-80671595D01*
X148103226Y-80783052D01*
X148103217Y-80783058D01*
X147926377Y-80918751D01*
X147926370Y-80918757D01*
X147768757Y-81076370D01*
X147768751Y-81076377D01*
X147633058Y-81253217D01*
X147633052Y-81253226D01*
X147521595Y-81446273D01*
X147521593Y-81446277D01*
X147436293Y-81652209D01*
X147436290Y-81652219D01*
X147378597Y-81867534D01*
X147378594Y-81867547D01*
X147349501Y-82088533D01*
X147349500Y-82088549D01*
X145450500Y-82088549D01*
X145450500Y-82088543D01*
X145421404Y-81867537D01*
X145363710Y-81652219D01*
X145278405Y-81446274D01*
X145166948Y-81253226D01*
X145031247Y-81076376D01*
X145031242Y-81076370D01*
X144873629Y-80918757D01*
X144873622Y-80918751D01*
X144696782Y-80783058D01*
X144696780Y-80783057D01*
X144696774Y-80783052D01*
X144503726Y-80671595D01*
X144503722Y-80671593D01*
X144297790Y-80586293D01*
X144297783Y-80586291D01*
X144297781Y-80586290D01*
X144082463Y-80528596D01*
X144082457Y-80528595D01*
X144082452Y-80528594D01*
X143861466Y-80499501D01*
X143861463Y-80499500D01*
X143861457Y-80499500D01*
X143638543Y-80499500D01*
X143638537Y-80499500D01*
X143638533Y-80499501D01*
X143417547Y-80528594D01*
X143417540Y-80528595D01*
X143417537Y-80528596D01*
X143202219Y-80586290D01*
X143202209Y-80586293D01*
X142996277Y-80671593D01*
X142996273Y-80671595D01*
X142803226Y-80783052D01*
X142803217Y-80783058D01*
X142626377Y-80918751D01*
X142626370Y-80918757D01*
X142468757Y-81076370D01*
X142468751Y-81076377D01*
X142333058Y-81253217D01*
X142333052Y-81253226D01*
X142221595Y-81446273D01*
X142221593Y-81446277D01*
X142136293Y-81652209D01*
X142136290Y-81652219D01*
X142078597Y-81867534D01*
X142078594Y-81867547D01*
X142049501Y-82088533D01*
X142049500Y-82088549D01*
X139700500Y-82088549D01*
X139700500Y-72672135D01*
X155049500Y-72672135D01*
X155049500Y-74467870D01*
X155049501Y-74467876D01*
X155055908Y-74527483D01*
X155106202Y-74662328D01*
X155106206Y-74662335D01*
X155192452Y-74777544D01*
X155192455Y-74777547D01*
X155307664Y-74863793D01*
X155307671Y-74863797D01*
X155352618Y-74880561D01*
X155442517Y-74914091D01*
X155502127Y-74920500D01*
X155512685Y-74920499D01*
X155579723Y-74940179D01*
X155600372Y-74956818D01*
X156270591Y-75627037D01*
X156207007Y-75644075D01*
X156092993Y-75709901D01*
X155999901Y-75802993D01*
X155934075Y-75917007D01*
X155917037Y-75980591D01*
X155284728Y-75348282D01*
X155284727Y-75348282D01*
X155245380Y-75402439D01*
X155148904Y-75591782D01*
X155083242Y-75793869D01*
X155083242Y-75793872D01*
X155050000Y-76003753D01*
X155050000Y-76216246D01*
X155083242Y-76426127D01*
X155083242Y-76426130D01*
X155148904Y-76628217D01*
X155245375Y-76817550D01*
X155284728Y-76871716D01*
X155917037Y-76239408D01*
X155934075Y-76302993D01*
X155999901Y-76417007D01*
X156092993Y-76510099D01*
X156207007Y-76575925D01*
X156270590Y-76592962D01*
X155638282Y-77225269D01*
X155638282Y-77225270D01*
X155692452Y-77264626D01*
X155692451Y-77264626D01*
X155701495Y-77269234D01*
X155752292Y-77317208D01*
X155769087Y-77385029D01*
X155746550Y-77451164D01*
X155701499Y-77490202D01*
X155692182Y-77494949D01*
X155520213Y-77619890D01*
X155369890Y-77770213D01*
X155244951Y-77942179D01*
X155148444Y-78131585D01*
X155082753Y-78333760D01*
X155049500Y-78543713D01*
X155049500Y-78756286D01*
X155082753Y-78966239D01*
X155148444Y-79168414D01*
X155244951Y-79357820D01*
X155369890Y-79529786D01*
X155520213Y-79680109D01*
X155692179Y-79805048D01*
X155692181Y-79805049D01*
X155692184Y-79805051D01*
X155881588Y-79901557D01*
X156083757Y-79967246D01*
X156293713Y-80000500D01*
X156293714Y-80000500D01*
X156506286Y-80000500D01*
X156506287Y-80000500D01*
X156716243Y-79967246D01*
X156918412Y-79901557D01*
X157107816Y-79805051D01*
X157129789Y-79789086D01*
X157279786Y-79680109D01*
X157279788Y-79680106D01*
X157279792Y-79680104D01*
X157430104Y-79529792D01*
X157430106Y-79529788D01*
X157430109Y-79529786D01*
X157555048Y-79357820D01*
X157555047Y-79357820D01*
X157555051Y-79357816D01*
X157651557Y-79168412D01*
X157717246Y-78966243D01*
X157750500Y-78756287D01*
X157750500Y-78543713D01*
X157717246Y-78333757D01*
X157651557Y-78131588D01*
X157555051Y-77942184D01*
X157555049Y-77942181D01*
X157555048Y-77942179D01*
X157430109Y-77770213D01*
X157279786Y-77619890D01*
X157107817Y-77494949D01*
X157098504Y-77490204D01*
X157047707Y-77442230D01*
X157030912Y-77374409D01*
X157053449Y-77308274D01*
X157098507Y-77269232D01*
X157107555Y-77264622D01*
X157161716Y-77225270D01*
X157161717Y-77225270D01*
X156529408Y-76592962D01*
X156592993Y-76575925D01*
X156707007Y-76510099D01*
X156800099Y-76417007D01*
X156865925Y-76302993D01*
X156882962Y-76239408D01*
X157515270Y-76871717D01*
X157515270Y-76871716D01*
X157554622Y-76817554D01*
X157651095Y-76628217D01*
X157716757Y-76426130D01*
X157716757Y-76426127D01*
X157750000Y-76216246D01*
X157750000Y-76003753D01*
X157716757Y-75793872D01*
X157716757Y-75793869D01*
X157651095Y-75591782D01*
X157554624Y-75402449D01*
X157515270Y-75348282D01*
X157515269Y-75348282D01*
X156882962Y-75980590D01*
X156865925Y-75917007D01*
X156800099Y-75802993D01*
X156707007Y-75709901D01*
X156592993Y-75644075D01*
X156529409Y-75627037D01*
X157199627Y-74956818D01*
X157260950Y-74923333D01*
X157287307Y-74920499D01*
X157297872Y-74920499D01*
X157357483Y-74914091D01*
X157492331Y-74863796D01*
X157607546Y-74777546D01*
X157693796Y-74662331D01*
X157744091Y-74527483D01*
X157750500Y-74467873D01*
X157750499Y-72672128D01*
X157744091Y-72612517D01*
X157693796Y-72477669D01*
X157693795Y-72477668D01*
X157693793Y-72477664D01*
X157607547Y-72362455D01*
X157607544Y-72362452D01*
X157492335Y-72276206D01*
X157492328Y-72276202D01*
X157357482Y-72225908D01*
X157357483Y-72225908D01*
X157297883Y-72219501D01*
X157297881Y-72219500D01*
X157297873Y-72219500D01*
X157297864Y-72219500D01*
X155502129Y-72219500D01*
X155502123Y-72219501D01*
X155442516Y-72225908D01*
X155307671Y-72276202D01*
X155307664Y-72276206D01*
X155192455Y-72362452D01*
X155192452Y-72362455D01*
X155106206Y-72477664D01*
X155106202Y-72477671D01*
X155055908Y-72612517D01*
X155049501Y-72672116D01*
X155049501Y-72672123D01*
X155049500Y-72672135D01*
X139700500Y-72672135D01*
X139700500Y-66521153D01*
X161799500Y-66521153D01*
X161799500Y-66678846D01*
X161830261Y-66833489D01*
X161830264Y-66833501D01*
X161890602Y-66979172D01*
X161890609Y-66979184D01*
X161953602Y-67073459D01*
X161974480Y-67140136D01*
X161974500Y-67142350D01*
X161974500Y-69457650D01*
X161954815Y-69524689D01*
X161953602Y-69526541D01*
X161890609Y-69620815D01*
X161890602Y-69620828D01*
X161830264Y-69766498D01*
X161830261Y-69766510D01*
X161799500Y-69921153D01*
X161799500Y-70078846D01*
X161830261Y-70233489D01*
X161830264Y-70233501D01*
X161890602Y-70379172D01*
X161890609Y-70379185D01*
X161978210Y-70510288D01*
X161978213Y-70510292D01*
X162089707Y-70621786D01*
X162089711Y-70621789D01*
X162220814Y-70709390D01*
X162220827Y-70709397D01*
X162366498Y-70769735D01*
X162366503Y-70769737D01*
X162521153Y-70800499D01*
X162521156Y-70800500D01*
X162521158Y-70800500D01*
X162678844Y-70800500D01*
X162678845Y-70800499D01*
X162833497Y-70769737D01*
X162977549Y-70710068D01*
X163047018Y-70702600D01*
X163072453Y-70710069D01*
X163216501Y-70769735D01*
X163216506Y-70769737D01*
X163371156Y-70800499D01*
X163371159Y-70800500D01*
X163371161Y-70800500D01*
X163528847Y-70800500D01*
X163528848Y-70800499D01*
X163683500Y-70769737D01*
X163827552Y-70710068D01*
X163897021Y-70702600D01*
X163922456Y-70710069D01*
X164066504Y-70769735D01*
X164066509Y-70769737D01*
X164221159Y-70800499D01*
X164221162Y-70800500D01*
X164221164Y-70800500D01*
X164378850Y-70800500D01*
X164378851Y-70800499D01*
X164533503Y-70769737D01*
X164646172Y-70723067D01*
X164679178Y-70709397D01*
X164679178Y-70709396D01*
X164679185Y-70709394D01*
X164681113Y-70708105D01*
X164682278Y-70707740D01*
X164684552Y-70706525D01*
X164684782Y-70706956D01*
X164747789Y-70687228D01*
X164815169Y-70705712D01*
X164818853Y-70708079D01*
X164820821Y-70709394D01*
X164820824Y-70709395D01*
X164820827Y-70709397D01*
X164966498Y-70769735D01*
X164966503Y-70769737D01*
X165121153Y-70800499D01*
X165121156Y-70800500D01*
X165121158Y-70800500D01*
X165278844Y-70800500D01*
X165278845Y-70800499D01*
X165433497Y-70769737D01*
X165577549Y-70710068D01*
X165647018Y-70702600D01*
X165672453Y-70710069D01*
X165816501Y-70769735D01*
X165816506Y-70769737D01*
X165971156Y-70800499D01*
X165971159Y-70800500D01*
X165971161Y-70800500D01*
X166128847Y-70800500D01*
X166128848Y-70800499D01*
X166283500Y-70769737D01*
X166427552Y-70710068D01*
X166497021Y-70702600D01*
X166522456Y-70710069D01*
X166666504Y-70769735D01*
X166666509Y-70769737D01*
X166821159Y-70800499D01*
X166821162Y-70800500D01*
X166821164Y-70800500D01*
X166978850Y-70800500D01*
X166978851Y-70800499D01*
X167133503Y-70769737D01*
X167246172Y-70723067D01*
X167279178Y-70709397D01*
X167279178Y-70709396D01*
X167279185Y-70709394D01*
X167410295Y-70621789D01*
X167521795Y-70510289D01*
X167609400Y-70379179D01*
X167669743Y-70233497D01*
X167700506Y-70078842D01*
X167700506Y-69921158D01*
X167700506Y-69921155D01*
X167700505Y-69921153D01*
X167669744Y-69766510D01*
X167669743Y-69766503D01*
X167609400Y-69620821D01*
X167546403Y-69526539D01*
X167525526Y-69459863D01*
X167525506Y-69457650D01*
X167525506Y-67142350D01*
X167545191Y-67075311D01*
X167546404Y-67073459D01*
X167546815Y-67072843D01*
X167609400Y-66979179D01*
X167669743Y-66833497D01*
X167700506Y-66678842D01*
X167700506Y-66521158D01*
X167700506Y-66521155D01*
X167700505Y-66521153D01*
X167669744Y-66366510D01*
X167669743Y-66366503D01*
X167669741Y-66366498D01*
X167609403Y-66220827D01*
X167609396Y-66220814D01*
X167521795Y-66089711D01*
X167521792Y-66089707D01*
X167410298Y-65978213D01*
X167410294Y-65978210D01*
X167279191Y-65890609D01*
X167279178Y-65890602D01*
X167133507Y-65830264D01*
X167133495Y-65830261D01*
X166978851Y-65799500D01*
X166978848Y-65799500D01*
X166821164Y-65799500D01*
X166821161Y-65799500D01*
X166666516Y-65830261D01*
X166666504Y-65830264D01*
X166522456Y-65889930D01*
X166452986Y-65897399D01*
X166427552Y-65889930D01*
X166283504Y-65830264D01*
X166283492Y-65830261D01*
X166128848Y-65799500D01*
X166128845Y-65799500D01*
X165971161Y-65799500D01*
X165971158Y-65799500D01*
X165816513Y-65830261D01*
X165816501Y-65830264D01*
X165672453Y-65889930D01*
X165602983Y-65897399D01*
X165577549Y-65889930D01*
X165433501Y-65830264D01*
X165433489Y-65830261D01*
X165278845Y-65799500D01*
X165278842Y-65799500D01*
X165121158Y-65799500D01*
X165121155Y-65799500D01*
X164966510Y-65830261D01*
X164966498Y-65830264D01*
X164820822Y-65890604D01*
X164820821Y-65890605D01*
X164818888Y-65891897D01*
X164817722Y-65892261D01*
X164815451Y-65893476D01*
X164815220Y-65893045D01*
X164752209Y-65912771D01*
X164684830Y-65894283D01*
X164681118Y-65891897D01*
X164679184Y-65890605D01*
X164679183Y-65890604D01*
X164533507Y-65830264D01*
X164533495Y-65830261D01*
X164378851Y-65799500D01*
X164378848Y-65799500D01*
X164221164Y-65799500D01*
X164221161Y-65799500D01*
X164066516Y-65830261D01*
X164066504Y-65830264D01*
X163922456Y-65889930D01*
X163852986Y-65897399D01*
X163827552Y-65889930D01*
X163683504Y-65830264D01*
X163683492Y-65830261D01*
X163528848Y-65799500D01*
X163528845Y-65799500D01*
X163371161Y-65799500D01*
X163371158Y-65799500D01*
X163216513Y-65830261D01*
X163216501Y-65830264D01*
X163072453Y-65889930D01*
X163002983Y-65897399D01*
X162977549Y-65889930D01*
X162833501Y-65830264D01*
X162833489Y-65830261D01*
X162678845Y-65799500D01*
X162678842Y-65799500D01*
X162521158Y-65799500D01*
X162521155Y-65799500D01*
X162366510Y-65830261D01*
X162366498Y-65830264D01*
X162220827Y-65890602D01*
X162220814Y-65890609D01*
X162089711Y-65978210D01*
X162089707Y-65978213D01*
X161978213Y-66089707D01*
X161978210Y-66089711D01*
X161890609Y-66220814D01*
X161890602Y-66220827D01*
X161830264Y-66366498D01*
X161830261Y-66366510D01*
X161799500Y-66521153D01*
X139700500Y-66521153D01*
X139700500Y-52818386D01*
X143849500Y-52818386D01*
X143849500Y-53331613D01*
X143855913Y-53402192D01*
X143855913Y-53402194D01*
X143855914Y-53402196D01*
X143906522Y-53564606D01*
X143993567Y-53708596D01*
X144011403Y-53776148D01*
X143990553Y-53841634D01*
X143952429Y-53898691D01*
X143884587Y-54062476D01*
X143884584Y-54062483D01*
X143882096Y-54075000D01*
X144950272Y-54075000D01*
X144858386Y-54113060D01*
X144788060Y-54183386D01*
X144750000Y-54275272D01*
X144750000Y-54374728D01*
X144788060Y-54466614D01*
X144858386Y-54536940D01*
X144950272Y-54575000D01*
X143882096Y-54575000D01*
X143884584Y-54587516D01*
X143884587Y-54587523D01*
X143952428Y-54751306D01*
X143952433Y-54751316D01*
X144038858Y-54880659D01*
X144059736Y-54947336D01*
X144041252Y-55014717D01*
X144038858Y-55018441D01*
X143951990Y-55148446D01*
X143951983Y-55148459D01*
X143884106Y-55312332D01*
X143884103Y-55312341D01*
X143849500Y-55486304D01*
X143849500Y-55663695D01*
X143884103Y-55837658D01*
X143884106Y-55837667D01*
X143951983Y-56001540D01*
X143951990Y-56001553D01*
X144038557Y-56131109D01*
X144059435Y-56197787D01*
X144040950Y-56265167D01*
X144038557Y-56268891D01*
X143951990Y-56398446D01*
X143951983Y-56398459D01*
X143884106Y-56562332D01*
X143884103Y-56562341D01*
X143849500Y-56736304D01*
X143849500Y-56913695D01*
X143884103Y-57087658D01*
X143884106Y-57087667D01*
X143951983Y-57251540D01*
X143951990Y-57251553D01*
X144038557Y-57381109D01*
X144059435Y-57447787D01*
X144040950Y-57515167D01*
X144038557Y-57518891D01*
X143951990Y-57648446D01*
X143951983Y-57648459D01*
X143884106Y-57812332D01*
X143884103Y-57812341D01*
X143849500Y-57986304D01*
X143849500Y-58163695D01*
X143884103Y-58337658D01*
X143884106Y-58337667D01*
X143951983Y-58501540D01*
X143951990Y-58501553D01*
X144038557Y-58631109D01*
X144059435Y-58697787D01*
X144040950Y-58765167D01*
X144038557Y-58768891D01*
X143951990Y-58898446D01*
X143951983Y-58898459D01*
X143884106Y-59062332D01*
X143884103Y-59062341D01*
X143849500Y-59236304D01*
X143849500Y-59413695D01*
X143884103Y-59587658D01*
X143884106Y-59587667D01*
X143951983Y-59751540D01*
X143951990Y-59751553D01*
X144038557Y-59881109D01*
X144059435Y-59947787D01*
X144040950Y-60015167D01*
X144038557Y-60018891D01*
X143951990Y-60148446D01*
X143951983Y-60148459D01*
X143884106Y-60312332D01*
X143884103Y-60312341D01*
X143849500Y-60486304D01*
X143849500Y-60663695D01*
X143884103Y-60837658D01*
X143884106Y-60837667D01*
X143951983Y-61001540D01*
X143951990Y-61001553D01*
X144038557Y-61131109D01*
X144059435Y-61197787D01*
X144040950Y-61265167D01*
X144038557Y-61268891D01*
X143951990Y-61398446D01*
X143951983Y-61398459D01*
X143884106Y-61562332D01*
X143884103Y-61562341D01*
X143849500Y-61736304D01*
X143849500Y-61913695D01*
X143884103Y-62087658D01*
X143884106Y-62087667D01*
X143951983Y-62251540D01*
X143951990Y-62251553D01*
X144050535Y-62399034D01*
X144050538Y-62399038D01*
X144175961Y-62524461D01*
X144175965Y-62524464D01*
X144323446Y-62623009D01*
X144323459Y-62623016D01*
X144446363Y-62673923D01*
X144487334Y-62690894D01*
X144487336Y-62690894D01*
X144487341Y-62690896D01*
X144661304Y-62725499D01*
X144661307Y-62725500D01*
X144661309Y-62725500D01*
X145338693Y-62725500D01*
X145338694Y-62725499D01*
X145396682Y-62713964D01*
X145512658Y-62690896D01*
X145512661Y-62690894D01*
X145512666Y-62690894D01*
X145676547Y-62623013D01*
X145824035Y-62524464D01*
X145949464Y-62399035D01*
X146048013Y-62251547D01*
X146115894Y-62087666D01*
X146116310Y-62085579D01*
X146150499Y-61913695D01*
X146150500Y-61913693D01*
X146150500Y-61736306D01*
X146150499Y-61736304D01*
X146115896Y-61562341D01*
X146115893Y-61562332D01*
X146048016Y-61398459D01*
X146048014Y-61398455D01*
X146048013Y-61398453D01*
X146034487Y-61378210D01*
X145961442Y-61268891D01*
X145940564Y-61202214D01*
X145959048Y-61134834D01*
X145961442Y-61131109D01*
X145977352Y-61107296D01*
X146048013Y-61001547D01*
X146115894Y-60837666D01*
X146150500Y-60663691D01*
X146150500Y-60486309D01*
X146150500Y-60486306D01*
X146150499Y-60486304D01*
X146115896Y-60312341D01*
X146115893Y-60312332D01*
X146115046Y-60310288D01*
X146098923Y-60271363D01*
X146048016Y-60148459D01*
X146048014Y-60148455D01*
X146048013Y-60148453D01*
X146048008Y-60148446D01*
X145961442Y-60018891D01*
X145955468Y-59999813D01*
X145944962Y-59982805D01*
X145945241Y-59967152D01*
X145940564Y-59952214D01*
X145945852Y-59932936D01*
X145946209Y-59912947D01*
X145958225Y-59887830D01*
X145959048Y-59884834D01*
X145961442Y-59881109D01*
X146040158Y-59763303D01*
X146093770Y-59718498D01*
X146163095Y-59709791D01*
X146190709Y-59717631D01*
X146316503Y-59769737D01*
X146430804Y-59792473D01*
X146471153Y-59800499D01*
X146471156Y-59800500D01*
X146471158Y-59800500D01*
X146514548Y-59800500D01*
X146581587Y-59820185D01*
X146602229Y-59836819D01*
X147824205Y-61058795D01*
X147857690Y-61120118D01*
X147858141Y-61122285D01*
X147880261Y-61233489D01*
X147880264Y-61233501D01*
X147940602Y-61379172D01*
X147940609Y-61379185D01*
X148028210Y-61510288D01*
X148028213Y-61510292D01*
X148139707Y-61621786D01*
X148139711Y-61621789D01*
X148270814Y-61709390D01*
X148270827Y-61709397D01*
X148349940Y-61742166D01*
X148416503Y-61769737D01*
X148571153Y-61800499D01*
X148571156Y-61800500D01*
X148571158Y-61800500D01*
X148728844Y-61800500D01*
X148728845Y-61800499D01*
X148883497Y-61769737D01*
X149029179Y-61709394D01*
X149160289Y-61621789D01*
X149271789Y-61510289D01*
X149359394Y-61379179D01*
X149419737Y-61233497D01*
X149450500Y-61078842D01*
X149450500Y-60921158D01*
X149450500Y-60921155D01*
X149450499Y-60921153D01*
X149433892Y-60837666D01*
X149419737Y-60766503D01*
X149419735Y-60766498D01*
X149359397Y-60620827D01*
X149359395Y-60620823D01*
X149359394Y-60620821D01*
X149316541Y-60556687D01*
X149295663Y-60490010D01*
X149314147Y-60422630D01*
X149331959Y-60400118D01*
X149421789Y-60310289D01*
X149509394Y-60179179D01*
X149569737Y-60033497D01*
X149600500Y-59878842D01*
X149600500Y-59721158D01*
X149600500Y-59721155D01*
X149600499Y-59721153D01*
X149583038Y-59633370D01*
X149569737Y-59566503D01*
X149561877Y-59547527D01*
X149509397Y-59420827D01*
X149509390Y-59420814D01*
X149421789Y-59289711D01*
X149421786Y-59289707D01*
X149310292Y-59178213D01*
X149310288Y-59178210D01*
X149179185Y-59090609D01*
X149179172Y-59090602D01*
X149033501Y-59030264D01*
X149033489Y-59030261D01*
X148878849Y-58999500D01*
X148873350Y-58998959D01*
X148808564Y-58972796D01*
X148797827Y-58963237D01*
X147375793Y-57541203D01*
X147342308Y-57479880D01*
X147341887Y-57477864D01*
X147319737Y-57366503D01*
X147272118Y-57251540D01*
X147259397Y-57220827D01*
X147259390Y-57220814D01*
X147171789Y-57089711D01*
X147171786Y-57089707D01*
X147060292Y-56978213D01*
X147060288Y-56978210D01*
X146929185Y-56890609D01*
X146929172Y-56890602D01*
X146783501Y-56830264D01*
X146783489Y-56830261D01*
X146628845Y-56799500D01*
X146628842Y-56799500D01*
X146471158Y-56799500D01*
X146471155Y-56799500D01*
X146316510Y-56830261D01*
X146310676Y-56832031D01*
X146310027Y-56829894D01*
X146250488Y-56836278D01*
X146188019Y-56804984D01*
X146152384Y-56744885D01*
X146150925Y-56738446D01*
X146115896Y-56562341D01*
X146115893Y-56562332D01*
X146048016Y-56398459D01*
X146048014Y-56398455D01*
X146048013Y-56398453D01*
X146048008Y-56398446D01*
X145961442Y-56268891D01*
X145940564Y-56202214D01*
X145959048Y-56134834D01*
X145961442Y-56131109D01*
X145977352Y-56107296D01*
X146048013Y-56001547D01*
X146115894Y-55837666D01*
X146150500Y-55663691D01*
X146150500Y-55486309D01*
X146150500Y-55486306D01*
X146150499Y-55486304D01*
X146115896Y-55312341D01*
X146115893Y-55312332D01*
X146048016Y-55148459D01*
X146048014Y-55148455D01*
X146048013Y-55148453D01*
X145961140Y-55018440D01*
X145940263Y-54951764D01*
X145958747Y-54884384D01*
X145961141Y-54880659D01*
X146047566Y-54751315D01*
X146047571Y-54751306D01*
X146115412Y-54587523D01*
X146115415Y-54587516D01*
X146117904Y-54575000D01*
X145049728Y-54575000D01*
X145141614Y-54536940D01*
X145211940Y-54466614D01*
X145250000Y-54374728D01*
X145250000Y-54275272D01*
X145211940Y-54183386D01*
X145141614Y-54113060D01*
X145049728Y-54075000D01*
X146117904Y-54075000D01*
X146115415Y-54062483D01*
X146115412Y-54062476D01*
X146047571Y-53898693D01*
X146047569Y-53898689D01*
X146009447Y-53841636D01*
X145988569Y-53774958D01*
X146006431Y-53708597D01*
X146093478Y-53564606D01*
X146144086Y-53402196D01*
X146150500Y-53331616D01*
X146150500Y-52818384D01*
X146144086Y-52747804D01*
X146093478Y-52585394D01*
X146005472Y-52439815D01*
X146005470Y-52439813D01*
X146005469Y-52439811D01*
X145885188Y-52319530D01*
X145739606Y-52231522D01*
X145577196Y-52180914D01*
X145577194Y-52180913D01*
X145577192Y-52180913D01*
X145527778Y-52176423D01*
X145506616Y-52174500D01*
X144493384Y-52174500D01*
X144474145Y-52176248D01*
X144422807Y-52180913D01*
X144260393Y-52231522D01*
X144114811Y-52319530D01*
X143994530Y-52439811D01*
X143906522Y-52585393D01*
X143855913Y-52747807D01*
X143849500Y-52818386D01*
X139700500Y-52818386D01*
X139700500Y-48205096D01*
X142099500Y-48205096D01*
X142099500Y-49405114D01*
X142099501Y-49405131D01*
X142110000Y-49507909D01*
X142110001Y-49507912D01*
X142151193Y-49632219D01*
X142165186Y-49674447D01*
X142257288Y-49823769D01*
X142381344Y-49947825D01*
X142530666Y-50039927D01*
X142697203Y-50095112D01*
X142799991Y-50105613D01*
X144000008Y-50105612D01*
X144102797Y-50095112D01*
X144269334Y-50039927D01*
X144418656Y-49947825D01*
X144542712Y-49823769D01*
X144634814Y-49674447D01*
X144689999Y-49507910D01*
X144700500Y-49405122D01*
X144700499Y-48205105D01*
X144689999Y-48102316D01*
X144634814Y-47935779D01*
X144542712Y-47786457D01*
X144473488Y-47717233D01*
X144440003Y-47655910D01*
X144444987Y-47586218D01*
X144460852Y-47556665D01*
X144511858Y-47486462D01*
X144511863Y-47486454D01*
X144604755Y-47304144D01*
X144667990Y-47109530D01*
X144700000Y-46907430D01*
X144700000Y-46702795D01*
X144667990Y-46500695D01*
X144604755Y-46306081D01*
X144511859Y-46123763D01*
X144479474Y-46079190D01*
X144479474Y-46079189D01*
X143800000Y-46758664D01*
X143800000Y-46752452D01*
X143772741Y-46650719D01*
X143720080Y-46559507D01*
X143645606Y-46485033D01*
X143554394Y-46432372D01*
X143452661Y-46405113D01*
X143446446Y-46405113D01*
X144125922Y-45725637D01*
X144125921Y-45725636D01*
X144094804Y-45703027D01*
X144094781Y-45703012D01*
X144081350Y-45693254D01*
X143913166Y-45607559D01*
X153205500Y-45607559D01*
X153205500Y-45792440D01*
X153234419Y-45975030D01*
X153291546Y-46150849D01*
X153291547Y-46150852D01*
X153375479Y-46315575D01*
X153484135Y-46465129D01*
X153484139Y-46465134D01*
X153614865Y-46595860D01*
X153614870Y-46595864D01*
X153745318Y-46690639D01*
X153764428Y-46704523D01*
X153858494Y-46752452D01*
X153929147Y-46788452D01*
X153929150Y-46788453D01*
X154017059Y-46817016D01*
X154104971Y-46845580D01*
X154115150Y-46847192D01*
X154117263Y-46847527D01*
X154180397Y-46877457D01*
X154217328Y-46936769D01*
X154216330Y-47006631D01*
X154177719Y-47064864D01*
X154117263Y-47092473D01*
X154104969Y-47094420D01*
X153929150Y-47151546D01*
X153929147Y-47151547D01*
X153764424Y-47235479D01*
X153614870Y-47344135D01*
X153614865Y-47344139D01*
X153484139Y-47474865D01*
X153484135Y-47474870D01*
X153375479Y-47624424D01*
X153291547Y-47789147D01*
X153291546Y-47789150D01*
X153234419Y-47964969D01*
X153205500Y-48147559D01*
X153205500Y-48332440D01*
X153234419Y-48515030D01*
X153291546Y-48690849D01*
X153291547Y-48690852D01*
X153348588Y-48802799D01*
X153364231Y-48833501D01*
X153375479Y-48855575D01*
X153484135Y-49005129D01*
X153484139Y-49005134D01*
X153614865Y-49135860D01*
X153614870Y-49135864D01*
X153674489Y-49179179D01*
X153764428Y-49244523D01*
X153839881Y-49282968D01*
X153929147Y-49328452D01*
X153929150Y-49328453D01*
X154017059Y-49357016D01*
X154104971Y-49385580D01*
X154115150Y-49387192D01*
X154117263Y-49387527D01*
X154180397Y-49417457D01*
X154217328Y-49476769D01*
X154216330Y-49546631D01*
X154177719Y-49604864D01*
X154117263Y-49632473D01*
X154104969Y-49634420D01*
X153929150Y-49691546D01*
X153929147Y-49691547D01*
X153764424Y-49775479D01*
X153614870Y-49884135D01*
X153614865Y-49884139D01*
X153484139Y-50014865D01*
X153484135Y-50014870D01*
X153375479Y-50164424D01*
X153291547Y-50329147D01*
X153291546Y-50329150D01*
X153234419Y-50504969D01*
X153205500Y-50687559D01*
X153205500Y-50872440D01*
X153234419Y-51055030D01*
X153291546Y-51230849D01*
X153291547Y-51230852D01*
X153375479Y-51395575D01*
X153484135Y-51545129D01*
X153484139Y-51545134D01*
X153614865Y-51675860D01*
X153614870Y-51675864D01*
X153677213Y-51721158D01*
X153764428Y-51784523D01*
X153872106Y-51839388D01*
X153929147Y-51868452D01*
X153929150Y-51868453D01*
X153981290Y-51885394D01*
X154104971Y-51925580D01*
X154115150Y-51927192D01*
X154117263Y-51927527D01*
X154180397Y-51957457D01*
X154217328Y-52016769D01*
X154216330Y-52086631D01*
X154177719Y-52144864D01*
X154117263Y-52172473D01*
X154104969Y-52174420D01*
X153929150Y-52231546D01*
X153929147Y-52231547D01*
X153764424Y-52315479D01*
X153614870Y-52424135D01*
X153614865Y-52424139D01*
X153484139Y-52554865D01*
X153484135Y-52554870D01*
X153375479Y-52704424D01*
X153291547Y-52869147D01*
X153291546Y-52869150D01*
X153234419Y-53044969D01*
X153205500Y-53227559D01*
X153205500Y-53412440D01*
X153234419Y-53595030D01*
X153291546Y-53770849D01*
X153291547Y-53770852D01*
X153375479Y-53935575D01*
X153484135Y-54085129D01*
X153484139Y-54085134D01*
X153614865Y-54215860D01*
X153614870Y-54215864D01*
X153696639Y-54275272D01*
X153764428Y-54324523D01*
X153862961Y-54374728D01*
X153929147Y-54408452D01*
X153929150Y-54408453D01*
X154017059Y-54437016D01*
X154104971Y-54465580D01*
X154115150Y-54467192D01*
X154117263Y-54467527D01*
X154180397Y-54497457D01*
X154217328Y-54556769D01*
X154216330Y-54626631D01*
X154177719Y-54684864D01*
X154117263Y-54712473D01*
X154104969Y-54714420D01*
X153929150Y-54771546D01*
X153929147Y-54771547D01*
X153764424Y-54855479D01*
X153614870Y-54964135D01*
X153614865Y-54964139D01*
X153484139Y-55094865D01*
X153484135Y-55094870D01*
X153375479Y-55244424D01*
X153291547Y-55409147D01*
X153291546Y-55409150D01*
X153234419Y-55584969D01*
X153205500Y-55767559D01*
X153205500Y-55952440D01*
X153234419Y-56135030D01*
X153291546Y-56310849D01*
X153291547Y-56310852D01*
X153375479Y-56475575D01*
X153484135Y-56625129D01*
X153484139Y-56625134D01*
X153614865Y-56755860D01*
X153614870Y-56755864D01*
X153674931Y-56799500D01*
X153764428Y-56864523D01*
X153860926Y-56913691D01*
X153929147Y-56948452D01*
X153929150Y-56948453D01*
X154017059Y-56977016D01*
X154104971Y-57005580D01*
X154115150Y-57007192D01*
X154117263Y-57007527D01*
X154180397Y-57037457D01*
X154217328Y-57096769D01*
X154216330Y-57166631D01*
X154177719Y-57224864D01*
X154117263Y-57252473D01*
X154104969Y-57254420D01*
X153929150Y-57311546D01*
X153929147Y-57311547D01*
X153764424Y-57395479D01*
X153614870Y-57504135D01*
X153614865Y-57504139D01*
X153484139Y-57634865D01*
X153484135Y-57634870D01*
X153375479Y-57784424D01*
X153291547Y-57949147D01*
X153291546Y-57949150D01*
X153234419Y-58124969D01*
X153205500Y-58307559D01*
X153205500Y-58492440D01*
X153234419Y-58675030D01*
X153291546Y-58850849D01*
X153291547Y-58850852D01*
X153321834Y-58910292D01*
X153367012Y-58998959D01*
X153375479Y-59015575D01*
X153484135Y-59165129D01*
X153484139Y-59165134D01*
X153614865Y-59295860D01*
X153614870Y-59295864D01*
X153745318Y-59390639D01*
X153764428Y-59404523D01*
X153872106Y-59459388D01*
X153929147Y-59488452D01*
X153929150Y-59488453D01*
X154017059Y-59517016D01*
X154104971Y-59545580D01*
X154115150Y-59547192D01*
X154117263Y-59547527D01*
X154180397Y-59577457D01*
X154217328Y-59636769D01*
X154216330Y-59706631D01*
X154177719Y-59764864D01*
X154117263Y-59792473D01*
X154104969Y-59794420D01*
X153929150Y-59851546D01*
X153929147Y-59851547D01*
X153764424Y-59935479D01*
X153614870Y-60044135D01*
X153614865Y-60044139D01*
X153484139Y-60174865D01*
X153484135Y-60174870D01*
X153375479Y-60324424D01*
X153291547Y-60489147D01*
X153291546Y-60489150D01*
X153234419Y-60664969D01*
X153205500Y-60847559D01*
X153205500Y-61032440D01*
X153234419Y-61215030D01*
X153291546Y-61390849D01*
X153291547Y-61390852D01*
X153375479Y-61555575D01*
X153484135Y-61705129D01*
X153484139Y-61705134D01*
X153614865Y-61835860D01*
X153614870Y-61835864D01*
X153721991Y-61913691D01*
X153764428Y-61944523D01*
X153872106Y-61999388D01*
X153929147Y-62028452D01*
X153929150Y-62028453D01*
X154017059Y-62057016D01*
X154104971Y-62085580D01*
X154115150Y-62087192D01*
X154117263Y-62087527D01*
X154180397Y-62117457D01*
X154217328Y-62176769D01*
X154216330Y-62246631D01*
X154177719Y-62304864D01*
X154117263Y-62332473D01*
X154104969Y-62334420D01*
X153929150Y-62391546D01*
X153929147Y-62391547D01*
X153764424Y-62475479D01*
X153614870Y-62584135D01*
X153614865Y-62584139D01*
X153484139Y-62714865D01*
X153484135Y-62714870D01*
X153375479Y-62864424D01*
X153291547Y-63029147D01*
X153291546Y-63029150D01*
X153234419Y-63204969D01*
X153205500Y-63387559D01*
X153205500Y-63572440D01*
X153234419Y-63755030D01*
X153291546Y-63930849D01*
X153291547Y-63930852D01*
X153375479Y-64095575D01*
X153484135Y-64245129D01*
X153484139Y-64245134D01*
X153614865Y-64375860D01*
X153614870Y-64375864D01*
X153729016Y-64458795D01*
X153764428Y-64484523D01*
X153872106Y-64539388D01*
X153929147Y-64568452D01*
X153929150Y-64568453D01*
X154104969Y-64625580D01*
X154287560Y-64654500D01*
X154287565Y-64654500D01*
X154472440Y-64654500D01*
X154655030Y-64625580D01*
X154830849Y-64568453D01*
X154830852Y-64568452D01*
X154995572Y-64484523D01*
X155145136Y-64375859D01*
X155275859Y-64245136D01*
X155384523Y-64095572D01*
X155468452Y-63930852D01*
X155468453Y-63930849D01*
X155525580Y-63755030D01*
X155554500Y-63572440D01*
X155554500Y-63387559D01*
X155525580Y-63204969D01*
X155468453Y-63029150D01*
X155468452Y-63029147D01*
X155407434Y-62909394D01*
X155384523Y-62864428D01*
X155315727Y-62769738D01*
X155275864Y-62714870D01*
X155275860Y-62714865D01*
X155145134Y-62584139D01*
X155145129Y-62584135D01*
X154995575Y-62475479D01*
X154995574Y-62475478D01*
X154995572Y-62475477D01*
X154913182Y-62433497D01*
X154830852Y-62391547D01*
X154830849Y-62391546D01*
X154655030Y-62334420D01*
X154642737Y-62332473D01*
X154579602Y-62302544D01*
X154542671Y-62243232D01*
X154543669Y-62173370D01*
X154582279Y-62115137D01*
X154642737Y-62087527D01*
X154644508Y-62087246D01*
X154655029Y-62085580D01*
X154830852Y-62028452D01*
X154995572Y-61944523D01*
X155145136Y-61835859D01*
X155275859Y-61705136D01*
X155384523Y-61555572D01*
X155468452Y-61390852D01*
X155501025Y-61290602D01*
X155525580Y-61215030D01*
X155554500Y-61032440D01*
X155554500Y-60847559D01*
X155525580Y-60664969D01*
X155468453Y-60489150D01*
X155468452Y-60489147D01*
X155423087Y-60400114D01*
X155384523Y-60324428D01*
X155370639Y-60305318D01*
X155275864Y-60174870D01*
X155275860Y-60174865D01*
X155145134Y-60044139D01*
X155145129Y-60044135D01*
X154995575Y-59935479D01*
X154995574Y-59935478D01*
X154995572Y-59935477D01*
X154924051Y-59899035D01*
X154830852Y-59851547D01*
X154830849Y-59851546D01*
X154655030Y-59794420D01*
X154642737Y-59792473D01*
X154579602Y-59762544D01*
X154542671Y-59703232D01*
X154543669Y-59633370D01*
X154582279Y-59575137D01*
X154642737Y-59547527D01*
X154644508Y-59547246D01*
X154655029Y-59545580D01*
X154830852Y-59488452D01*
X154995572Y-59404523D01*
X155145136Y-59295859D01*
X155275859Y-59165136D01*
X155384523Y-59015572D01*
X155468452Y-58850852D01*
X155500907Y-58750965D01*
X155525580Y-58675030D01*
X155554500Y-58492440D01*
X155554500Y-58321153D01*
X156599500Y-58321153D01*
X156599500Y-58478846D01*
X156630261Y-58633489D01*
X156630264Y-58633501D01*
X156690602Y-58779172D01*
X156690609Y-58779185D01*
X156778210Y-58910288D01*
X156778213Y-58910292D01*
X156889707Y-59021786D01*
X156889711Y-59021789D01*
X157020814Y-59109390D01*
X157020827Y-59109397D01*
X157155378Y-59165129D01*
X157166503Y-59169737D01*
X157321153Y-59200499D01*
X157321156Y-59200500D01*
X157321158Y-59200500D01*
X157478844Y-59200500D01*
X157478845Y-59200499D01*
X157633497Y-59169737D01*
X157779179Y-59109394D01*
X157873459Y-59046398D01*
X157940136Y-59025520D01*
X157942350Y-59025500D01*
X158489548Y-59025500D01*
X158556587Y-59045185D01*
X158577229Y-59061819D01*
X161574205Y-62058795D01*
X161607690Y-62120118D01*
X161608141Y-62122285D01*
X161630261Y-62233489D01*
X161630264Y-62233501D01*
X161690602Y-62379172D01*
X161690609Y-62379185D01*
X161778210Y-62510288D01*
X161778213Y-62510292D01*
X161889707Y-62621786D01*
X161889711Y-62621789D01*
X162020814Y-62709390D01*
X162020827Y-62709397D01*
X162166498Y-62769735D01*
X162166503Y-62769737D01*
X162321153Y-62800499D01*
X162321156Y-62800500D01*
X162321158Y-62800500D01*
X162478844Y-62800500D01*
X162478845Y-62800499D01*
X162633497Y-62769737D01*
X162779179Y-62709394D01*
X162910289Y-62621789D01*
X163021789Y-62510289D01*
X163041234Y-62481188D01*
X163094846Y-62436383D01*
X163164171Y-62427676D01*
X163227198Y-62457830D01*
X163258897Y-62502627D01*
X163290602Y-62579172D01*
X163290609Y-62579185D01*
X163378210Y-62710288D01*
X163378213Y-62710292D01*
X163489710Y-62821789D01*
X163622671Y-62910630D01*
X163641461Y-62926051D01*
X165174205Y-64458795D01*
X165207690Y-64520118D01*
X165208141Y-64522285D01*
X165230261Y-64633489D01*
X165230264Y-64633501D01*
X165290602Y-64779172D01*
X165290609Y-64779185D01*
X165378210Y-64910288D01*
X165378213Y-64910292D01*
X165489707Y-65021786D01*
X165489711Y-65021789D01*
X165620814Y-65109390D01*
X165620827Y-65109397D01*
X165766498Y-65169735D01*
X165766503Y-65169737D01*
X165921153Y-65200499D01*
X165921156Y-65200500D01*
X165921158Y-65200500D01*
X166078844Y-65200500D01*
X166078845Y-65200499D01*
X166233497Y-65169737D01*
X166379179Y-65109394D01*
X166510289Y-65021789D01*
X166621789Y-64910289D01*
X166709394Y-64779179D01*
X166769737Y-64633497D01*
X166800500Y-64478842D01*
X166800500Y-64321158D01*
X166800500Y-64321155D01*
X166800499Y-64321153D01*
X166769738Y-64166510D01*
X166769737Y-64166503D01*
X166740357Y-64095572D01*
X166709397Y-64020827D01*
X166709390Y-64020814D01*
X166621789Y-63889711D01*
X166621786Y-63889707D01*
X166510292Y-63778213D01*
X166510288Y-63778210D01*
X166379185Y-63690609D01*
X166379172Y-63690602D01*
X166233501Y-63630264D01*
X166233489Y-63630261D01*
X166122285Y-63608141D01*
X166060374Y-63575756D01*
X166058795Y-63574205D01*
X164836819Y-62352229D01*
X164803334Y-62290906D01*
X164800500Y-62264548D01*
X164800500Y-62121155D01*
X164800499Y-62121153D01*
X164788095Y-62058795D01*
X164769737Y-61966503D01*
X164760633Y-61944523D01*
X164709397Y-61820827D01*
X164709390Y-61820814D01*
X164621789Y-61689711D01*
X164621786Y-61689707D01*
X164510292Y-61578213D01*
X164510288Y-61578210D01*
X164379185Y-61490609D01*
X164379172Y-61490602D01*
X164233501Y-61430264D01*
X164233489Y-61430261D01*
X164078845Y-61399500D01*
X164078842Y-61399500D01*
X163921158Y-61399500D01*
X163921155Y-61399500D01*
X163766510Y-61430261D01*
X163766498Y-61430264D01*
X163620827Y-61490602D01*
X163620814Y-61490609D01*
X163489711Y-61578210D01*
X163489707Y-61578213D01*
X163378213Y-61689707D01*
X163378209Y-61689712D01*
X163358763Y-61718814D01*
X163305149Y-61763618D01*
X163235824Y-61772323D01*
X163172797Y-61742166D01*
X163141102Y-61697373D01*
X163109394Y-61620821D01*
X163109390Y-61620814D01*
X163021789Y-61489711D01*
X163021786Y-61489707D01*
X162910292Y-61378213D01*
X162910288Y-61378210D01*
X162779185Y-61290609D01*
X162779172Y-61290602D01*
X162633501Y-61230264D01*
X162633489Y-61230261D01*
X162522285Y-61208141D01*
X162460374Y-61175756D01*
X162458795Y-61174205D01*
X159293150Y-58008560D01*
X159285860Y-58001270D01*
X159285858Y-58001267D01*
X159198733Y-57914142D01*
X159147509Y-57879915D01*
X159096286Y-57845688D01*
X159015761Y-57812334D01*
X158982452Y-57798537D01*
X158901580Y-57782451D01*
X158897565Y-57781652D01*
X158897560Y-57781651D01*
X158873858Y-57776936D01*
X158861607Y-57774500D01*
X158861606Y-57774500D01*
X157942350Y-57774500D01*
X157875311Y-57754815D01*
X157873459Y-57753602D01*
X157779184Y-57690609D01*
X157779172Y-57690602D01*
X157633501Y-57630264D01*
X157633489Y-57630261D01*
X157478845Y-57599500D01*
X157478842Y-57599500D01*
X157321158Y-57599500D01*
X157321155Y-57599500D01*
X157166510Y-57630261D01*
X157166498Y-57630264D01*
X157020827Y-57690602D01*
X157020814Y-57690609D01*
X156889711Y-57778210D01*
X156889707Y-57778213D01*
X156778213Y-57889707D01*
X156778210Y-57889711D01*
X156690609Y-58020814D01*
X156690602Y-58020827D01*
X156630264Y-58166498D01*
X156630261Y-58166510D01*
X156599500Y-58321153D01*
X155554500Y-58321153D01*
X155554500Y-58307559D01*
X155525580Y-58124969D01*
X155468453Y-57949150D01*
X155468452Y-57949147D01*
X155433176Y-57879915D01*
X155384523Y-57784428D01*
X155316355Y-57690602D01*
X155275864Y-57634870D01*
X155275860Y-57634865D01*
X155145134Y-57504139D01*
X155145129Y-57504135D01*
X154995575Y-57395479D01*
X154995574Y-57395478D01*
X154995572Y-57395477D01*
X154938705Y-57366502D01*
X154830852Y-57311547D01*
X154830849Y-57311546D01*
X154655030Y-57254420D01*
X154642737Y-57252473D01*
X154579602Y-57222544D01*
X154542671Y-57163232D01*
X154543669Y-57093370D01*
X154582279Y-57035137D01*
X154642737Y-57007527D01*
X154644508Y-57007246D01*
X154655029Y-57005580D01*
X154830852Y-56948452D01*
X154995572Y-56864523D01*
X155145136Y-56755859D01*
X155275859Y-56625136D01*
X155384523Y-56475572D01*
X155468452Y-56310852D01*
X155487910Y-56250965D01*
X155525580Y-56135030D01*
X155554500Y-55952440D01*
X155554500Y-55767559D01*
X155525580Y-55584969D01*
X155468453Y-55409150D01*
X155468452Y-55409147D01*
X155419126Y-55312341D01*
X155384523Y-55244428D01*
X155314798Y-55148459D01*
X155275864Y-55094870D01*
X155275860Y-55094865D01*
X155145134Y-54964139D01*
X155145129Y-54964135D01*
X154995575Y-54855479D01*
X154995574Y-54855478D01*
X154995572Y-54855477D01*
X154942799Y-54828588D01*
X154830852Y-54771547D01*
X154830849Y-54771546D01*
X154655030Y-54714420D01*
X154642737Y-54712473D01*
X154579602Y-54682544D01*
X154542671Y-54623232D01*
X154543669Y-54553370D01*
X154582279Y-54495137D01*
X154642737Y-54467527D01*
X154644508Y-54467246D01*
X154655029Y-54465580D01*
X154830852Y-54408452D01*
X154995572Y-54324523D01*
X155145136Y-54215859D01*
X155275859Y-54085136D01*
X155384523Y-53935572D01*
X155468452Y-53770852D01*
X155525580Y-53595029D01*
X155554500Y-53412440D01*
X155554500Y-53227559D01*
X155525580Y-53044969D01*
X155468453Y-52869150D01*
X155468452Y-52869147D01*
X155422117Y-52778211D01*
X155384523Y-52704428D01*
X155330640Y-52630264D01*
X155275864Y-52554870D01*
X155275860Y-52554865D01*
X155145134Y-52424139D01*
X155145129Y-52424135D01*
X154995575Y-52315479D01*
X154995574Y-52315478D01*
X154995572Y-52315477D01*
X154942799Y-52288588D01*
X154830852Y-52231547D01*
X154830849Y-52231546D01*
X154655030Y-52174420D01*
X154642737Y-52172473D01*
X154579602Y-52142544D01*
X154542671Y-52083232D01*
X154543669Y-52013370D01*
X154582279Y-51955137D01*
X154642737Y-51927527D01*
X154644508Y-51927246D01*
X154655029Y-51925580D01*
X154830852Y-51868452D01*
X154995572Y-51784523D01*
X155145136Y-51675859D01*
X155275859Y-51545136D01*
X155384523Y-51395572D01*
X155468452Y-51230852D01*
X155485240Y-51179185D01*
X155525580Y-51055030D01*
X155554500Y-50872440D01*
X155554500Y-50721153D01*
X156399500Y-50721153D01*
X156399500Y-50878846D01*
X156430261Y-51033489D01*
X156430264Y-51033501D01*
X156490602Y-51179172D01*
X156490609Y-51179185D01*
X156578210Y-51310288D01*
X156578213Y-51310292D01*
X156689707Y-51421786D01*
X156689711Y-51421789D01*
X156820814Y-51509390D01*
X156820827Y-51509397D01*
X156958683Y-51566498D01*
X156966503Y-51569737D01*
X157121153Y-51600499D01*
X157121156Y-51600500D01*
X157121158Y-51600500D01*
X157278844Y-51600500D01*
X157278845Y-51600499D01*
X157433497Y-51569737D01*
X157534895Y-51527736D01*
X157604362Y-51520268D01*
X157666842Y-51551543D01*
X157670027Y-51554617D01*
X159574205Y-53458795D01*
X159607690Y-53520118D01*
X159608141Y-53522285D01*
X159630261Y-53633489D01*
X159630264Y-53633501D01*
X159690602Y-53779172D01*
X159690609Y-53779185D01*
X159778210Y-53910288D01*
X159778213Y-53910292D01*
X159889707Y-54021786D01*
X159889711Y-54021789D01*
X160020814Y-54109390D01*
X160020827Y-54109397D01*
X160166498Y-54169735D01*
X160166503Y-54169737D01*
X160321153Y-54200499D01*
X160321156Y-54200500D01*
X160321158Y-54200500D01*
X160478844Y-54200500D01*
X160478845Y-54200499D01*
X160633497Y-54169737D01*
X160746166Y-54123067D01*
X160779172Y-54109397D01*
X160779172Y-54109396D01*
X160779179Y-54109394D01*
X160910289Y-54021789D01*
X161021789Y-53910289D01*
X161109394Y-53779179D01*
X161110650Y-53776148D01*
X161169735Y-53633501D01*
X161169737Y-53633497D01*
X161200500Y-53478842D01*
X161200500Y-53321158D01*
X161200500Y-53321155D01*
X161200499Y-53321153D01*
X161169738Y-53166510D01*
X161169737Y-53166503D01*
X161169735Y-53166498D01*
X161109397Y-53020827D01*
X161109390Y-53020814D01*
X161021789Y-52889711D01*
X161021786Y-52889707D01*
X160910292Y-52778213D01*
X160910288Y-52778210D01*
X160779185Y-52690609D01*
X160779172Y-52690602D01*
X160633501Y-52630264D01*
X160633489Y-52630261D01*
X160522285Y-52608141D01*
X160460374Y-52575756D01*
X160458795Y-52574205D01*
X158293150Y-50408560D01*
X158285860Y-50401270D01*
X158285858Y-50401267D01*
X158198733Y-50314142D01*
X158147509Y-50279915D01*
X158096286Y-50245688D01*
X158096283Y-50245686D01*
X158096280Y-50245685D01*
X158022603Y-50215168D01*
X158022601Y-50215167D01*
X158015792Y-50212347D01*
X157982452Y-50198537D01*
X157922029Y-50186518D01*
X157917306Y-50185578D01*
X157917304Y-50185578D01*
X157861610Y-50174500D01*
X157861607Y-50174500D01*
X157861606Y-50174500D01*
X157742350Y-50174500D01*
X157675311Y-50154815D01*
X157673459Y-50153602D01*
X157579184Y-50090609D01*
X157579172Y-50090602D01*
X157433501Y-50030264D01*
X157433489Y-50030261D01*
X157278845Y-49999500D01*
X157278842Y-49999500D01*
X157121158Y-49999500D01*
X157121155Y-49999500D01*
X156966510Y-50030261D01*
X156966498Y-50030264D01*
X156820827Y-50090602D01*
X156820814Y-50090609D01*
X156689711Y-50178210D01*
X156689707Y-50178213D01*
X156578213Y-50289707D01*
X156578210Y-50289711D01*
X156490609Y-50420814D01*
X156490602Y-50420827D01*
X156430264Y-50566498D01*
X156430261Y-50566510D01*
X156399500Y-50721153D01*
X155554500Y-50721153D01*
X155554500Y-50687559D01*
X155525580Y-50504969D01*
X155468453Y-50329150D01*
X155468452Y-50329147D01*
X155439388Y-50272106D01*
X155384523Y-50164428D01*
X155341790Y-50105611D01*
X155275864Y-50014870D01*
X155275860Y-50014865D01*
X155145134Y-49884139D01*
X155145129Y-49884135D01*
X154995575Y-49775479D01*
X154995574Y-49775478D01*
X154995572Y-49775477D01*
X154942799Y-49748588D01*
X154830852Y-49691547D01*
X154830849Y-49691546D01*
X154655030Y-49634420D01*
X154642737Y-49632473D01*
X154579602Y-49602544D01*
X154542671Y-49543232D01*
X154543669Y-49473370D01*
X154582279Y-49415137D01*
X154642737Y-49387527D01*
X154644508Y-49387246D01*
X154655029Y-49385580D01*
X154830852Y-49328452D01*
X154995572Y-49244523D01*
X155145136Y-49135859D01*
X155275859Y-49005136D01*
X155384523Y-48855572D01*
X155468452Y-48690852D01*
X155523590Y-48521153D01*
X156599500Y-48521153D01*
X156599500Y-48678846D01*
X156630261Y-48833489D01*
X156630264Y-48833501D01*
X156690602Y-48979172D01*
X156690609Y-48979185D01*
X156778210Y-49110288D01*
X156778213Y-49110292D01*
X156889707Y-49221786D01*
X156889711Y-49221789D01*
X157020814Y-49309390D01*
X157020827Y-49309397D01*
X157166498Y-49369735D01*
X157166503Y-49369737D01*
X157321153Y-49400499D01*
X157321156Y-49400500D01*
X157321158Y-49400500D01*
X157478844Y-49400500D01*
X157478845Y-49400499D01*
X157633497Y-49369737D01*
X157779179Y-49309394D01*
X157841806Y-49267547D01*
X157908482Y-49246669D01*
X157975862Y-49265152D01*
X157998377Y-49282967D01*
X159402968Y-50687559D01*
X160574205Y-51858796D01*
X160607690Y-51920119D01*
X160608141Y-51922286D01*
X160630261Y-52033489D01*
X160630264Y-52033501D01*
X160690602Y-52179172D01*
X160690609Y-52179185D01*
X160778210Y-52310288D01*
X160778213Y-52310292D01*
X160889707Y-52421786D01*
X160889711Y-52421789D01*
X161020814Y-52509390D01*
X161020827Y-52509397D01*
X161166498Y-52569735D01*
X161166503Y-52569737D01*
X161321153Y-52600499D01*
X161321156Y-52600500D01*
X161321158Y-52600500D01*
X161478844Y-52600500D01*
X161478845Y-52600499D01*
X161633497Y-52569737D01*
X161779179Y-52509394D01*
X161910289Y-52421789D01*
X162021789Y-52310289D01*
X162109394Y-52179179D01*
X162169737Y-52033497D01*
X162200500Y-51878842D01*
X162200500Y-51721158D01*
X162200500Y-51721155D01*
X162200499Y-51721153D01*
X162191490Y-51675864D01*
X162169737Y-51566503D01*
X162164814Y-51554617D01*
X162109397Y-51420827D01*
X162109390Y-51420814D01*
X162021789Y-51289711D01*
X162021786Y-51289707D01*
X161910292Y-51178213D01*
X161910288Y-51178210D01*
X161779185Y-51090609D01*
X161779172Y-51090602D01*
X161633501Y-51030264D01*
X161633489Y-51030261D01*
X161522286Y-51008141D01*
X161460375Y-50975756D01*
X161458796Y-50974205D01*
X161254965Y-50770374D01*
X158695822Y-48211232D01*
X158685859Y-48201269D01*
X158685858Y-48201267D01*
X158598733Y-48114142D01*
X158547509Y-48079915D01*
X158496286Y-48045688D01*
X158496283Y-48045686D01*
X158496280Y-48045685D01*
X158422603Y-48015168D01*
X158422601Y-48015167D01*
X158415792Y-48012347D01*
X158382452Y-47998537D01*
X158322029Y-47986518D01*
X158317306Y-47985578D01*
X158317304Y-47985578D01*
X158261610Y-47974500D01*
X158261607Y-47974500D01*
X158261606Y-47974500D01*
X157942350Y-47974500D01*
X157875311Y-47954815D01*
X157873459Y-47953602D01*
X157779184Y-47890609D01*
X157779172Y-47890602D01*
X157633501Y-47830264D01*
X157633489Y-47830261D01*
X157478845Y-47799500D01*
X157478842Y-47799500D01*
X157321158Y-47799500D01*
X157321155Y-47799500D01*
X157166510Y-47830261D01*
X157166498Y-47830264D01*
X157020827Y-47890602D01*
X157020814Y-47890609D01*
X156889711Y-47978210D01*
X156889707Y-47978213D01*
X156778213Y-48089707D01*
X156778210Y-48089711D01*
X156690609Y-48220814D01*
X156690602Y-48220827D01*
X156630264Y-48366498D01*
X156630261Y-48366510D01*
X156599500Y-48521153D01*
X155523590Y-48521153D01*
X155525580Y-48515029D01*
X155543464Y-48402114D01*
X155554500Y-48332440D01*
X155554500Y-48147559D01*
X155525580Y-47964969D01*
X155468453Y-47789150D01*
X155468452Y-47789147D01*
X155431809Y-47717233D01*
X155384523Y-47624428D01*
X155335291Y-47556665D01*
X155275864Y-47474870D01*
X155275860Y-47474865D01*
X155145134Y-47344139D01*
X155145129Y-47344135D01*
X154995575Y-47235479D01*
X154995574Y-47235478D01*
X154995572Y-47235477D01*
X154935979Y-47205113D01*
X154830852Y-47151547D01*
X154830849Y-47151546D01*
X154655030Y-47094420D01*
X154642737Y-47092473D01*
X154579602Y-47062544D01*
X154542671Y-47003232D01*
X154543669Y-46933370D01*
X154582279Y-46875137D01*
X154642737Y-46847527D01*
X154644508Y-46847246D01*
X154655029Y-46845580D01*
X154830852Y-46788452D01*
X154995572Y-46704523D01*
X155145136Y-46595859D01*
X155275859Y-46465136D01*
X155384523Y-46315572D01*
X155468452Y-46150852D01*
X155525580Y-45975029D01*
X155530938Y-45941203D01*
X155534114Y-45921153D01*
X157599500Y-45921153D01*
X157599500Y-46078846D01*
X157630261Y-46233489D01*
X157630264Y-46233501D01*
X157690602Y-46379172D01*
X157690609Y-46379185D01*
X157778210Y-46510288D01*
X157778213Y-46510292D01*
X157889707Y-46621786D01*
X157889711Y-46621789D01*
X158020814Y-46709390D01*
X158020827Y-46709397D01*
X158108230Y-46745599D01*
X158166503Y-46769737D01*
X158277716Y-46791858D01*
X158339623Y-46824241D01*
X158341203Y-46825793D01*
X160374205Y-48858795D01*
X160407690Y-48920118D01*
X160408141Y-48922285D01*
X160430261Y-49033489D01*
X160430264Y-49033501D01*
X160490602Y-49179172D01*
X160490609Y-49179185D01*
X160578210Y-49310288D01*
X160578213Y-49310292D01*
X160689707Y-49421786D01*
X160689711Y-49421789D01*
X160820814Y-49509390D01*
X160820827Y-49509397D01*
X160966498Y-49569735D01*
X160966503Y-49569737D01*
X161121153Y-49600499D01*
X161121156Y-49600500D01*
X161121158Y-49600500D01*
X161278844Y-49600500D01*
X161278845Y-49600499D01*
X161433497Y-49569737D01*
X161579179Y-49509394D01*
X161710289Y-49421789D01*
X161821789Y-49310289D01*
X161909394Y-49179179D01*
X161969737Y-49033497D01*
X162000500Y-48878842D01*
X162000500Y-48721158D01*
X162000500Y-48721155D01*
X162000499Y-48721153D01*
X161994434Y-48690661D01*
X161969737Y-48566503D01*
X161948417Y-48515031D01*
X161909397Y-48420827D01*
X161909390Y-48420814D01*
X161821789Y-48289711D01*
X161821786Y-48289707D01*
X161710292Y-48178213D01*
X161710288Y-48178210D01*
X161579185Y-48090609D01*
X161579172Y-48090602D01*
X161433501Y-48030264D01*
X161433489Y-48030261D01*
X161322285Y-48008141D01*
X161260374Y-47975756D01*
X161258795Y-47974205D01*
X159225793Y-45941203D01*
X159192308Y-45879880D01*
X159191887Y-45877864D01*
X159169737Y-45766503D01*
X159143445Y-45703027D01*
X159121541Y-45650145D01*
X159109395Y-45620823D01*
X159109390Y-45620814D01*
X159100533Y-45607559D01*
X168445500Y-45607559D01*
X168445500Y-45792440D01*
X168474419Y-45975030D01*
X168531546Y-46150849D01*
X168531547Y-46150852D01*
X168615479Y-46315575D01*
X168724135Y-46465129D01*
X168724139Y-46465134D01*
X168854865Y-46595860D01*
X168854870Y-46595864D01*
X168985318Y-46690639D01*
X169004428Y-46704523D01*
X169098494Y-46752452D01*
X169169147Y-46788452D01*
X169169150Y-46788453D01*
X169344970Y-46845580D01*
X169358860Y-46847780D01*
X169421995Y-46877709D01*
X169458927Y-46937020D01*
X169457929Y-47006883D01*
X169419320Y-47065115D01*
X169358864Y-47092726D01*
X169345088Y-47094908D01*
X169169338Y-47152013D01*
X169004692Y-47235903D01*
X169004688Y-47235906D01*
X168984283Y-47250729D01*
X168984283Y-47250730D01*
X169555910Y-47822356D01*
X169457886Y-47848622D01*
X169362114Y-47903916D01*
X169283916Y-47982114D01*
X169228622Y-48077886D01*
X169202356Y-48175909D01*
X168630730Y-47604283D01*
X168630729Y-47604283D01*
X168615906Y-47624688D01*
X168615903Y-47624692D01*
X168532013Y-47789338D01*
X168474907Y-47965091D01*
X168446000Y-48147604D01*
X168446000Y-48332395D01*
X168474907Y-48514908D01*
X168532014Y-48690664D01*
X168615900Y-48855303D01*
X168615903Y-48855307D01*
X168630730Y-48875715D01*
X168630730Y-48875716D01*
X169202356Y-48304090D01*
X169228622Y-48402114D01*
X169283916Y-48497886D01*
X169362114Y-48576084D01*
X169457886Y-48631378D01*
X169555909Y-48657643D01*
X168984283Y-49229268D01*
X168984283Y-49229269D01*
X169004686Y-49244092D01*
X169169338Y-49327986D01*
X169345087Y-49385091D01*
X169358857Y-49387272D01*
X169421993Y-49417200D01*
X169458926Y-49476510D01*
X169457930Y-49546373D01*
X169419322Y-49604607D01*
X169358867Y-49632218D01*
X169344971Y-49634419D01*
X169169150Y-49691546D01*
X169169147Y-49691547D01*
X169004424Y-49775479D01*
X168854870Y-49884135D01*
X168854865Y-49884139D01*
X168724139Y-50014865D01*
X168724135Y-50014870D01*
X168615479Y-50164424D01*
X168531547Y-50329147D01*
X168531546Y-50329150D01*
X168474419Y-50504969D01*
X168445500Y-50687559D01*
X168445500Y-50872440D01*
X168474419Y-51055030D01*
X168531546Y-51230849D01*
X168531547Y-51230852D01*
X168615479Y-51395575D01*
X168724135Y-51545129D01*
X168724139Y-51545134D01*
X168854865Y-51675860D01*
X168854870Y-51675864D01*
X168917213Y-51721158D01*
X169004428Y-51784523D01*
X169112106Y-51839388D01*
X169169147Y-51868452D01*
X169169150Y-51868453D01*
X169221290Y-51885394D01*
X169344971Y-51925580D01*
X169355150Y-51927192D01*
X169357263Y-51927527D01*
X169420397Y-51957457D01*
X169457328Y-52016769D01*
X169456330Y-52086631D01*
X169417719Y-52144864D01*
X169357263Y-52172473D01*
X169344969Y-52174420D01*
X169169150Y-52231546D01*
X169169147Y-52231547D01*
X169004424Y-52315479D01*
X168854870Y-52424135D01*
X168854865Y-52424139D01*
X168724139Y-52554865D01*
X168724135Y-52554870D01*
X168615479Y-52704424D01*
X168531547Y-52869147D01*
X168531546Y-52869150D01*
X168474419Y-53044969D01*
X168445500Y-53227559D01*
X168445500Y-53412440D01*
X168474419Y-53595030D01*
X168531546Y-53770849D01*
X168531547Y-53770852D01*
X168615479Y-53935575D01*
X168724135Y-54085129D01*
X168724139Y-54085134D01*
X168854865Y-54215860D01*
X168854870Y-54215864D01*
X168936639Y-54275272D01*
X169004428Y-54324523D01*
X169102961Y-54374728D01*
X169169147Y-54408452D01*
X169169150Y-54408453D01*
X169257059Y-54437016D01*
X169344971Y-54465580D01*
X169355150Y-54467192D01*
X169357263Y-54467527D01*
X169420397Y-54497457D01*
X169457328Y-54556769D01*
X169456330Y-54626631D01*
X169417719Y-54684864D01*
X169357263Y-54712473D01*
X169344969Y-54714420D01*
X169169150Y-54771546D01*
X169169147Y-54771547D01*
X169004424Y-54855479D01*
X168854870Y-54964135D01*
X168854865Y-54964139D01*
X168724139Y-55094865D01*
X168724135Y-55094870D01*
X168615479Y-55244424D01*
X168531547Y-55409147D01*
X168531546Y-55409150D01*
X168474419Y-55584969D01*
X168445500Y-55767559D01*
X168445500Y-55952440D01*
X168474419Y-56135030D01*
X168531546Y-56310849D01*
X168531547Y-56310852D01*
X168615479Y-56475575D01*
X168724135Y-56625129D01*
X168724139Y-56625134D01*
X168854865Y-56755860D01*
X168854870Y-56755864D01*
X168914931Y-56799500D01*
X169004428Y-56864523D01*
X169100926Y-56913691D01*
X169169147Y-56948452D01*
X169169150Y-56948453D01*
X169257059Y-56977016D01*
X169344971Y-57005580D01*
X169355150Y-57007192D01*
X169357263Y-57007527D01*
X169420397Y-57037457D01*
X169457328Y-57096769D01*
X169456330Y-57166631D01*
X169417719Y-57224864D01*
X169357263Y-57252473D01*
X169344969Y-57254420D01*
X169169150Y-57311546D01*
X169169147Y-57311547D01*
X169004424Y-57395479D01*
X168854870Y-57504135D01*
X168854865Y-57504139D01*
X168724139Y-57634865D01*
X168724135Y-57634870D01*
X168615479Y-57784424D01*
X168531547Y-57949147D01*
X168531546Y-57949150D01*
X168474419Y-58124969D01*
X168445500Y-58307559D01*
X168445500Y-58492440D01*
X168474419Y-58675030D01*
X168531546Y-58850849D01*
X168531547Y-58850852D01*
X168561834Y-58910292D01*
X168607012Y-58998959D01*
X168615479Y-59015575D01*
X168724135Y-59165129D01*
X168724139Y-59165134D01*
X168854865Y-59295860D01*
X168854870Y-59295864D01*
X168985318Y-59390639D01*
X169004428Y-59404523D01*
X169112106Y-59459388D01*
X169169147Y-59488452D01*
X169169150Y-59488453D01*
X169257059Y-59517016D01*
X169344971Y-59545580D01*
X169355150Y-59547192D01*
X169357263Y-59547527D01*
X169420397Y-59577457D01*
X169457328Y-59636769D01*
X169456330Y-59706631D01*
X169417719Y-59764864D01*
X169357263Y-59792473D01*
X169344969Y-59794420D01*
X169169150Y-59851546D01*
X169169147Y-59851547D01*
X169004424Y-59935479D01*
X168854870Y-60044135D01*
X168854865Y-60044139D01*
X168724139Y-60174865D01*
X168724135Y-60174870D01*
X168615479Y-60324424D01*
X168531547Y-60489147D01*
X168531546Y-60489150D01*
X168474419Y-60664969D01*
X168445500Y-60847559D01*
X168445500Y-61032440D01*
X168474419Y-61215030D01*
X168531546Y-61390849D01*
X168531547Y-61390852D01*
X168615479Y-61555575D01*
X168724135Y-61705129D01*
X168724139Y-61705134D01*
X168854865Y-61835860D01*
X168854870Y-61835864D01*
X168961991Y-61913691D01*
X169004428Y-61944523D01*
X169112106Y-61999388D01*
X169169147Y-62028452D01*
X169169150Y-62028453D01*
X169257059Y-62057016D01*
X169344971Y-62085580D01*
X169355150Y-62087192D01*
X169357263Y-62087527D01*
X169420397Y-62117457D01*
X169457328Y-62176769D01*
X169456330Y-62246631D01*
X169417719Y-62304864D01*
X169357263Y-62332473D01*
X169344969Y-62334420D01*
X169169150Y-62391546D01*
X169169147Y-62391547D01*
X169004424Y-62475479D01*
X168854870Y-62584135D01*
X168854865Y-62584139D01*
X168724139Y-62714865D01*
X168724135Y-62714870D01*
X168615479Y-62864424D01*
X168531547Y-63029147D01*
X168531546Y-63029150D01*
X168474419Y-63204969D01*
X168445500Y-63387559D01*
X168445500Y-63572440D01*
X168474419Y-63755030D01*
X168531546Y-63930849D01*
X168531547Y-63930852D01*
X168615479Y-64095575D01*
X168724135Y-64245129D01*
X168724139Y-64245134D01*
X168854865Y-64375860D01*
X168854870Y-64375864D01*
X168969016Y-64458795D01*
X169004428Y-64484523D01*
X169112106Y-64539388D01*
X169169147Y-64568452D01*
X169169150Y-64568453D01*
X169344969Y-64625580D01*
X169527560Y-64654500D01*
X169527565Y-64654500D01*
X169712440Y-64654500D01*
X169895030Y-64625580D01*
X170070849Y-64568453D01*
X170070852Y-64568452D01*
X170235572Y-64484523D01*
X170385136Y-64375859D01*
X170515859Y-64245136D01*
X170624523Y-64095572D01*
X170708452Y-63930852D01*
X170708453Y-63930849D01*
X170765580Y-63755030D01*
X170794500Y-63572440D01*
X170794500Y-63387559D01*
X170765580Y-63204969D01*
X170708453Y-63029150D01*
X170708452Y-63029147D01*
X170647434Y-62909394D01*
X170624523Y-62864428D01*
X170555727Y-62769738D01*
X170515864Y-62714870D01*
X170515860Y-62714865D01*
X170385134Y-62584139D01*
X170385129Y-62584135D01*
X170235575Y-62475479D01*
X170235574Y-62475478D01*
X170235572Y-62475477D01*
X170153182Y-62433497D01*
X170070852Y-62391547D01*
X170070849Y-62391546D01*
X169895030Y-62334420D01*
X169882737Y-62332473D01*
X169819602Y-62302544D01*
X169782671Y-62243232D01*
X169783669Y-62173370D01*
X169822279Y-62115137D01*
X169882737Y-62087527D01*
X169884508Y-62087246D01*
X169895029Y-62085580D01*
X170070852Y-62028452D01*
X170235572Y-61944523D01*
X170385136Y-61835859D01*
X170515859Y-61705136D01*
X170624523Y-61555572D01*
X170708452Y-61390852D01*
X170741025Y-61290602D01*
X170765580Y-61215030D01*
X170794500Y-61032440D01*
X170794500Y-60847559D01*
X170765580Y-60664969D01*
X170708453Y-60489150D01*
X170708452Y-60489147D01*
X170663087Y-60400114D01*
X170624523Y-60324428D01*
X170610639Y-60305318D01*
X170515864Y-60174870D01*
X170515860Y-60174865D01*
X170385134Y-60044139D01*
X170385129Y-60044135D01*
X170235575Y-59935479D01*
X170235574Y-59935478D01*
X170235572Y-59935477D01*
X170164051Y-59899035D01*
X170070852Y-59851547D01*
X170070849Y-59851546D01*
X169895030Y-59794420D01*
X169882737Y-59792473D01*
X169819602Y-59762544D01*
X169782671Y-59703232D01*
X169783669Y-59633370D01*
X169822279Y-59575137D01*
X169882737Y-59547527D01*
X169884508Y-59547246D01*
X169895029Y-59545580D01*
X170070852Y-59488452D01*
X170235572Y-59404523D01*
X170385136Y-59295859D01*
X170515859Y-59165136D01*
X170624523Y-59015572D01*
X170708452Y-58850852D01*
X170740907Y-58750965D01*
X170765580Y-58675030D01*
X170794500Y-58492440D01*
X170794500Y-58307559D01*
X170765580Y-58124969D01*
X170708453Y-57949150D01*
X170708452Y-57949147D01*
X170673176Y-57879915D01*
X170624523Y-57784428D01*
X170556355Y-57690602D01*
X170515864Y-57634870D01*
X170515860Y-57634865D01*
X170385134Y-57504139D01*
X170385129Y-57504135D01*
X170235575Y-57395479D01*
X170235574Y-57395478D01*
X170235572Y-57395477D01*
X170178705Y-57366502D01*
X170070852Y-57311547D01*
X170070849Y-57311546D01*
X169895030Y-57254420D01*
X169882737Y-57252473D01*
X169819602Y-57222544D01*
X169782671Y-57163232D01*
X169783669Y-57093370D01*
X169822279Y-57035137D01*
X169882737Y-57007527D01*
X169884508Y-57007246D01*
X169895029Y-57005580D01*
X170070852Y-56948452D01*
X170235572Y-56864523D01*
X170385136Y-56755859D01*
X170515859Y-56625136D01*
X170624523Y-56475572D01*
X170708452Y-56310852D01*
X170727910Y-56250965D01*
X170765580Y-56135030D01*
X170794500Y-55952440D01*
X170794500Y-55767559D01*
X170765580Y-55584969D01*
X170708453Y-55409150D01*
X170708452Y-55409147D01*
X170659126Y-55312341D01*
X170624523Y-55244428D01*
X170554798Y-55148459D01*
X170515864Y-55094870D01*
X170515860Y-55094865D01*
X170385134Y-54964139D01*
X170385129Y-54964135D01*
X170235575Y-54855479D01*
X170235574Y-54855478D01*
X170235572Y-54855477D01*
X170182799Y-54828588D01*
X170070852Y-54771547D01*
X170070849Y-54771546D01*
X169895030Y-54714420D01*
X169882737Y-54712473D01*
X169819602Y-54682544D01*
X169782671Y-54623232D01*
X169783669Y-54553370D01*
X169822279Y-54495137D01*
X169882737Y-54467527D01*
X169884508Y-54467246D01*
X169895029Y-54465580D01*
X170070852Y-54408452D01*
X170235572Y-54324523D01*
X170385136Y-54215859D01*
X170515859Y-54085136D01*
X170624523Y-53935572D01*
X170708452Y-53770852D01*
X170765580Y-53595029D01*
X170794500Y-53412440D01*
X170794500Y-53227559D01*
X170765580Y-53044969D01*
X170708453Y-52869150D01*
X170708452Y-52869147D01*
X170662117Y-52778211D01*
X170624523Y-52704428D01*
X170570640Y-52630264D01*
X170515864Y-52554870D01*
X170515860Y-52554865D01*
X170385134Y-52424139D01*
X170385129Y-52424135D01*
X170235575Y-52315479D01*
X170235574Y-52315478D01*
X170235572Y-52315477D01*
X170182799Y-52288588D01*
X170070852Y-52231547D01*
X170070849Y-52231546D01*
X169895030Y-52174420D01*
X169882737Y-52172473D01*
X169819602Y-52142544D01*
X169782671Y-52083232D01*
X169783669Y-52013370D01*
X169822279Y-51955137D01*
X169882737Y-51927527D01*
X169884508Y-51927246D01*
X169895029Y-51925580D01*
X170070852Y-51868452D01*
X170235572Y-51784523D01*
X170385136Y-51675859D01*
X170515859Y-51545136D01*
X170624523Y-51395572D01*
X170708452Y-51230852D01*
X170725240Y-51179185D01*
X170765580Y-51055030D01*
X170794500Y-50872440D01*
X170794500Y-50687559D01*
X170765580Y-50504969D01*
X170708453Y-50329150D01*
X170708452Y-50329147D01*
X170679388Y-50272106D01*
X170624523Y-50164428D01*
X170581790Y-50105611D01*
X170515864Y-50014870D01*
X170515860Y-50014865D01*
X170385134Y-49884139D01*
X170385129Y-49884135D01*
X170235575Y-49775479D01*
X170235574Y-49775478D01*
X170235572Y-49775477D01*
X170182799Y-49748588D01*
X170070852Y-49691547D01*
X170070849Y-49691546D01*
X169895033Y-49634421D01*
X169895031Y-49634420D01*
X169895029Y-49634420D01*
X169882736Y-49632473D01*
X169881133Y-49632219D01*
X169818000Y-49602287D01*
X169781071Y-49542974D01*
X169782071Y-49473111D01*
X169820683Y-49414880D01*
X169881143Y-49387272D01*
X169894911Y-49385091D01*
X170070661Y-49327986D01*
X170235310Y-49244094D01*
X170255715Y-49229268D01*
X170255716Y-49229268D01*
X169684090Y-48657642D01*
X169782114Y-48631378D01*
X169877886Y-48576084D01*
X169956084Y-48497886D01*
X170011378Y-48402114D01*
X170037642Y-48304090D01*
X170609268Y-48875716D01*
X170609268Y-48875715D01*
X170624094Y-48855310D01*
X170707986Y-48690661D01*
X170765092Y-48514908D01*
X170794000Y-48332395D01*
X170794000Y-48147604D01*
X170765092Y-47965091D01*
X170707986Y-47789338D01*
X170624092Y-47624686D01*
X170609269Y-47604283D01*
X170037642Y-48175909D01*
X170011378Y-48077886D01*
X169956084Y-47982114D01*
X169877886Y-47903916D01*
X169782114Y-47848622D01*
X169684090Y-47822356D01*
X170255716Y-47250730D01*
X170235307Y-47235903D01*
X170235303Y-47235900D01*
X170070664Y-47152014D01*
X169894910Y-47094907D01*
X169881136Y-47092726D01*
X169818002Y-47062796D01*
X169781072Y-47003484D01*
X169782070Y-46933621D01*
X169820681Y-46875389D01*
X169881137Y-46847780D01*
X169895029Y-46845580D01*
X170059770Y-46792052D01*
X170070849Y-46788453D01*
X170070852Y-46788452D01*
X170107586Y-46769735D01*
X170235572Y-46704523D01*
X170385136Y-46595859D01*
X170515859Y-46465136D01*
X170624523Y-46315572D01*
X170708452Y-46150852D01*
X170765580Y-45975029D01*
X170770938Y-45941203D01*
X170794500Y-45792440D01*
X170794500Y-45607559D01*
X170765580Y-45424969D01*
X170708453Y-45249150D01*
X170708452Y-45249147D01*
X170679388Y-45192106D01*
X170624523Y-45084428D01*
X170610639Y-45065318D01*
X170515864Y-44934870D01*
X170515860Y-44934865D01*
X170385134Y-44804139D01*
X170385129Y-44804135D01*
X170235575Y-44695479D01*
X170235574Y-44695478D01*
X170235572Y-44695477D01*
X170182799Y-44668588D01*
X170070852Y-44611547D01*
X170070849Y-44611546D01*
X169895030Y-44554419D01*
X169712440Y-44525500D01*
X169712435Y-44525500D01*
X169527565Y-44525500D01*
X169527560Y-44525500D01*
X169344969Y-44554419D01*
X169169150Y-44611546D01*
X169169147Y-44611547D01*
X169004424Y-44695479D01*
X168854870Y-44804135D01*
X168854865Y-44804139D01*
X168724139Y-44934865D01*
X168724135Y-44934870D01*
X168615479Y-45084424D01*
X168531547Y-45249147D01*
X168531546Y-45249150D01*
X168474419Y-45424969D01*
X168445500Y-45607559D01*
X159100533Y-45607559D01*
X159021789Y-45489711D01*
X159021786Y-45489707D01*
X158910292Y-45378213D01*
X158910288Y-45378210D01*
X158779185Y-45290609D01*
X158779172Y-45290602D01*
X158633501Y-45230264D01*
X158633489Y-45230261D01*
X158478845Y-45199500D01*
X158478842Y-45199500D01*
X158321158Y-45199500D01*
X158321155Y-45199500D01*
X158166510Y-45230261D01*
X158166498Y-45230264D01*
X158020827Y-45290602D01*
X158020814Y-45290609D01*
X157889711Y-45378210D01*
X157889707Y-45378213D01*
X157778213Y-45489707D01*
X157778210Y-45489711D01*
X157690609Y-45620814D01*
X157690602Y-45620827D01*
X157630264Y-45766498D01*
X157630261Y-45766510D01*
X157599500Y-45921153D01*
X155534114Y-45921153D01*
X155538150Y-45895668D01*
X155554500Y-45792440D01*
X155554500Y-45607559D01*
X155525580Y-45424969D01*
X155468453Y-45249150D01*
X155468452Y-45249147D01*
X155439388Y-45192106D01*
X155384523Y-45084428D01*
X155370639Y-45065318D01*
X155275864Y-44934870D01*
X155275860Y-44934865D01*
X155145134Y-44804139D01*
X155145129Y-44804135D01*
X154995575Y-44695479D01*
X154995574Y-44695478D01*
X154995572Y-44695477D01*
X154942799Y-44668588D01*
X154830852Y-44611547D01*
X154830849Y-44611546D01*
X154655030Y-44554419D01*
X154472440Y-44525500D01*
X154472435Y-44525500D01*
X154287565Y-44525500D01*
X154287560Y-44525500D01*
X154104969Y-44554419D01*
X153929150Y-44611546D01*
X153929147Y-44611547D01*
X153764424Y-44695479D01*
X153614870Y-44804135D01*
X153614865Y-44804139D01*
X153484139Y-44934865D01*
X153484135Y-44934870D01*
X153375479Y-45084424D01*
X153291547Y-45249147D01*
X153291546Y-45249150D01*
X153234419Y-45424969D01*
X153205500Y-45607559D01*
X143913166Y-45607559D01*
X143899031Y-45600357D01*
X143704417Y-45537122D01*
X143502317Y-45505113D01*
X143297683Y-45505113D01*
X143095582Y-45537122D01*
X142900968Y-45600357D01*
X142718644Y-45693256D01*
X142674077Y-45725636D01*
X142674077Y-45725637D01*
X143353554Y-46405113D01*
X143347339Y-46405113D01*
X143245606Y-46432372D01*
X143154394Y-46485033D01*
X143079920Y-46559507D01*
X143027259Y-46650719D01*
X143000000Y-46752452D01*
X143000000Y-46758666D01*
X142320524Y-46079190D01*
X142320523Y-46079190D01*
X142288143Y-46123757D01*
X142195244Y-46306081D01*
X142132009Y-46500695D01*
X142100000Y-46702795D01*
X142100000Y-46907430D01*
X142132009Y-47109530D01*
X142195244Y-47304144D01*
X142288142Y-47486465D01*
X142339147Y-47556668D01*
X142362627Y-47622474D01*
X142346802Y-47690528D01*
X142326511Y-47717234D01*
X142257287Y-47786458D01*
X142165187Y-47935776D01*
X142165185Y-47935781D01*
X142155473Y-47965091D01*
X142110001Y-48102316D01*
X142110001Y-48102317D01*
X142110000Y-48102317D01*
X142099500Y-48205096D01*
X139700500Y-48205096D01*
X139700500Y-42304427D01*
X139700816Y-42295581D01*
X139715130Y-42095443D01*
X139715131Y-42095434D01*
X139717646Y-42077938D01*
X139759356Y-41886199D01*
X139764333Y-41869248D01*
X139832911Y-41685385D01*
X139840259Y-41669298D01*
X139902815Y-41554734D01*
X139934291Y-41497089D01*
X139943845Y-41482221D01*
X140061448Y-41325123D01*
X140073020Y-41311769D01*
X140211769Y-41173020D01*
X140225123Y-41161448D01*
X140382221Y-41043845D01*
X140397089Y-41034291D01*
X140569298Y-40940258D01*
X140585385Y-40932911D01*
X140769248Y-40864333D01*
X140786199Y-40859356D01*
X140977938Y-40817646D01*
X140995436Y-40815130D01*
X141195582Y-40800816D01*
X141204428Y-40800500D01*
X141265892Y-40800500D01*
X174534108Y-40800500D01*
X174595572Y-40800500D01*
X174604418Y-40800816D01*
G37*
%TD.AperFunction*%
%TD*%
M02*
