%TF.GenerationSoftware,KiCad,Pcbnew,9.0.7*%
%TF.CreationDate,2026-07-27T21:47:09-06:00*%
%TF.ProjectId,air_aware_simple,6169725f-6177-4617-9265-5f73696d706c,rev?*%
%TF.SameCoordinates,Original*%
%TF.FileFunction,Copper,L1,Top*%
%TF.FilePolarity,Positive*%
%FSLAX46Y46*%
G04 Gerber Fmt 4.6, Leading zero omitted, Abs format (unit mm)*
G04 Created by KiCad (PCBNEW 9.0.7) date 2026-07-27 21:47:09*
%MOMM*%
%LPD*%
G01*
G04 APERTURE LIST*
G04 Aperture macros list*
%AMRoundRect*
0 Rectangle with rounded corners*
0 $1 Rounding radius*
0 $2 $3 $4 $5 $6 $7 $8 $9 X,Y pos of 4 corners*
0 Add a 4 corners polygon primitive as box body*
4,1,4,$2,$3,$4,$5,$6,$7,$8,$9,$2,$3,0*
0 Add four circle primitives for the rounded corners*
1,1,$1+$1,$2,$3*
1,1,$1+$1,$4,$5*
1,1,$1+$1,$6,$7*
1,1,$1+$1,$8,$9*
0 Add four rect primitives between the rounded corners*
20,1,$1+$1,$2,$3,$4,$5,0*
20,1,$1+$1,$4,$5,$6,$7,0*
20,1,$1+$1,$6,$7,$8,$9,0*
20,1,$1+$1,$8,$9,$2,$3,0*%
G04 Aperture macros list end*
%TA.AperFunction,ComponentPad*%
%ADD10R,1.700000X1.700000*%
%TD*%
%TA.AperFunction,ComponentPad*%
%ADD11C,1.700000*%
%TD*%
%TA.AperFunction,SMDPad,CuDef*%
%ADD12RoundRect,0.250000X-0.475000X0.337500X-0.475000X-0.337500X0.475000X-0.337500X0.475000X0.337500X0*%
%TD*%
%TA.AperFunction,SMDPad,CuDef*%
%ADD13RoundRect,0.250000X-0.450000X0.350000X-0.450000X-0.350000X0.450000X-0.350000X0.450000X0.350000X0*%
%TD*%
%TA.AperFunction,ComponentPad*%
%ADD14C,1.348000*%
%TD*%
%TA.AperFunction,ComponentPad*%
%ADD15RoundRect,0.250000X-0.350000X-0.625000X0.350000X-0.625000X0.350000X0.625000X-0.350000X0.625000X0*%
%TD*%
%TA.AperFunction,ComponentPad*%
%ADD16O,1.200000X1.750000*%
%TD*%
%TA.AperFunction,SMDPad,CuDef*%
%ADD17RoundRect,0.250000X0.475000X-0.337500X0.475000X0.337500X-0.475000X0.337500X-0.475000X-0.337500X0*%
%TD*%
%TA.AperFunction,ComponentPad*%
%ADD18C,2.000000*%
%TD*%
%TA.AperFunction,ComponentPad*%
%ADD19RoundRect,0.250000X0.550000X-0.550000X0.550000X0.550000X-0.550000X0.550000X-0.550000X-0.550000X0*%
%TD*%
%TA.AperFunction,ComponentPad*%
%ADD20C,1.600000*%
%TD*%
%TA.AperFunction,ComponentPad*%
%ADD21RoundRect,0.200000X-0.450000X0.200000X-0.450000X-0.200000X0.450000X-0.200000X0.450000X0.200000X0*%
%TD*%
%TA.AperFunction,ComponentPad*%
%ADD22O,1.300000X0.800000*%
%TD*%
%TA.AperFunction,ComponentPad*%
%ADD23C,2.400000*%
%TD*%
%TA.AperFunction,SMDPad,CuDef*%
%ADD24RoundRect,0.250000X-0.650000X0.412500X-0.650000X-0.412500X0.650000X-0.412500X0.650000X0.412500X0*%
%TD*%
%TA.AperFunction,ViaPad*%
%ADD25C,0.600000*%
%TD*%
%TA.AperFunction,Conductor*%
%ADD26C,0.250000*%
%TD*%
%TA.AperFunction,Conductor*%
%ADD27C,0.500000*%
%TD*%
%TA.AperFunction,Conductor*%
%ADD28C,1.000000*%
%TD*%
G04 APERTURE END LIST*
D10*
%TO.P,M1,1,Pin_1*%
%TO.N,/VBAT_SW*%
X156400000Y-73570000D03*
D11*
%TO.P,M1,2,Pin_2*%
%TO.N,GND*%
X156400000Y-76110000D03*
%TO.P,M1,3,Pin_3*%
%TO.N,+5V*%
X156400000Y-78650000D03*
%TD*%
D12*
%TO.P,C5,1*%
%TO.N,+3V3*%
X150000000Y-86012500D03*
%TO.P,C5,2*%
%TO.N,GND*%
X150000000Y-88087500D03*
%TD*%
D13*
%TO.P,R1,1*%
%TO.N,/VBAT_SW*%
X172400000Y-52000000D03*
%TO.P,R1,2*%
%TO.N,/BAT_SENSE*%
X172400000Y-54000000D03*
%TD*%
D14*
%TO.P,U1,0,GPIO0*%
%TO.N,unconnected-(U1-GPIO0-Pad0)*%
X169620000Y-63480000D03*
%TO.P,U1,1,GPIO1*%
%TO.N,/LCD_BL*%
X169620000Y-60940000D03*
%TO.P,U1,2,GPIO2*%
%TO.N,unconnected-(U1-GPIO2-Pad2)*%
X169620000Y-58400000D03*
%TO.P,U1,3,GPIO3*%
%TO.N,/BAT_SENSE*%
X169620000Y-55860000D03*
%TO.P,U1,3.3,3V3*%
%TO.N,+3V3*%
X169620000Y-50780000D03*
%TO.P,U1,4,GPIO4*%
%TO.N,/LCD_DC*%
X169620000Y-53320000D03*
%TO.P,U1,5,GPIO5*%
%TO.N,/LCD_RST*%
X154380000Y-45700000D03*
%TO.P,U1,5V,5V*%
%TO.N,+5V*%
X169620000Y-45700000D03*
%TO.P,U1,6,GPIO6*%
%TO.N,/LCD_CLK*%
X154380000Y-48240000D03*
%TO.P,U1,7,GPIO7*%
%TO.N,/LCD_MOSI*%
X154380000Y-50780000D03*
%TO.P,U1,8,GPIO8*%
%TO.N,unconnected-(U1-GPIO8-Pad8)*%
X154380000Y-53320000D03*
%TO.P,U1,9,GPIO9*%
%TO.N,unconnected-(U1-GPIO9-Pad9)*%
X154380000Y-55860000D03*
%TO.P,U1,10,GPIO10*%
%TO.N,/LCD_CS*%
X154380000Y-58400000D03*
%TO.P,U1,20,GPIO20*%
%TO.N,/PMS_RX*%
X154380000Y-60940000D03*
%TO.P,U1,21,GPIO21*%
%TO.N,/PMS_TX*%
X154380000Y-63480000D03*
%TO.P,U1,G,GND*%
%TO.N,GND*%
X169620000Y-48240000D03*
%TD*%
D13*
%TO.P,R2,1*%
%TO.N,GND*%
X172400000Y-55950000D03*
%TO.P,R2,2*%
%TO.N,/BAT_SENSE*%
X172400000Y-57950000D03*
%TD*%
D15*
%TO.P,J1,1,Pin_1*%
%TO.N,/BAT_RAW*%
X142600000Y-90500000D03*
D16*
%TO.P,J1,2,Pin_2*%
%TO.N,GND*%
X144600000Y-90500000D03*
%TD*%
D15*
%TO.P,J3,1,Pin_1*%
%TO.N,+3V3*%
X156400000Y-87000000D03*
D16*
%TO.P,J3,2,Pin_2*%
%TO.N,GND*%
X158400000Y-87000000D03*
%TO.P,J3,3,Pin_3*%
%TO.N,/LCD_MOSI*%
X160400000Y-87000000D03*
%TO.P,J3,4,Pin_4*%
%TO.N,/LCD_CLK*%
X162400000Y-87000000D03*
%TO.P,J3,5,Pin_5*%
%TO.N,/LCD_CS*%
X164400000Y-87000000D03*
%TO.P,J3,6,Pin_6*%
%TO.N,/LCD_DC*%
X166400000Y-87000000D03*
%TO.P,J3,7,Pin_7*%
%TO.N,/LCD_RST*%
X168400000Y-87000000D03*
%TO.P,J3,8,Pin_8*%
%TO.N,/LCD_BL*%
X170400000Y-87000000D03*
%TD*%
D12*
%TO.P,C1,1*%
%TO.N,/BAT_SENSE*%
X172400000Y-59962500D03*
%TO.P,C1,2*%
%TO.N,GND*%
X172400000Y-62037500D03*
%TD*%
D17*
%TO.P,C3,1*%
%TO.N,+5V*%
X148200000Y-50637500D03*
%TO.P,C3,2*%
%TO.N,GND*%
X148200000Y-48562500D03*
%TD*%
D18*
%TO.P,TP1,1,1*%
%TO.N,GND*%
X149200000Y-91600000D03*
%TD*%
D19*
%TO.P,C2,1*%
%TO.N,+5V*%
X143400000Y-48805113D03*
D20*
%TO.P,C2,2*%
%TO.N,GND*%
X143400000Y-46805113D03*
%TD*%
D21*
%TO.P,J2,1,Pin_1*%
%TO.N,+5V*%
X145000000Y-53075000D03*
D22*
%TO.P,J2,2,Pin_2*%
%TO.N,GND*%
X145000000Y-54325000D03*
%TO.P,J2,3,Pin_3*%
%TO.N,unconnected-(J2-Pin_3-Pad3)*%
X145000000Y-55575000D03*
%TO.P,J2,4,Pin_4*%
%TO.N,/PMS_RX*%
X145000000Y-56825000D03*
%TO.P,J2,5,Pin_5*%
%TO.N,/PMS_TX*%
X145000000Y-58075000D03*
%TO.P,J2,6,Pin_6*%
%TO.N,unconnected-(J2-Pin_6-Pad6)*%
X145000000Y-59325000D03*
%TO.P,J2,7,Pin_7*%
%TO.N,unconnected-(J2-Pin_7-Pad7)*%
X145000000Y-60575000D03*
%TO.P,J2,8,Pin_8*%
%TO.N,unconnected-(J2-Pin_8-Pad8)*%
X145000000Y-61825000D03*
%TD*%
D23*
%TO.P,SW1,1,A*%
%TO.N,/BAT_RAW*%
X143750000Y-82200000D03*
%TO.P,SW1,2,B*%
%TO.N,/VBAT_SW*%
X149050000Y-82200000D03*
%TD*%
D24*
%TO.P,C4,1*%
%TO.N,+3V3*%
X152400000Y-86087500D03*
%TO.P,C4,2*%
%TO.N,GND*%
X152400000Y-89212500D03*
%TD*%
D13*
%TO.P,R3,1*%
%TO.N,+3V3*%
X151600000Y-56600000D03*
%TO.P,R3,2*%
%TO.N,/LCD_CS*%
X151600000Y-58600000D03*
%TD*%
D25*
%TO.N,GND*%
X158400000Y-84600000D03*
X170000000Y-65400000D03*
X143200000Y-54200000D03*
%TO.N,/PMS_RX*%
X146550000Y-57600000D03*
X148800000Y-59800000D03*
%TO.N,/PMS_TX*%
X146550000Y-59000000D03*
X148650000Y-61000000D03*
%TO.N,/LCD_MOSI*%
X160400000Y-53400000D03*
X157200000Y-50800000D03*
X162600000Y-70000000D03*
X162600000Y-66600000D03*
%TO.N,/LCD_CLK*%
X163450003Y-70000000D03*
X163450003Y-66600000D03*
X161400000Y-51800000D03*
X157400000Y-48600000D03*
%TO.N,/LCD_CS*%
X164300006Y-66600000D03*
X157400000Y-58400000D03*
X164300006Y-70000000D03*
X162400000Y-62000000D03*
%TO.N,/LCD_DC*%
X165200000Y-66600000D03*
X165200000Y-70000000D03*
%TO.N,/LCD_BL*%
X166900006Y-70000000D03*
X166900006Y-66600000D03*
%TO.N,/LCD_RST*%
X166000000Y-64400000D03*
X166050003Y-66600000D03*
X164000000Y-62200000D03*
X166050003Y-70000000D03*
X161200000Y-48800000D03*
X158400000Y-46000000D03*
%TD*%
D26*
%TO.N,/BAT_SENSE*%
X169620000Y-55860000D02*
X171480000Y-54000000D01*
X174000000Y-57200000D02*
X173250000Y-57950000D01*
X172400000Y-54000000D02*
X173800000Y-54000000D01*
X174000000Y-54200000D02*
X174000000Y-57200000D01*
X173250000Y-57950000D02*
X172400000Y-57950000D01*
X171480000Y-54000000D02*
X172400000Y-54000000D01*
X172400000Y-57950000D02*
X172400000Y-59962500D01*
X173800000Y-54000000D02*
X174000000Y-54200000D01*
D27*
%TO.N,GND*%
X145000000Y-54325000D02*
X143325000Y-54325000D01*
X171174000Y-57176000D02*
X171174000Y-64226000D01*
X171174000Y-64226000D02*
X170000000Y-65400000D01*
X158400000Y-87000000D02*
X158400000Y-84600000D01*
X172400000Y-55950000D02*
X171174000Y-57176000D01*
X143325000Y-54325000D02*
X143200000Y-54200000D01*
%TO.N,+3V3*%
X156400000Y-82800000D02*
X155687500Y-82800000D01*
X172000000Y-68800000D02*
X162000000Y-68800000D01*
X158800000Y-82200000D02*
X157000000Y-82200000D01*
X162000000Y-68800000D02*
X161400000Y-69400000D01*
X174200000Y-65600000D02*
X173200000Y-65600000D01*
X175600000Y-58600000D02*
X175000000Y-59200000D01*
D28*
X170200000Y-41600000D02*
X171600000Y-43000000D01*
D27*
X150800000Y-84200000D02*
X150000000Y-85000000D01*
X153200000Y-84200000D02*
X150800000Y-84200000D01*
X172800000Y-68000000D02*
X172000000Y-68800000D01*
X150000000Y-85000000D02*
X150000000Y-86012500D01*
X157000000Y-82200000D02*
X156400000Y-82800000D01*
D28*
X151600000Y-56600000D02*
X151600000Y-42600000D01*
D27*
X172800000Y-66000000D02*
X172800000Y-68000000D01*
X153743750Y-84743750D02*
X152400000Y-86087500D01*
X175000000Y-64800000D02*
X174200000Y-65600000D01*
D28*
X171600000Y-48800000D02*
X169620000Y-50780000D01*
X151600000Y-42600000D02*
X152600000Y-41600000D01*
D27*
X161400000Y-79600000D02*
X158800000Y-82200000D01*
X175000000Y-59200000D02*
X175000000Y-64800000D01*
D28*
X171600000Y-43000000D02*
X171600000Y-48800000D01*
D27*
X161400000Y-69400000D02*
X161400000Y-79600000D01*
X171600000Y-48800000D02*
X173400000Y-48800000D01*
X175600000Y-51000000D02*
X175600000Y-58600000D01*
X173400000Y-48800000D02*
X175600000Y-51000000D01*
D28*
X152600000Y-41600000D02*
X170200000Y-41600000D01*
D27*
X173200000Y-65600000D02*
X172800000Y-66000000D01*
X156400000Y-82800000D02*
X156400000Y-87000000D01*
X153743750Y-84743750D02*
X153200000Y-84200000D01*
X155687500Y-82800000D02*
X153743750Y-84743750D01*
D28*
%TO.N,/BAT_RAW*%
X142600000Y-90500000D02*
X142600000Y-83350000D01*
X142600000Y-83350000D02*
X143750000Y-82200000D01*
D26*
%TO.N,/PMS_RX*%
X145000000Y-56825000D02*
X145775000Y-56825000D01*
X149940000Y-60940000D02*
X154380000Y-60940000D01*
X145775000Y-56825000D02*
X146550000Y-57600000D01*
X148800000Y-59800000D02*
X149940000Y-60940000D01*
%TO.N,/PMS_TX*%
X149450000Y-61800000D02*
X152700000Y-61800000D01*
X152700000Y-61800000D02*
X154380000Y-63480000D01*
X145000000Y-58075000D02*
X145625000Y-58075000D01*
X148650000Y-61000000D02*
X149450000Y-61800000D01*
X145625000Y-58075000D02*
X146550000Y-59000000D01*
%TO.N,/LCD_MOSI*%
X160400000Y-87000000D02*
X160400000Y-82400000D01*
X160400000Y-64400000D02*
X160400000Y-53400000D01*
X157200000Y-50800000D02*
X157180000Y-50780000D01*
X157180000Y-50780000D02*
X154380000Y-50780000D01*
X160400000Y-82400000D02*
X162600000Y-80200000D01*
X162600000Y-66600000D02*
X160400000Y-64400000D01*
X162600000Y-80200000D02*
X162600000Y-70000000D01*
%TO.N,/LCD_CLK*%
X163450003Y-66600000D02*
X163450003Y-66050003D01*
X154800000Y-48600000D02*
X157400000Y-48600000D01*
X154380000Y-48240000D02*
X154440000Y-48240000D01*
X163400000Y-70050003D02*
X163450003Y-70000000D01*
X154440000Y-48240000D02*
X154800000Y-48600000D01*
X163400000Y-80800000D02*
X163400000Y-70050003D01*
X162400000Y-81800000D02*
X163400000Y-80800000D01*
X163450003Y-66050003D02*
X161400000Y-64000000D01*
X161400000Y-64000000D02*
X161400000Y-51800000D01*
X162400000Y-87000000D02*
X162400000Y-81800000D01*
%TO.N,/LCD_CS*%
X164000000Y-81400000D02*
X164300006Y-81099994D01*
X164400000Y-85800000D02*
X164000000Y-85400000D01*
X164300006Y-65300006D02*
X162400000Y-63400000D01*
D28*
X154180000Y-58600000D02*
X154380000Y-58400000D01*
X151600000Y-58600000D02*
X154180000Y-58600000D01*
D26*
X164300006Y-66600000D02*
X164300006Y-65300006D01*
X162400000Y-63400000D02*
X162400000Y-62000000D01*
X164300006Y-81099994D02*
X164300006Y-70000000D01*
X157400000Y-58400000D02*
X154380000Y-58400000D01*
X164000000Y-85400000D02*
X164000000Y-81400000D01*
X164400000Y-87000000D02*
X164400000Y-85800000D01*
%TO.N,/LCD_DC*%
X165200000Y-81600000D02*
X165200000Y-70000000D01*
X165200000Y-54600000D02*
X166480000Y-53320000D01*
X166400000Y-87000000D02*
X166400000Y-82800000D01*
X166480000Y-53320000D02*
X169620000Y-53320000D01*
X166400000Y-82800000D02*
X165200000Y-81600000D01*
X165200000Y-66600000D02*
X165200000Y-54600000D01*
%TO.N,/LCD_BL*%
X170400000Y-83200000D02*
X168800000Y-81600000D01*
X170400000Y-87000000D02*
X170400000Y-83200000D01*
X166900006Y-79700006D02*
X166900006Y-70000000D01*
X168800000Y-81600000D02*
X166900006Y-79700006D01*
X166900006Y-63659994D02*
X169620000Y-60940000D01*
X166900006Y-66600000D02*
X166900006Y-63659994D01*
%TO.N,/LCD_RST*%
X168400000Y-87000000D02*
X168400000Y-83000000D01*
X162600000Y-60800000D02*
X162600000Y-50400000D01*
X164000000Y-62200000D02*
X162600000Y-60800000D01*
X166050003Y-66600000D02*
X166050003Y-64450003D01*
X158100000Y-45700000D02*
X154380000Y-45700000D01*
X162600000Y-50400000D02*
X162600000Y-50200000D01*
X166050003Y-80650003D02*
X166050003Y-70000000D01*
X166050003Y-64450003D02*
X166000000Y-64400000D01*
X158400000Y-46000000D02*
X158100000Y-45700000D01*
X166400000Y-81000000D02*
X166050003Y-80650003D01*
X168400000Y-83000000D02*
X166400000Y-81000000D01*
X162600000Y-50200000D02*
X161200000Y-48800000D01*
%TO.N,/VBAT_SW*%
X160200000Y-78400000D02*
X158800000Y-79800000D01*
X160200000Y-68200000D02*
X160200000Y-78400000D01*
X174000000Y-58200000D02*
X174000000Y-64200000D01*
X158800000Y-79800000D02*
X158800000Y-80400000D01*
X158200000Y-81000000D02*
X154800000Y-81000000D01*
D28*
X153200000Y-81000000D02*
X153200000Y-74400000D01*
X154030000Y-73570000D02*
X156400000Y-73570000D01*
X152000000Y-82200000D02*
X153200000Y-81000000D01*
D26*
X154800000Y-81000000D02*
X153600000Y-82200000D01*
X171800000Y-67400000D02*
X171400000Y-67800000D01*
D28*
X149050000Y-82200000D02*
X152000000Y-82200000D01*
D26*
X172000000Y-64800000D02*
X171800000Y-65000000D01*
X171800000Y-65000000D02*
X171800000Y-67400000D01*
X173400000Y-64800000D02*
X172000000Y-64800000D01*
X174600000Y-53400000D02*
X174600000Y-57600000D01*
X173200000Y-52000000D02*
X174600000Y-53400000D01*
X160600000Y-67800000D02*
X160200000Y-68200000D01*
D28*
X153200000Y-74400000D02*
X154030000Y-73570000D01*
D26*
X172400000Y-52000000D02*
X173200000Y-52000000D01*
X174600000Y-57600000D02*
X174000000Y-58200000D01*
X158800000Y-80400000D02*
X158200000Y-81000000D01*
X171400000Y-67800000D02*
X160600000Y-67800000D01*
X174000000Y-64200000D02*
X173400000Y-64800000D01*
X153600000Y-82200000D02*
X152000000Y-82200000D01*
D28*
%TO.N,+5V*%
X145762500Y-53075000D02*
X148200000Y-50637500D01*
X158200000Y-68000000D02*
X151400000Y-68000000D01*
X151400000Y-68000000D02*
X147600000Y-64200000D01*
X145650000Y-53075000D02*
X145000000Y-53075000D01*
X145000000Y-50405113D02*
X143400000Y-48805113D01*
X147600000Y-64200000D02*
X147600000Y-55025000D01*
X145000000Y-53075000D02*
X145000000Y-50405113D01*
X159000000Y-49000000D02*
X162300000Y-45700000D01*
X159000000Y-68800000D02*
X158200000Y-68000000D01*
X158350000Y-78650000D02*
X159000000Y-78000000D01*
X156400000Y-78650000D02*
X158350000Y-78650000D01*
X145000000Y-53075000D02*
X145762500Y-53075000D01*
X159000000Y-68800000D02*
X159000000Y-49000000D01*
X159000000Y-78000000D02*
X159000000Y-68800000D01*
X162300000Y-45700000D02*
X169620000Y-45700000D01*
X147600000Y-55025000D02*
X145650000Y-53075000D01*
%TD*%
%TA.AperFunction,Conductor*%
%TO.N,GND*%
G36*
X151752255Y-40820185D02*
G01*
X151798010Y-40872989D01*
X151807954Y-40942147D01*
X151778929Y-41005703D01*
X151772897Y-41012181D01*
X151302869Y-41482210D01*
X150962220Y-41822859D01*
X150962218Y-41822861D01*
X150915843Y-41869236D01*
X150822859Y-41962219D01*
X150713371Y-42126079D01*
X150713364Y-42126092D01*
X150637950Y-42308160D01*
X150637947Y-42308170D01*
X150599500Y-42501456D01*
X150599500Y-55687770D01*
X150579815Y-55754809D01*
X150563181Y-55775451D01*
X150557289Y-55781342D01*
X150465187Y-55930663D01*
X150465186Y-55930666D01*
X150410001Y-56097203D01*
X150410001Y-56097204D01*
X150410000Y-56097204D01*
X150399500Y-56199983D01*
X150399500Y-57000001D01*
X150399501Y-57000019D01*
X150410000Y-57102796D01*
X150410001Y-57102799D01*
X150465185Y-57269331D01*
X150465187Y-57269336D01*
X150472177Y-57280668D01*
X150552198Y-57410404D01*
X150557289Y-57418657D01*
X150650951Y-57512319D01*
X150684436Y-57573642D01*
X150679452Y-57643334D01*
X150650951Y-57687681D01*
X150557289Y-57781342D01*
X150465187Y-57930663D01*
X150465185Y-57930668D01*
X150459061Y-57949150D01*
X150410001Y-58097203D01*
X150410001Y-58097204D01*
X150410000Y-58097204D01*
X150399500Y-58199983D01*
X150399500Y-59000001D01*
X150399501Y-59000019D01*
X150410000Y-59102796D01*
X150410001Y-59102799D01*
X150465185Y-59269331D01*
X150465187Y-59269336D01*
X150481547Y-59295859D01*
X150557288Y-59418656D01*
X150681344Y-59542712D01*
X150830666Y-59634814D01*
X150997203Y-59689999D01*
X151099991Y-59700500D01*
X152100008Y-59700499D01*
X152100016Y-59700498D01*
X152100019Y-59700498D01*
X152156302Y-59694748D01*
X152202797Y-59689999D01*
X152369334Y-59634814D01*
X152395036Y-59618960D01*
X152460132Y-59600500D01*
X153918888Y-59600500D01*
X153985927Y-59620185D01*
X154031682Y-59672989D01*
X154041626Y-59742147D01*
X154012601Y-59805703D01*
X153957206Y-59842431D01*
X153929150Y-59851546D01*
X153929147Y-59851547D01*
X153764424Y-59935479D01*
X153614870Y-60044135D01*
X153614865Y-60044139D01*
X153484137Y-60174867D01*
X153419828Y-60263384D01*
X153364498Y-60306051D01*
X153319509Y-60314500D01*
X150250453Y-60314500D01*
X150183414Y-60294815D01*
X150162772Y-60278181D01*
X149625793Y-59741203D01*
X149592308Y-59679880D01*
X149591887Y-59677864D01*
X149569737Y-59566503D01*
X149537408Y-59488453D01*
X149509397Y-59420827D01*
X149509390Y-59420814D01*
X149421789Y-59289711D01*
X149421786Y-59289707D01*
X149310292Y-59178213D01*
X149310288Y-59178210D01*
X149179185Y-59090609D01*
X149179172Y-59090602D01*
X149033501Y-59030264D01*
X149033489Y-59030261D01*
X148878845Y-58999500D01*
X148878842Y-58999500D01*
X148724500Y-58999500D01*
X148657461Y-58979815D01*
X148611706Y-58927011D01*
X148600500Y-58875500D01*
X148600500Y-54926456D01*
X148586381Y-54855479D01*
X148580219Y-54824500D01*
X148562051Y-54733164D01*
X148517455Y-54625500D01*
X148486632Y-54551086D01*
X148486631Y-54551084D01*
X148486630Y-54551082D01*
X148377140Y-54387219D01*
X148314441Y-54324520D01*
X148237782Y-54247861D01*
X148237781Y-54247860D01*
X147208851Y-53218930D01*
X147175366Y-53157607D01*
X147180350Y-53087915D01*
X147208851Y-53043568D01*
X147828279Y-52424141D01*
X148490602Y-51761818D01*
X148551925Y-51728333D01*
X148578283Y-51725499D01*
X148725002Y-51725499D01*
X148725008Y-51725499D01*
X148827797Y-51714999D01*
X148994334Y-51659814D01*
X149143656Y-51567712D01*
X149267712Y-51443656D01*
X149359814Y-51294334D01*
X149414999Y-51127797D01*
X149425500Y-51025009D01*
X149425499Y-50249992D01*
X149423710Y-50232482D01*
X149414999Y-50147203D01*
X149414998Y-50147200D01*
X149403757Y-50113277D01*
X149359814Y-49980666D01*
X149267712Y-49831344D01*
X149143656Y-49707288D01*
X149140342Y-49705243D01*
X149138546Y-49703248D01*
X149137989Y-49702807D01*
X149138064Y-49702711D01*
X149093618Y-49653297D01*
X149082397Y-49584334D01*
X149110240Y-49520252D01*
X149140348Y-49494165D01*
X149143342Y-49492318D01*
X149267315Y-49368345D01*
X149359356Y-49219124D01*
X149359358Y-49219119D01*
X149414505Y-49052697D01*
X149414506Y-49052690D01*
X149424999Y-48949986D01*
X149425000Y-48949973D01*
X149425000Y-48812500D01*
X146975001Y-48812500D01*
X146975001Y-48949986D01*
X146985494Y-49052697D01*
X147040641Y-49219119D01*
X147040643Y-49219124D01*
X147132684Y-49368345D01*
X147256655Y-49492316D01*
X147256659Y-49492319D01*
X147259656Y-49494168D01*
X147261279Y-49495972D01*
X147262323Y-49496798D01*
X147262181Y-49496976D01*
X147306381Y-49546116D01*
X147317602Y-49615079D01*
X147289759Y-49679161D01*
X147259661Y-49705241D01*
X147256349Y-49707283D01*
X147256343Y-49707288D01*
X147132289Y-49831342D01*
X147040187Y-49980663D01*
X147040186Y-49980665D01*
X147040186Y-49980666D01*
X146985001Y-50147203D01*
X146985001Y-50147204D01*
X146985000Y-50147204D01*
X146974500Y-50249983D01*
X146974500Y-50396716D01*
X146954815Y-50463755D01*
X146938181Y-50484397D01*
X146212181Y-51210397D01*
X146150858Y-51243882D01*
X146081166Y-51238898D01*
X146025233Y-51197026D01*
X146000816Y-51131562D01*
X146000500Y-51122716D01*
X146000500Y-50306571D01*
X146000499Y-50306570D01*
X145991556Y-50261607D01*
X145962052Y-50113278D01*
X145886632Y-49931199D01*
X145886631Y-49931198D01*
X145886628Y-49931192D01*
X145777140Y-49767332D01*
X145777137Y-49767328D01*
X144736818Y-48727010D01*
X144703333Y-48665687D01*
X144700499Y-48639329D01*
X144700499Y-48205111D01*
X144700499Y-48205105D01*
X144699374Y-48194093D01*
X144698391Y-48184464D01*
X144697425Y-48175013D01*
X146975000Y-48175013D01*
X146975000Y-48312500D01*
X147950000Y-48312500D01*
X148450000Y-48312500D01*
X149424999Y-48312500D01*
X149424999Y-48175028D01*
X149424998Y-48175013D01*
X149414505Y-48072302D01*
X149359358Y-47905880D01*
X149359356Y-47905875D01*
X149267315Y-47756654D01*
X149143345Y-47632684D01*
X148994124Y-47540643D01*
X148994119Y-47540641D01*
X148827697Y-47485494D01*
X148827690Y-47485493D01*
X148724986Y-47475000D01*
X148450000Y-47475000D01*
X148450000Y-48312500D01*
X147950000Y-48312500D01*
X147950000Y-47475000D01*
X147675029Y-47475000D01*
X147675012Y-47475001D01*
X147572302Y-47485494D01*
X147405880Y-47540641D01*
X147405875Y-47540643D01*
X147256654Y-47632684D01*
X147132684Y-47756654D01*
X147040643Y-47905875D01*
X147040641Y-47905880D01*
X146985494Y-48072302D01*
X146985493Y-48072309D01*
X146975000Y-48175013D01*
X144697425Y-48175013D01*
X144694621Y-48147565D01*
X144689999Y-48102316D01*
X144634814Y-47935779D01*
X144542712Y-47786457D01*
X144473488Y-47717233D01*
X144440003Y-47655910D01*
X144444987Y-47586218D01*
X144460852Y-47556665D01*
X144511858Y-47486462D01*
X144511863Y-47486454D01*
X144604755Y-47304144D01*
X144667990Y-47109530D01*
X144700000Y-46907430D01*
X144700000Y-46702795D01*
X144667990Y-46500695D01*
X144604755Y-46306081D01*
X144511859Y-46123763D01*
X144479474Y-46079190D01*
X144479474Y-46079189D01*
X143800000Y-46758664D01*
X143800000Y-46752452D01*
X143772741Y-46650719D01*
X143720080Y-46559507D01*
X143645606Y-46485033D01*
X143554394Y-46432372D01*
X143452661Y-46405113D01*
X143446446Y-46405113D01*
X144125922Y-45725637D01*
X144125921Y-45725636D01*
X144081359Y-45693260D01*
X144081350Y-45693254D01*
X143899031Y-45600357D01*
X143704417Y-45537122D01*
X143502317Y-45505113D01*
X143297683Y-45505113D01*
X143095582Y-45537122D01*
X142900968Y-45600357D01*
X142718644Y-45693256D01*
X142674077Y-45725636D01*
X142674077Y-45725637D01*
X143353554Y-46405113D01*
X143347339Y-46405113D01*
X143245606Y-46432372D01*
X143154394Y-46485033D01*
X143079920Y-46559507D01*
X143027259Y-46650719D01*
X143000000Y-46752452D01*
X143000000Y-46758666D01*
X142320524Y-46079190D01*
X142320523Y-46079190D01*
X142288143Y-46123757D01*
X142195244Y-46306081D01*
X142132009Y-46500695D01*
X142100000Y-46702795D01*
X142100000Y-46907430D01*
X142132009Y-47109530D01*
X142195244Y-47304144D01*
X142288142Y-47486465D01*
X142339147Y-47556668D01*
X142362627Y-47622474D01*
X142346802Y-47690528D01*
X142326511Y-47717234D01*
X142257287Y-47786458D01*
X142165187Y-47935776D01*
X142165185Y-47935781D01*
X142155473Y-47965091D01*
X142110001Y-48102316D01*
X142110001Y-48102317D01*
X142110000Y-48102317D01*
X142099500Y-48205096D01*
X142099500Y-49405114D01*
X142099501Y-49405131D01*
X142110000Y-49507909D01*
X142110001Y-49507912D01*
X142165185Y-49674444D01*
X142165187Y-49674449D01*
X142175733Y-49691546D01*
X142257288Y-49823769D01*
X142381344Y-49947825D01*
X142530666Y-50039927D01*
X142697203Y-50095112D01*
X142799991Y-50105613D01*
X143234217Y-50105612D01*
X143301256Y-50125296D01*
X143321898Y-50141931D01*
X143963181Y-50783214D01*
X143996666Y-50844537D01*
X143999500Y-50870895D01*
X143999500Y-52397023D01*
X143981617Y-52461171D01*
X143956454Y-52502797D01*
X143906522Y-52585393D01*
X143855913Y-52747807D01*
X143849500Y-52818386D01*
X143849500Y-53331613D01*
X143855913Y-53402192D01*
X143855913Y-53402194D01*
X143855914Y-53402196D01*
X143906522Y-53564606D01*
X143993567Y-53708596D01*
X144011403Y-53776148D01*
X143990553Y-53841634D01*
X143952429Y-53898691D01*
X143884587Y-54062476D01*
X143884584Y-54062483D01*
X143882096Y-54075000D01*
X144876000Y-54075000D01*
X144919461Y-54087761D01*
X144858386Y-54113060D01*
X144788060Y-54183386D01*
X144750000Y-54275272D01*
X144750000Y-54374728D01*
X144788060Y-54466614D01*
X144858386Y-54536940D01*
X144924696Y-54564406D01*
X144876000Y-54575000D01*
X143882096Y-54575000D01*
X143884584Y-54587516D01*
X143884587Y-54587523D01*
X143952428Y-54751306D01*
X143952433Y-54751316D01*
X144038858Y-54880659D01*
X144059736Y-54947336D01*
X144041252Y-55014717D01*
X144038858Y-55018441D01*
X143951990Y-55148446D01*
X143951983Y-55148459D01*
X143884106Y-55312332D01*
X143884103Y-55312341D01*
X143849500Y-55486304D01*
X143849500Y-55663695D01*
X143884103Y-55837658D01*
X143884106Y-55837667D01*
X143951983Y-56001540D01*
X143951990Y-56001553D01*
X144038557Y-56131109D01*
X144059435Y-56197787D01*
X144040950Y-56265167D01*
X144038557Y-56268891D01*
X143951990Y-56398446D01*
X143951983Y-56398459D01*
X143884106Y-56562332D01*
X143884103Y-56562341D01*
X143849500Y-56736304D01*
X143849500Y-56913695D01*
X143884103Y-57087658D01*
X143884106Y-57087667D01*
X143951983Y-57251540D01*
X143951990Y-57251553D01*
X144038557Y-57381109D01*
X144059435Y-57447787D01*
X144040950Y-57515167D01*
X144038557Y-57518891D01*
X143951990Y-57648446D01*
X143951983Y-57648459D01*
X143884106Y-57812332D01*
X143884103Y-57812341D01*
X143849500Y-57986304D01*
X143849500Y-58163695D01*
X143884103Y-58337658D01*
X143884106Y-58337667D01*
X143951983Y-58501540D01*
X143951990Y-58501553D01*
X144038557Y-58631109D01*
X144059435Y-58697787D01*
X144040950Y-58765167D01*
X144038557Y-58768891D01*
X143951990Y-58898446D01*
X143951983Y-58898459D01*
X143884106Y-59062332D01*
X143884103Y-59062341D01*
X143849500Y-59236304D01*
X143849500Y-59413695D01*
X143884103Y-59587658D01*
X143884106Y-59587667D01*
X143951983Y-59751540D01*
X143951990Y-59751553D01*
X144038557Y-59881109D01*
X144059435Y-59947787D01*
X144040950Y-60015167D01*
X144038557Y-60018891D01*
X143951990Y-60148446D01*
X143951983Y-60148459D01*
X143884106Y-60312332D01*
X143884103Y-60312341D01*
X143849500Y-60486304D01*
X143849500Y-60663695D01*
X143884103Y-60837658D01*
X143884106Y-60837667D01*
X143951983Y-61001540D01*
X143951990Y-61001553D01*
X144038557Y-61131109D01*
X144059435Y-61197787D01*
X144040950Y-61265167D01*
X144038557Y-61268891D01*
X143951990Y-61398446D01*
X143951983Y-61398459D01*
X143884106Y-61562332D01*
X143884103Y-61562341D01*
X143849500Y-61736304D01*
X143849500Y-61913695D01*
X143884103Y-62087658D01*
X143884106Y-62087667D01*
X143951983Y-62251540D01*
X143951990Y-62251553D01*
X144050535Y-62399034D01*
X144050538Y-62399038D01*
X144175961Y-62524461D01*
X144175965Y-62524464D01*
X144323446Y-62623009D01*
X144323459Y-62623016D01*
X144446363Y-62673923D01*
X144487334Y-62690894D01*
X144487336Y-62690894D01*
X144487341Y-62690896D01*
X144661304Y-62725499D01*
X144661307Y-62725500D01*
X144661309Y-62725500D01*
X145338693Y-62725500D01*
X145338694Y-62725499D01*
X145396682Y-62713964D01*
X145512658Y-62690896D01*
X145512661Y-62690894D01*
X145512666Y-62690894D01*
X145676547Y-62623013D01*
X145824035Y-62524464D01*
X145949464Y-62399035D01*
X146048013Y-62251547D01*
X146115894Y-62087666D01*
X146115928Y-62087499D01*
X146150499Y-61913695D01*
X146150500Y-61913693D01*
X146150500Y-61736306D01*
X146150499Y-61736304D01*
X146115896Y-61562341D01*
X146115893Y-61562332D01*
X146109670Y-61547309D01*
X146086182Y-61490602D01*
X146048016Y-61398459D01*
X146048014Y-61398455D01*
X146048013Y-61398453D01*
X145961442Y-61268891D01*
X145940564Y-61202214D01*
X145959048Y-61134834D01*
X145961442Y-61131109D01*
X146022320Y-61039999D01*
X146048013Y-61001547D01*
X146115894Y-60837666D01*
X146150500Y-60663691D01*
X146150500Y-60486309D01*
X146150500Y-60486306D01*
X146150499Y-60486304D01*
X146115896Y-60312341D01*
X146115893Y-60312332D01*
X146113291Y-60306051D01*
X146095618Y-60263384D01*
X146048016Y-60148459D01*
X146048014Y-60148455D01*
X146048013Y-60148453D01*
X146048008Y-60148446D01*
X145961442Y-60018891D01*
X145955468Y-59999813D01*
X145944962Y-59982805D01*
X145945241Y-59967152D01*
X145940564Y-59952214D01*
X145945852Y-59932936D01*
X145946209Y-59912947D01*
X145958225Y-59887830D01*
X145959048Y-59884834D01*
X145961442Y-59881109D01*
X146040158Y-59763303D01*
X146093770Y-59718498D01*
X146163095Y-59709791D01*
X146190709Y-59717631D01*
X146316503Y-59769737D01*
X146430804Y-59792473D01*
X146471153Y-59800499D01*
X146471156Y-59800500D01*
X146471158Y-59800500D01*
X146475500Y-59800500D01*
X146542539Y-59820185D01*
X146588294Y-59872989D01*
X146599500Y-59924500D01*
X146599500Y-64298542D01*
X146607427Y-64338392D01*
X146607427Y-64338393D01*
X146636493Y-64484520D01*
X146637949Y-64491836D01*
X146642869Y-64503714D01*
X146642869Y-64503715D01*
X146713366Y-64673911D01*
X146713371Y-64673920D01*
X146822859Y-64837780D01*
X146822860Y-64837781D01*
X146822861Y-64837782D01*
X146962218Y-64977139D01*
X146962219Y-64977139D01*
X146969286Y-64984206D01*
X146969285Y-64984206D01*
X146969289Y-64984209D01*
X150762215Y-68777137D01*
X150762219Y-68777140D01*
X150926079Y-68886628D01*
X150926085Y-68886631D01*
X150926086Y-68886632D01*
X151108165Y-68962052D01*
X151301455Y-69000500D01*
X151301458Y-69000501D01*
X151301460Y-69000501D01*
X151504655Y-69000501D01*
X151504675Y-69000500D01*
X157734218Y-69000500D01*
X157801257Y-69020185D01*
X157821899Y-69036819D01*
X157963181Y-69178101D01*
X157996666Y-69239424D01*
X157999500Y-69265782D01*
X157999500Y-77525500D01*
X157979815Y-77592539D01*
X157927011Y-77638294D01*
X157875500Y-77649500D01*
X157360200Y-77649500D01*
X157293161Y-77629815D01*
X157280634Y-77620506D01*
X157107817Y-77494949D01*
X157098504Y-77490204D01*
X157047707Y-77442230D01*
X157030912Y-77374409D01*
X157053449Y-77308274D01*
X157098507Y-77269232D01*
X157107555Y-77264622D01*
X157161716Y-77225270D01*
X157161717Y-77225270D01*
X156529408Y-76592962D01*
X156592993Y-76575925D01*
X156707007Y-76510099D01*
X156800099Y-76417007D01*
X156865925Y-76302993D01*
X156882962Y-76239408D01*
X157515270Y-76871717D01*
X157515270Y-76871716D01*
X157554622Y-76817554D01*
X157651095Y-76628217D01*
X157716757Y-76426130D01*
X157716757Y-76426127D01*
X157750000Y-76216246D01*
X157750000Y-76003753D01*
X157716757Y-75793872D01*
X157716757Y-75793869D01*
X157651095Y-75591782D01*
X157554624Y-75402449D01*
X157515270Y-75348282D01*
X157515269Y-75348282D01*
X156882962Y-75980590D01*
X156865925Y-75917007D01*
X156800099Y-75802993D01*
X156707007Y-75709901D01*
X156592993Y-75644075D01*
X156529409Y-75627037D01*
X157199627Y-74956818D01*
X157260950Y-74923333D01*
X157287307Y-74920499D01*
X157297872Y-74920499D01*
X157357483Y-74914091D01*
X157492331Y-74863796D01*
X157607546Y-74777546D01*
X157693796Y-74662331D01*
X157744091Y-74527483D01*
X157750500Y-74467873D01*
X157750499Y-72672128D01*
X157744091Y-72612517D01*
X157742387Y-72607949D01*
X157693797Y-72477671D01*
X157693793Y-72477664D01*
X157607547Y-72362455D01*
X157607544Y-72362452D01*
X157492335Y-72276206D01*
X157492328Y-72276202D01*
X157357482Y-72225908D01*
X157357483Y-72225908D01*
X157297883Y-72219501D01*
X157297881Y-72219500D01*
X157297873Y-72219500D01*
X157297864Y-72219500D01*
X155502129Y-72219500D01*
X155502123Y-72219501D01*
X155442516Y-72225908D01*
X155307671Y-72276202D01*
X155307664Y-72276206D01*
X155192455Y-72362452D01*
X155192452Y-72362455D01*
X155106206Y-72477664D01*
X155106204Y-72477668D01*
X155106204Y-72477669D01*
X155102039Y-72488834D01*
X155060171Y-72544766D01*
X154994707Y-72569184D01*
X154985859Y-72569500D01*
X153931455Y-72569500D01*
X153834812Y-72588724D01*
X153738167Y-72607947D01*
X153738161Y-72607949D01*
X153684834Y-72630037D01*
X153684834Y-72630038D01*
X153639315Y-72648892D01*
X153556089Y-72683366D01*
X153556079Y-72683371D01*
X153392218Y-72792860D01*
X153392214Y-72792863D01*
X152562220Y-73622859D01*
X152562218Y-73622861D01*
X152492538Y-73692540D01*
X152422859Y-73762219D01*
X152313371Y-73926079D01*
X152313364Y-73926092D01*
X152237950Y-74108160D01*
X152237947Y-74108170D01*
X152199500Y-74301456D01*
X152199500Y-80534217D01*
X152179815Y-80601256D01*
X152163181Y-80621898D01*
X151621899Y-81163181D01*
X151560576Y-81196666D01*
X151534218Y-81199500D01*
X150486873Y-81199500D01*
X150419834Y-81179815D01*
X150388497Y-81150986D01*
X150331248Y-81076377D01*
X150331242Y-81076370D01*
X150173629Y-80918757D01*
X150173622Y-80918751D01*
X149996782Y-80783058D01*
X149996780Y-80783057D01*
X149996774Y-80783052D01*
X149803726Y-80671595D01*
X149803722Y-80671593D01*
X149597790Y-80586293D01*
X149597783Y-80586291D01*
X149597781Y-80586290D01*
X149382463Y-80528596D01*
X149382457Y-80528595D01*
X149382452Y-80528594D01*
X149161466Y-80499501D01*
X149161463Y-80499500D01*
X149161457Y-80499500D01*
X148938543Y-80499500D01*
X148938537Y-80499500D01*
X148938533Y-80499501D01*
X148717547Y-80528594D01*
X148717540Y-80528595D01*
X148717537Y-80528596D01*
X148504873Y-80585579D01*
X148502219Y-80586290D01*
X148502209Y-80586293D01*
X148296277Y-80671593D01*
X148296273Y-80671595D01*
X148103226Y-80783052D01*
X148103217Y-80783058D01*
X147926377Y-80918751D01*
X147926370Y-80918757D01*
X147768757Y-81076370D01*
X147768751Y-81076377D01*
X147633058Y-81253217D01*
X147633052Y-81253226D01*
X147521595Y-81446273D01*
X147521593Y-81446277D01*
X147436293Y-81652209D01*
X147436290Y-81652219D01*
X147378597Y-81867534D01*
X147378594Y-81867547D01*
X147349534Y-82088286D01*
X147349500Y-82088543D01*
X147349500Y-82311457D01*
X147349500Y-82311463D01*
X147349501Y-82311466D01*
X147378594Y-82532452D01*
X147378595Y-82532457D01*
X147378596Y-82532463D01*
X147429321Y-82721771D01*
X147436290Y-82747780D01*
X147436293Y-82747790D01*
X147521593Y-82953722D01*
X147521595Y-82953726D01*
X147633052Y-83146774D01*
X147633057Y-83146780D01*
X147633058Y-83146782D01*
X147768751Y-83323622D01*
X147768757Y-83323629D01*
X147926370Y-83481242D01*
X147926377Y-83481248D01*
X147994231Y-83533314D01*
X148103226Y-83616948D01*
X148296274Y-83728405D01*
X148502219Y-83813710D01*
X148717537Y-83871404D01*
X148938543Y-83900500D01*
X148938550Y-83900500D01*
X149161450Y-83900500D01*
X149161457Y-83900500D01*
X149382463Y-83871404D01*
X149597781Y-83813710D01*
X149803726Y-83728405D01*
X149949833Y-83644049D01*
X150017730Y-83627577D01*
X150083757Y-83650429D01*
X150126948Y-83705350D01*
X150133590Y-83774903D01*
X150101575Y-83837006D01*
X150099512Y-83839118D01*
X149417049Y-84521582D01*
X149417049Y-84521583D01*
X149394390Y-84555495D01*
X149334914Y-84644508D01*
X149278343Y-84781082D01*
X149278340Y-84781091D01*
X149251634Y-84915348D01*
X149219248Y-84977258D01*
X149195114Y-84996694D01*
X149056342Y-85082289D01*
X148932289Y-85206342D01*
X148840187Y-85355663D01*
X148840185Y-85355668D01*
X148812349Y-85439670D01*
X148785001Y-85522203D01*
X148785001Y-85522204D01*
X148785000Y-85522204D01*
X148774500Y-85624983D01*
X148774500Y-86400001D01*
X148774501Y-86400019D01*
X148785000Y-86502796D01*
X148785001Y-86502799D01*
X148840185Y-86669331D01*
X148840187Y-86669336D01*
X148875069Y-86725888D01*
X148932288Y-86818656D01*
X149056344Y-86942712D01*
X149059625Y-86944736D01*
X149059653Y-86944753D01*
X149061445Y-86946746D01*
X149062011Y-86947193D01*
X149061934Y-86947289D01*
X149106379Y-86996699D01*
X149117603Y-87065661D01*
X149089761Y-87129744D01*
X149059665Y-87155826D01*
X149056660Y-87157679D01*
X149056655Y-87157683D01*
X148932684Y-87281654D01*
X148840643Y-87430875D01*
X148840641Y-87430880D01*
X148785494Y-87597302D01*
X148785493Y-87597309D01*
X148775000Y-87700013D01*
X148775000Y-87837500D01*
X151224999Y-87837500D01*
X151224999Y-87700028D01*
X151224998Y-87700013D01*
X151214505Y-87597302D01*
X151159358Y-87430880D01*
X151159356Y-87430875D01*
X151067315Y-87281654D01*
X150943344Y-87157683D01*
X150943341Y-87157681D01*
X150940339Y-87155829D01*
X150938713Y-87154021D01*
X150937677Y-87153202D01*
X150937817Y-87153024D01*
X150893617Y-87103880D01*
X150882397Y-87034917D01*
X150910243Y-86970836D01*
X150925742Y-86955297D01*
X150932654Y-86949498D01*
X150943656Y-86942712D01*
X150958833Y-86927533D01*
X150962983Y-86924053D01*
X150990225Y-86912132D01*
X151016319Y-86897884D01*
X151021881Y-86898281D01*
X151026993Y-86896045D01*
X151056358Y-86900746D01*
X151086011Y-86902866D01*
X151090475Y-86906208D01*
X151095984Y-86907090D01*
X151118144Y-86926919D01*
X151141946Y-86944736D01*
X151148008Y-86953642D01*
X151148050Y-86953679D01*
X151148052Y-86953682D01*
X151148063Y-86953722D01*
X151148208Y-86953936D01*
X151157288Y-86968656D01*
X151281344Y-87092712D01*
X151430666Y-87184814D01*
X151597203Y-87239999D01*
X151699991Y-87250500D01*
X153100008Y-87250499D01*
X153202797Y-87239999D01*
X153369334Y-87184814D01*
X153518656Y-87092712D01*
X153642712Y-86968656D01*
X153734814Y-86819334D01*
X153789999Y-86652797D01*
X153800500Y-86550009D01*
X153800499Y-85799728D01*
X153820183Y-85732690D01*
X153836814Y-85712052D01*
X154222163Y-85326703D01*
X154222166Y-85326702D01*
X154326702Y-85222166D01*
X154326702Y-85222165D01*
X155437819Y-84111048D01*
X155499142Y-84077563D01*
X155568834Y-84082547D01*
X155624767Y-84124419D01*
X155649184Y-84189883D01*
X155649500Y-84198729D01*
X155649500Y-85671042D01*
X155629815Y-85738081D01*
X155590598Y-85776580D01*
X155581344Y-85782287D01*
X155457289Y-85906342D01*
X155365187Y-86055663D01*
X155365185Y-86055668D01*
X155339332Y-86133689D01*
X155310001Y-86222203D01*
X155310001Y-86222204D01*
X155310000Y-86222204D01*
X155299500Y-86324983D01*
X155299500Y-87675001D01*
X155299501Y-87675018D01*
X155310000Y-87777796D01*
X155310001Y-87777799D01*
X155348013Y-87892510D01*
X155365186Y-87944334D01*
X155457288Y-88093656D01*
X155581344Y-88217712D01*
X155730666Y-88309814D01*
X155897203Y-88364999D01*
X155999991Y-88375500D01*
X156800008Y-88375499D01*
X156800016Y-88375498D01*
X156800019Y-88375498D01*
X156856302Y-88369748D01*
X156902797Y-88364999D01*
X157069334Y-88309814D01*
X157218656Y-88217712D01*
X157342712Y-88093656D01*
X157382581Y-88029016D01*
X157434525Y-87982294D01*
X157503488Y-87971071D01*
X157567570Y-87998914D01*
X157575799Y-88006434D01*
X157683397Y-88114032D01*
X157823475Y-88215804D01*
X157977744Y-88294408D01*
X158142415Y-88347914D01*
X158142414Y-88347914D01*
X158149999Y-88349115D01*
X158150000Y-88349114D01*
X158150000Y-87280330D01*
X158169745Y-87300075D01*
X158255255Y-87349444D01*
X158350630Y-87375000D01*
X158449370Y-87375000D01*
X158544745Y-87349444D01*
X158630255Y-87300075D01*
X158650000Y-87280330D01*
X158650000Y-88349115D01*
X158657584Y-88347914D01*
X158822255Y-88294408D01*
X158976524Y-88215804D01*
X159116602Y-88114032D01*
X159239036Y-87991598D01*
X159299371Y-87908552D01*
X159354700Y-87865886D01*
X159424313Y-87859905D01*
X159486109Y-87892510D01*
X159500008Y-87908550D01*
X159500318Y-87908976D01*
X159560586Y-87991928D01*
X159683072Y-88114414D01*
X159823212Y-88216232D01*
X159977555Y-88294873D01*
X160142299Y-88348402D01*
X160313389Y-88375500D01*
X160313390Y-88375500D01*
X160486610Y-88375500D01*
X160486611Y-88375500D01*
X160657701Y-88348402D01*
X160822445Y-88294873D01*
X160976788Y-88216232D01*
X161116928Y-88114414D01*
X161239414Y-87991928D01*
X161299682Y-87908975D01*
X161355012Y-87866311D01*
X161424626Y-87860332D01*
X161486421Y-87892938D01*
X161500315Y-87908973D01*
X161560586Y-87991928D01*
X161683072Y-88114414D01*
X161823212Y-88216232D01*
X161977555Y-88294873D01*
X162142299Y-88348402D01*
X162313389Y-88375500D01*
X162313390Y-88375500D01*
X162486610Y-88375500D01*
X162486611Y-88375500D01*
X162657701Y-88348402D01*
X162822445Y-88294873D01*
X162976788Y-88216232D01*
X163116928Y-88114414D01*
X163239414Y-87991928D01*
X163299682Y-87908975D01*
X163355012Y-87866311D01*
X163424626Y-87860332D01*
X163486421Y-87892938D01*
X163500315Y-87908973D01*
X163560586Y-87991928D01*
X163683072Y-88114414D01*
X163823212Y-88216232D01*
X163977555Y-88294873D01*
X164142299Y-88348402D01*
X164313389Y-88375500D01*
X164313390Y-88375500D01*
X164486610Y-88375500D01*
X164486611Y-88375500D01*
X164657701Y-88348402D01*
X164822445Y-88294873D01*
X164976788Y-88216232D01*
X165116928Y-88114414D01*
X165239414Y-87991928D01*
X165299682Y-87908975D01*
X165355012Y-87866311D01*
X165424626Y-87860332D01*
X165486421Y-87892938D01*
X165500315Y-87908973D01*
X165560586Y-87991928D01*
X165683072Y-88114414D01*
X165823212Y-88216232D01*
X165977555Y-88294873D01*
X166142299Y-88348402D01*
X166313389Y-88375500D01*
X166313390Y-88375500D01*
X166486610Y-88375500D01*
X166486611Y-88375500D01*
X166657701Y-88348402D01*
X166822445Y-88294873D01*
X166976788Y-88216232D01*
X167116928Y-88114414D01*
X167239414Y-87991928D01*
X167299682Y-87908975D01*
X167355012Y-87866311D01*
X167424626Y-87860332D01*
X167486421Y-87892938D01*
X167500315Y-87908973D01*
X167560586Y-87991928D01*
X167683072Y-88114414D01*
X167823212Y-88216232D01*
X167977555Y-88294873D01*
X168142299Y-88348402D01*
X168313389Y-88375500D01*
X168313390Y-88375500D01*
X168486610Y-88375500D01*
X168486611Y-88375500D01*
X168657701Y-88348402D01*
X168822445Y-88294873D01*
X168976788Y-88216232D01*
X169116928Y-88114414D01*
X169239414Y-87991928D01*
X169299682Y-87908975D01*
X169355012Y-87866311D01*
X169424626Y-87860332D01*
X169486421Y-87892938D01*
X169500315Y-87908973D01*
X169560586Y-87991928D01*
X169683072Y-88114414D01*
X169823212Y-88216232D01*
X169977555Y-88294873D01*
X170142299Y-88348402D01*
X170313389Y-88375500D01*
X170313390Y-88375500D01*
X170486610Y-88375500D01*
X170486611Y-88375500D01*
X170657701Y-88348402D01*
X170822445Y-88294873D01*
X170976788Y-88216232D01*
X171116928Y-88114414D01*
X171239414Y-87991928D01*
X171341232Y-87851788D01*
X171419873Y-87697445D01*
X171473402Y-87532701D01*
X171500500Y-87361611D01*
X171500500Y-86638389D01*
X171473402Y-86467299D01*
X171419873Y-86302555D01*
X171341232Y-86148212D01*
X171239414Y-86008072D01*
X171116928Y-85885586D01*
X171076613Y-85856295D01*
X171033948Y-85800965D01*
X171025500Y-85755978D01*
X171025500Y-83267741D01*
X171025501Y-83267720D01*
X171025501Y-83138391D01*
X171025500Y-83138389D01*
X171003045Y-83025498D01*
X171003045Y-83025497D01*
X171002095Y-83020728D01*
X171001463Y-83017548D01*
X170961744Y-82921658D01*
X170954312Y-82903715D01*
X170954311Y-82903713D01*
X170954310Y-82903711D01*
X170885858Y-82801267D01*
X170885855Y-82801263D01*
X169198733Y-81114143D01*
X167561825Y-79477235D01*
X167528340Y-79415912D01*
X167525506Y-79389554D01*
X167525506Y-70542350D01*
X167545191Y-70475311D01*
X167546404Y-70473459D01*
X167546815Y-70472843D01*
X167609400Y-70379179D01*
X167669743Y-70233497D01*
X167700506Y-70078842D01*
X167700506Y-69921158D01*
X167700506Y-69921155D01*
X167700505Y-69921153D01*
X167669744Y-69766510D01*
X167669743Y-69766503D01*
X167651290Y-69721952D01*
X167643821Y-69652483D01*
X167675097Y-69590004D01*
X167735186Y-69554352D01*
X167765851Y-69550500D01*
X172073920Y-69550500D01*
X172171462Y-69531096D01*
X172218913Y-69521658D01*
X172355495Y-69465084D01*
X172417678Y-69423535D01*
X172478416Y-69382952D01*
X173382952Y-68478416D01*
X173395865Y-68459090D01*
X173434368Y-68401465D01*
X173434370Y-68401462D01*
X173465079Y-68355503D01*
X173465080Y-68355500D01*
X173465084Y-68355495D01*
X173521658Y-68218913D01*
X173550500Y-68073918D01*
X173550500Y-66474500D01*
X173570185Y-66407461D01*
X173622989Y-66361706D01*
X173674500Y-66350500D01*
X174273920Y-66350500D01*
X174371462Y-66331096D01*
X174418913Y-66321658D01*
X174555495Y-66265084D01*
X174604729Y-66232186D01*
X174678416Y-66182952D01*
X175582952Y-65278416D01*
X175636193Y-65198733D01*
X175665084Y-65155495D01*
X175721658Y-65018913D01*
X175748125Y-64885858D01*
X175750500Y-64873920D01*
X175750500Y-59562229D01*
X175759144Y-59532788D01*
X175765668Y-59502802D01*
X175769422Y-59497786D01*
X175770185Y-59495190D01*
X175786819Y-59474548D01*
X175887819Y-59373548D01*
X175949142Y-59340063D01*
X176018834Y-59345047D01*
X176074767Y-59386919D01*
X176099184Y-59452383D01*
X176099500Y-59461229D01*
X176099500Y-92895572D01*
X176099184Y-92904419D01*
X176084869Y-93104557D01*
X176082351Y-93122068D01*
X176040646Y-93313787D01*
X176035662Y-93330763D01*
X175967090Y-93514609D01*
X175959740Y-93530701D01*
X175865711Y-93702904D01*
X175856146Y-93717789D01*
X175738558Y-93874867D01*
X175726972Y-93888237D01*
X175588237Y-94026972D01*
X175574867Y-94038558D01*
X175417789Y-94156146D01*
X175402904Y-94165711D01*
X175230701Y-94259740D01*
X175214609Y-94267090D01*
X175030763Y-94335662D01*
X175013787Y-94340646D01*
X174822068Y-94382351D01*
X174804557Y-94384869D01*
X174623779Y-94397799D01*
X174604417Y-94399184D01*
X174595572Y-94399500D01*
X141204428Y-94399500D01*
X141195582Y-94399184D01*
X141173622Y-94397613D01*
X140995442Y-94384869D01*
X140977931Y-94382351D01*
X140786212Y-94340646D01*
X140769236Y-94335662D01*
X140585390Y-94267090D01*
X140569298Y-94259740D01*
X140397095Y-94165711D01*
X140382210Y-94156146D01*
X140225132Y-94038558D01*
X140211762Y-94026972D01*
X140073027Y-93888237D01*
X140061441Y-93874867D01*
X139943849Y-93717784D01*
X139934288Y-93702904D01*
X139840259Y-93530701D01*
X139832909Y-93514609D01*
X139772091Y-93351551D01*
X139764334Y-93330755D01*
X139759355Y-93313797D01*
X139717647Y-93122063D01*
X139715130Y-93104556D01*
X139714804Y-93100000D01*
X139700816Y-92904418D01*
X139700500Y-92895572D01*
X139700500Y-89824983D01*
X141499500Y-89824983D01*
X141499500Y-91175001D01*
X141499501Y-91175018D01*
X141510000Y-91277796D01*
X141510001Y-91277799D01*
X141552817Y-91407007D01*
X141565186Y-91444334D01*
X141657288Y-91593656D01*
X141781344Y-91717712D01*
X141930666Y-91809814D01*
X142097203Y-91864999D01*
X142199991Y-91875500D01*
X143000008Y-91875499D01*
X143000016Y-91875498D01*
X143000019Y-91875498D01*
X143056302Y-91869748D01*
X143102797Y-91864999D01*
X143269334Y-91809814D01*
X143418656Y-91717712D01*
X143542712Y-91593656D01*
X143582581Y-91529016D01*
X143634525Y-91482294D01*
X143703488Y-91471071D01*
X143767570Y-91498914D01*
X143775799Y-91506434D01*
X143883397Y-91614032D01*
X144023475Y-91715804D01*
X144177744Y-91794408D01*
X144342415Y-91847914D01*
X144342414Y-91847914D01*
X144349999Y-91849115D01*
X144350000Y-91849114D01*
X144350000Y-90780330D01*
X144369745Y-90800075D01*
X144455255Y-90849444D01*
X144550630Y-90875000D01*
X144649370Y-90875000D01*
X144744745Y-90849444D01*
X144830255Y-90800075D01*
X144850000Y-90780330D01*
X144850000Y-91849115D01*
X144857584Y-91847914D01*
X145022255Y-91794408D01*
X145176524Y-91715804D01*
X145316602Y-91614032D01*
X145439034Y-91491600D01*
X145439038Y-91491595D01*
X145446048Y-91481947D01*
X147700000Y-91481947D01*
X147700000Y-91718052D01*
X147736934Y-91951247D01*
X147809897Y-92175802D01*
X147917087Y-92386174D01*
X147977338Y-92469104D01*
X147977340Y-92469105D01*
X148717037Y-91729408D01*
X148734075Y-91792993D01*
X148799901Y-91907007D01*
X148892993Y-92000099D01*
X149007007Y-92065925D01*
X149070590Y-92082962D01*
X148330893Y-92822658D01*
X148413828Y-92882914D01*
X148624197Y-92990102D01*
X148848752Y-93063065D01*
X148848751Y-93063065D01*
X149081948Y-93100000D01*
X149318052Y-93100000D01*
X149551247Y-93063065D01*
X149775802Y-92990102D01*
X149986163Y-92882918D01*
X149986169Y-92882914D01*
X150069104Y-92822658D01*
X150069105Y-92822658D01*
X149329408Y-92082962D01*
X149392993Y-92065925D01*
X149507007Y-92000099D01*
X149600099Y-91907007D01*
X149665925Y-91792993D01*
X149682962Y-91729409D01*
X150422658Y-92469105D01*
X150422658Y-92469104D01*
X150482914Y-92386169D01*
X150482918Y-92386163D01*
X150590102Y-92175802D01*
X150663065Y-91951247D01*
X150700000Y-91718052D01*
X150700000Y-91481947D01*
X150663065Y-91248752D01*
X150590102Y-91024197D01*
X150482914Y-90813828D01*
X150422658Y-90730894D01*
X150422658Y-90730893D01*
X149682962Y-91470590D01*
X149665925Y-91407007D01*
X149600099Y-91292993D01*
X149507007Y-91199901D01*
X149392993Y-91134075D01*
X149329409Y-91117037D01*
X150069105Y-90377340D01*
X150069104Y-90377338D01*
X149986174Y-90317087D01*
X149775802Y-90209897D01*
X149551247Y-90136934D01*
X149551248Y-90136934D01*
X149318052Y-90100000D01*
X149081948Y-90100000D01*
X148848752Y-90136934D01*
X148624197Y-90209897D01*
X148413830Y-90317084D01*
X148330894Y-90377340D01*
X149070591Y-91117037D01*
X149007007Y-91134075D01*
X148892993Y-91199901D01*
X148799901Y-91292993D01*
X148734075Y-91407007D01*
X148717037Y-91470591D01*
X147977340Y-90730894D01*
X147917084Y-90813830D01*
X147809897Y-91024197D01*
X147736934Y-91248752D01*
X147700000Y-91481947D01*
X145446048Y-91481947D01*
X145502539Y-91404193D01*
X145502541Y-91404190D01*
X145540804Y-91351524D01*
X145619408Y-91197257D01*
X145672914Y-91032584D01*
X145700000Y-90861571D01*
X145700000Y-90750000D01*
X144880330Y-90750000D01*
X144900075Y-90730255D01*
X144949444Y-90644745D01*
X144975000Y-90549370D01*
X144975000Y-90450630D01*
X144949444Y-90355255D01*
X144900075Y-90269745D01*
X144880330Y-90250000D01*
X145700000Y-90250000D01*
X145700000Y-90138428D01*
X145672914Y-89967415D01*
X145619408Y-89802742D01*
X145554312Y-89674986D01*
X151000001Y-89674986D01*
X151010494Y-89777697D01*
X151065641Y-89944119D01*
X151065643Y-89944124D01*
X151157684Y-90093345D01*
X151281654Y-90217315D01*
X151430875Y-90309356D01*
X151430880Y-90309358D01*
X151597302Y-90364505D01*
X151597309Y-90364506D01*
X151700019Y-90374999D01*
X152149999Y-90374999D01*
X152650000Y-90374999D01*
X153099972Y-90374999D01*
X153099986Y-90374998D01*
X153202697Y-90364505D01*
X153369119Y-90309358D01*
X153369124Y-90309356D01*
X153518345Y-90217315D01*
X153642315Y-90093345D01*
X153734356Y-89944124D01*
X153734358Y-89944119D01*
X153789505Y-89777697D01*
X153789506Y-89777690D01*
X153799999Y-89674986D01*
X153800000Y-89674973D01*
X153800000Y-89462500D01*
X152650000Y-89462500D01*
X152650000Y-90374999D01*
X152149999Y-90374999D01*
X152150000Y-90374998D01*
X152150000Y-89462500D01*
X151000001Y-89462500D01*
X151000001Y-89674986D01*
X145554312Y-89674986D01*
X145540804Y-89648475D01*
X145439032Y-89508397D01*
X145316602Y-89385967D01*
X145176524Y-89284195D01*
X145022257Y-89205591D01*
X144857589Y-89152087D01*
X144857581Y-89152085D01*
X144850000Y-89150884D01*
X144850000Y-90219670D01*
X144830255Y-90199925D01*
X144744745Y-90150556D01*
X144649370Y-90125000D01*
X144550630Y-90125000D01*
X144455255Y-90150556D01*
X144369745Y-90199925D01*
X144350000Y-90219670D01*
X144350000Y-89150884D01*
X144349999Y-89150884D01*
X144342418Y-89152085D01*
X144342410Y-89152087D01*
X144177742Y-89205591D01*
X144023475Y-89284195D01*
X143883397Y-89385967D01*
X143812181Y-89457184D01*
X143750858Y-89490669D01*
X143681166Y-89485685D01*
X143625233Y-89443813D01*
X143600816Y-89378349D01*
X143600500Y-89369503D01*
X143600500Y-88474986D01*
X148775001Y-88474986D01*
X148785494Y-88577697D01*
X148840641Y-88744119D01*
X148840643Y-88744124D01*
X148932684Y-88893345D01*
X149056654Y-89017315D01*
X149205875Y-89109356D01*
X149205880Y-89109358D01*
X149372302Y-89164505D01*
X149372309Y-89164506D01*
X149475019Y-89174999D01*
X149749999Y-89174999D01*
X149750000Y-89174998D01*
X149750000Y-88337500D01*
X150250000Y-88337500D01*
X150250000Y-89174999D01*
X150524972Y-89174999D01*
X150524986Y-89174998D01*
X150627697Y-89164505D01*
X150794119Y-89109358D01*
X150794124Y-89109356D01*
X150870000Y-89062554D01*
X150884836Y-89035973D01*
X150889685Y-89019461D01*
X150942489Y-88973706D01*
X150994000Y-88962500D01*
X152150000Y-88962500D01*
X152650000Y-88962500D01*
X153799999Y-88962500D01*
X153799999Y-88750028D01*
X153799998Y-88750013D01*
X153789505Y-88647302D01*
X153734358Y-88480880D01*
X153734356Y-88480875D01*
X153642315Y-88331654D01*
X153518345Y-88207684D01*
X153369124Y-88115643D01*
X153369119Y-88115641D01*
X153202697Y-88060494D01*
X153202690Y-88060493D01*
X153099986Y-88050000D01*
X152650000Y-88050000D01*
X152650000Y-88962500D01*
X152150000Y-88962500D01*
X152150000Y-88050000D01*
X151700028Y-88050000D01*
X151700012Y-88050001D01*
X151597302Y-88060494D01*
X151430878Y-88115642D01*
X151430877Y-88115642D01*
X151355000Y-88162443D01*
X151355000Y-88213500D01*
X151335315Y-88280539D01*
X151282511Y-88326294D01*
X151231000Y-88337500D01*
X150250000Y-88337500D01*
X149750000Y-88337500D01*
X148775001Y-88337500D01*
X148775001Y-88474986D01*
X143600500Y-88474986D01*
X143600500Y-84024500D01*
X143620185Y-83957461D01*
X143672989Y-83911706D01*
X143724500Y-83900500D01*
X143861450Y-83900500D01*
X143861457Y-83900500D01*
X144082463Y-83871404D01*
X144297781Y-83813710D01*
X144503726Y-83728405D01*
X144696774Y-83616948D01*
X144873624Y-83481247D01*
X145031247Y-83323624D01*
X145166948Y-83146774D01*
X145278405Y-82953726D01*
X145363710Y-82747781D01*
X145421404Y-82532463D01*
X145450500Y-82311457D01*
X145450500Y-82088543D01*
X145421404Y-81867537D01*
X145363710Y-81652219D01*
X145360796Y-81645185D01*
X145278406Y-81446277D01*
X145278405Y-81446274D01*
X145166948Y-81253226D01*
X145110618Y-81179815D01*
X145031248Y-81076377D01*
X145031242Y-81076370D01*
X144873629Y-80918757D01*
X144873622Y-80918751D01*
X144696782Y-80783058D01*
X144696780Y-80783057D01*
X144696774Y-80783052D01*
X144503726Y-80671595D01*
X144503722Y-80671593D01*
X144297790Y-80586293D01*
X144297783Y-80586291D01*
X144297781Y-80586290D01*
X144082463Y-80528596D01*
X144082457Y-80528595D01*
X144082452Y-80528594D01*
X143861466Y-80499501D01*
X143861463Y-80499500D01*
X143861457Y-80499500D01*
X143638543Y-80499500D01*
X143638537Y-80499500D01*
X143638533Y-80499501D01*
X143417547Y-80528594D01*
X143417540Y-80528595D01*
X143417537Y-80528596D01*
X143204873Y-80585579D01*
X143202219Y-80586290D01*
X143202209Y-80586293D01*
X142996277Y-80671593D01*
X142996273Y-80671595D01*
X142803226Y-80783052D01*
X142803217Y-80783058D01*
X142626377Y-80918751D01*
X142626370Y-80918757D01*
X142468757Y-81076370D01*
X142468751Y-81076377D01*
X142333058Y-81253217D01*
X142333052Y-81253226D01*
X142221595Y-81446273D01*
X142221593Y-81446277D01*
X142136293Y-81652209D01*
X142136290Y-81652219D01*
X142078597Y-81867534D01*
X142078594Y-81867547D01*
X142049501Y-82088533D01*
X142049500Y-82088549D01*
X142049500Y-82311458D01*
X142061774Y-82404695D01*
X142061186Y-82408459D01*
X142062519Y-82412030D01*
X142055844Y-82442714D01*
X142051008Y-82473730D01*
X142048243Y-82477661D01*
X142047669Y-82480303D01*
X142026518Y-82508559D01*
X141962221Y-82572857D01*
X141962220Y-82572859D01*
X141962218Y-82572861D01*
X141822861Y-82712218D01*
X141822860Y-82712218D01*
X141713369Y-82876082D01*
X141713368Y-82876085D01*
X141682545Y-82950500D01*
X141654208Y-83018912D01*
X141654208Y-83018913D01*
X141637949Y-83058164D01*
X141637947Y-83058170D01*
X141599500Y-83251456D01*
X141599500Y-89464867D01*
X141581040Y-89529961D01*
X141565187Y-89555663D01*
X141565186Y-89555665D01*
X141565186Y-89555666D01*
X141510001Y-89722203D01*
X141510001Y-89722204D01*
X141510000Y-89722204D01*
X141499500Y-89824983D01*
X139700500Y-89824983D01*
X139700500Y-42304427D01*
X139700816Y-42295581D01*
X139706017Y-42222858D01*
X139715131Y-42095434D01*
X139717646Y-42077938D01*
X139759356Y-41886199D01*
X139764333Y-41869248D01*
X139832911Y-41685385D01*
X139840259Y-41669298D01*
X139902815Y-41554734D01*
X139934291Y-41497089D01*
X139943845Y-41482221D01*
X140061448Y-41325123D01*
X140073020Y-41311769D01*
X140211769Y-41173020D01*
X140225123Y-41161448D01*
X140382221Y-41043845D01*
X140397089Y-41034291D01*
X140569298Y-40940258D01*
X140585385Y-40932911D01*
X140769248Y-40864333D01*
X140786199Y-40859356D01*
X140977938Y-40817646D01*
X140995436Y-40815130D01*
X141195582Y-40800816D01*
X141204428Y-40800500D01*
X141265892Y-40800500D01*
X151685216Y-40800500D01*
X151752255Y-40820185D01*
G37*
%TD.AperFunction*%
%TA.AperFunction,Conductor*%
G36*
X159693833Y-82470047D02*
G01*
X159749767Y-82511918D01*
X159774184Y-82577383D01*
X159774500Y-82586229D01*
X159774500Y-85755978D01*
X159754815Y-85823017D01*
X159723387Y-85856295D01*
X159683072Y-85885585D01*
X159560585Y-86008072D01*
X159500007Y-86091450D01*
X159444677Y-86134115D01*
X159375063Y-86140093D01*
X159313269Y-86107486D01*
X159299371Y-86091447D01*
X159239036Y-86008401D01*
X159116602Y-85885967D01*
X158976524Y-85784195D01*
X158822257Y-85705591D01*
X158657589Y-85652087D01*
X158657581Y-85652085D01*
X158650000Y-85650884D01*
X158650000Y-86719670D01*
X158630255Y-86699925D01*
X158544745Y-86650556D01*
X158449370Y-86625000D01*
X158350630Y-86625000D01*
X158255255Y-86650556D01*
X158169745Y-86699925D01*
X158150000Y-86719670D01*
X158150000Y-85650884D01*
X158149999Y-85650884D01*
X158142418Y-85652085D01*
X158142410Y-85652087D01*
X157977742Y-85705591D01*
X157823475Y-85784195D01*
X157683401Y-85885964D01*
X157575799Y-85993566D01*
X157514476Y-86027050D01*
X157444784Y-86022066D01*
X157388851Y-85980194D01*
X157382585Y-85970988D01*
X157342712Y-85906344D01*
X157218656Y-85782288D01*
X157218655Y-85782287D01*
X157209402Y-85776580D01*
X157162678Y-85724632D01*
X157150500Y-85671042D01*
X157150500Y-83162229D01*
X157159144Y-83132788D01*
X157165668Y-83102802D01*
X157169422Y-83097786D01*
X157170185Y-83095190D01*
X157186819Y-83074548D01*
X157274548Y-82986819D01*
X157335871Y-82953334D01*
X157362229Y-82950500D01*
X158873920Y-82950500D01*
X158971462Y-82931096D01*
X159018913Y-82921658D01*
X159128936Y-82876085D01*
X159155493Y-82865085D01*
X159155493Y-82865084D01*
X159155495Y-82865084D01*
X159214737Y-82825500D01*
X159214737Y-82825499D01*
X159214739Y-82825499D01*
X159251011Y-82801263D01*
X159278416Y-82782952D01*
X159562821Y-82498546D01*
X159624141Y-82465063D01*
X159693833Y-82470047D01*
G37*
%TD.AperFunction*%
%TA.AperFunction,Conductor*%
G36*
X155052898Y-74590185D02*
G01*
X155098653Y-74642989D01*
X155102030Y-74651140D01*
X155106204Y-74662331D01*
X155106205Y-74662332D01*
X155106206Y-74662335D01*
X155192452Y-74777544D01*
X155192455Y-74777547D01*
X155307664Y-74863793D01*
X155307671Y-74863797D01*
X155352618Y-74880561D01*
X155442517Y-74914091D01*
X155502127Y-74920500D01*
X155512685Y-74920499D01*
X155579723Y-74940179D01*
X155600372Y-74956818D01*
X156270591Y-75627037D01*
X156207007Y-75644075D01*
X156092993Y-75709901D01*
X155999901Y-75802993D01*
X155934075Y-75917007D01*
X155917037Y-75980591D01*
X155284728Y-75348282D01*
X155284727Y-75348282D01*
X155245380Y-75402439D01*
X155148904Y-75591782D01*
X155083242Y-75793869D01*
X155083242Y-75793872D01*
X155050000Y-76003753D01*
X155050000Y-76216246D01*
X155083242Y-76426127D01*
X155083242Y-76426130D01*
X155148904Y-76628217D01*
X155245375Y-76817550D01*
X155284728Y-76871716D01*
X155917037Y-76239408D01*
X155934075Y-76302993D01*
X155999901Y-76417007D01*
X156092993Y-76510099D01*
X156207007Y-76575925D01*
X156270590Y-76592962D01*
X155638282Y-77225269D01*
X155638282Y-77225270D01*
X155692452Y-77264626D01*
X155692451Y-77264626D01*
X155701495Y-77269234D01*
X155752292Y-77317208D01*
X155769087Y-77385029D01*
X155746550Y-77451164D01*
X155701499Y-77490202D01*
X155692182Y-77494949D01*
X155520213Y-77619890D01*
X155369890Y-77770213D01*
X155244951Y-77942179D01*
X155148444Y-78131585D01*
X155082753Y-78333760D01*
X155049500Y-78543713D01*
X155049500Y-78756287D01*
X155082754Y-78966243D01*
X155137408Y-79134451D01*
X155148444Y-79168414D01*
X155244951Y-79357820D01*
X155369890Y-79529786D01*
X155520213Y-79680109D01*
X155692179Y-79805048D01*
X155692181Y-79805049D01*
X155692184Y-79805051D01*
X155881588Y-79901557D01*
X156083757Y-79967246D01*
X156293713Y-80000500D01*
X156293714Y-80000500D01*
X156506286Y-80000500D01*
X156506287Y-80000500D01*
X156716243Y-79967246D01*
X156918412Y-79901557D01*
X157107816Y-79805051D01*
X157149866Y-79774500D01*
X157283734Y-79677241D01*
X157284364Y-79678108D01*
X157343419Y-79651641D01*
X157360200Y-79650500D01*
X158050500Y-79650500D01*
X158117539Y-79670185D01*
X158163294Y-79722989D01*
X158174500Y-79774500D01*
X158174500Y-80089548D01*
X158165855Y-80118988D01*
X158159332Y-80148975D01*
X158155577Y-80153990D01*
X158154815Y-80156587D01*
X158138181Y-80177229D01*
X157977229Y-80338181D01*
X157915906Y-80371666D01*
X157889548Y-80374500D01*
X154861606Y-80374500D01*
X154738393Y-80374500D01*
X154718406Y-80378475D01*
X154698419Y-80382451D01*
X154698418Y-80382450D01*
X154617555Y-80398535D01*
X154617547Y-80398537D01*
X154503716Y-80445687D01*
X154503707Y-80445692D01*
X154396202Y-80517526D01*
X154395171Y-80515983D01*
X154338831Y-80539899D01*
X154269965Y-80528094D01*
X154218415Y-80480932D01*
X154200500Y-80416730D01*
X154200500Y-74865782D01*
X154209144Y-74836341D01*
X154215668Y-74806355D01*
X154219422Y-74801339D01*
X154220185Y-74798743D01*
X154236819Y-74778101D01*
X154408102Y-74606819D01*
X154469425Y-74573334D01*
X154495783Y-74570500D01*
X154985859Y-74570500D01*
X155052898Y-74590185D01*
G37*
%TD.AperFunction*%
%TA.AperFunction,Conductor*%
G36*
X171128408Y-55338694D02*
G01*
X171184341Y-55380566D01*
X171208758Y-55446030D01*
X171208432Y-55467478D01*
X171200000Y-55550011D01*
X171200000Y-55700000D01*
X172276000Y-55700000D01*
X172343039Y-55719685D01*
X172388794Y-55772489D01*
X172400000Y-55824000D01*
X172400000Y-56076000D01*
X172380315Y-56143039D01*
X172327511Y-56188794D01*
X172276000Y-56200000D01*
X171200001Y-56200000D01*
X171200001Y-56349986D01*
X171210494Y-56452697D01*
X171265641Y-56619119D01*
X171265643Y-56619124D01*
X171357684Y-56768345D01*
X171451304Y-56861965D01*
X171484789Y-56923288D01*
X171479805Y-56992980D01*
X171451305Y-57037327D01*
X171357287Y-57131345D01*
X171265187Y-57280663D01*
X171265185Y-57280668D01*
X171237349Y-57364670D01*
X171210001Y-57447203D01*
X171210001Y-57447204D01*
X171210000Y-57447204D01*
X171199500Y-57549983D01*
X171199500Y-58350001D01*
X171199501Y-58350019D01*
X171210000Y-58452796D01*
X171210001Y-58452799D01*
X171265185Y-58619331D01*
X171265187Y-58619336D01*
X171357289Y-58768657D01*
X171450951Y-58862319D01*
X171484436Y-58923642D01*
X171479452Y-58993334D01*
X171450951Y-59037681D01*
X171332289Y-59156342D01*
X171240187Y-59305663D01*
X171240186Y-59305666D01*
X171185001Y-59472203D01*
X171185001Y-59472204D01*
X171185000Y-59472204D01*
X171174500Y-59574983D01*
X171174500Y-60350001D01*
X171174501Y-60350019D01*
X171185000Y-60452796D01*
X171185001Y-60452799D01*
X171226234Y-60577229D01*
X171240186Y-60619334D01*
X171332288Y-60768656D01*
X171456344Y-60892712D01*
X171459628Y-60894737D01*
X171459653Y-60894753D01*
X171461445Y-60896746D01*
X171462011Y-60897193D01*
X171461934Y-60897289D01*
X171506379Y-60946699D01*
X171517603Y-61015661D01*
X171489761Y-61079744D01*
X171459665Y-61105826D01*
X171456660Y-61107679D01*
X171456655Y-61107683D01*
X171332684Y-61231654D01*
X171240643Y-61380875D01*
X171240641Y-61380880D01*
X171185494Y-61547302D01*
X171185493Y-61547309D01*
X171175000Y-61650013D01*
X171175000Y-61787500D01*
X172276000Y-61787500D01*
X172343039Y-61807185D01*
X172388794Y-61859989D01*
X172400000Y-61911500D01*
X172400000Y-62037500D01*
X172526000Y-62037500D01*
X172593039Y-62057185D01*
X172638794Y-62109989D01*
X172650000Y-62161500D01*
X172650000Y-63124999D01*
X172924972Y-63124999D01*
X172924986Y-63124998D01*
X173027697Y-63114505D01*
X173194118Y-63059358D01*
X173198096Y-63057504D01*
X173267174Y-63047013D01*
X173330957Y-63075533D01*
X173369196Y-63134010D01*
X173374500Y-63169887D01*
X173374500Y-63889548D01*
X173365855Y-63918988D01*
X173359332Y-63948975D01*
X173355577Y-63953990D01*
X173354815Y-63956587D01*
X173338181Y-63977229D01*
X173177229Y-64138181D01*
X173115906Y-64171666D01*
X173089548Y-64174500D01*
X171938389Y-64174500D01*
X171817555Y-64198535D01*
X171817541Y-64198539D01*
X171789255Y-64210256D01*
X171703721Y-64245684D01*
X171703708Y-64245691D01*
X171601267Y-64314141D01*
X171601263Y-64314144D01*
X171437180Y-64478229D01*
X171401269Y-64514140D01*
X171401267Y-64514142D01*
X171357704Y-64557704D01*
X171314142Y-64601266D01*
X171292606Y-64633498D01*
X171292605Y-64633499D01*
X171245690Y-64703709D01*
X171245685Y-64703718D01*
X171214430Y-64779178D01*
X171198539Y-64817541D01*
X171198535Y-64817555D01*
X171174500Y-64938389D01*
X171174500Y-67050500D01*
X171154815Y-67117539D01*
X171102011Y-67163294D01*
X171050500Y-67174500D01*
X167710879Y-67174500D01*
X167643840Y-67154815D01*
X167598085Y-67102011D01*
X167588141Y-67032853D01*
X167606627Y-66984607D01*
X167606527Y-66984554D01*
X167606956Y-66983750D01*
X167607777Y-66981609D01*
X167609396Y-66979185D01*
X167609396Y-66979184D01*
X167609400Y-66979179D01*
X167669743Y-66833497D01*
X167700506Y-66678842D01*
X167700506Y-66521158D01*
X167700506Y-66521155D01*
X167700505Y-66521153D01*
X167669744Y-66366510D01*
X167669743Y-66366503D01*
X167609400Y-66220821D01*
X167546403Y-66126539D01*
X167525526Y-66059863D01*
X167525506Y-66057650D01*
X167525506Y-63970446D01*
X167545191Y-63903407D01*
X167561825Y-63882765D01*
X167892296Y-63552294D01*
X168248754Y-63195835D01*
X168310075Y-63162352D01*
X168379766Y-63167336D01*
X168435700Y-63209207D01*
X168460117Y-63274672D01*
X168458906Y-63302916D01*
X168445500Y-63387559D01*
X168445500Y-63572440D01*
X168474419Y-63755030D01*
X168531546Y-63930849D01*
X168531547Y-63930852D01*
X168615479Y-64095575D01*
X168724135Y-64245129D01*
X168724139Y-64245134D01*
X168854865Y-64375860D01*
X168854870Y-64375864D01*
X168985318Y-64470639D01*
X169004428Y-64484523D01*
X169062559Y-64514142D01*
X169169147Y-64568452D01*
X169169150Y-64568453D01*
X169344969Y-64625580D01*
X169527560Y-64654500D01*
X169527565Y-64654500D01*
X169712440Y-64654500D01*
X169895030Y-64625580D01*
X170070849Y-64568453D01*
X170070852Y-64568452D01*
X170235572Y-64484523D01*
X170385136Y-64375859D01*
X170515859Y-64245136D01*
X170624523Y-64095572D01*
X170708452Y-63930852D01*
X170765580Y-63755029D01*
X170794500Y-63572440D01*
X170794500Y-63387559D01*
X170765580Y-63204969D01*
X170708453Y-63029150D01*
X170708452Y-63029147D01*
X170678180Y-62969735D01*
X170624523Y-62864428D01*
X170593542Y-62821786D01*
X170515864Y-62714870D01*
X170515860Y-62714865D01*
X170385134Y-62584139D01*
X170385129Y-62584135D01*
X170235575Y-62475479D01*
X170235574Y-62475478D01*
X170235572Y-62475477D01*
X170174755Y-62444489D01*
X170136479Y-62424986D01*
X171175001Y-62424986D01*
X171185494Y-62527697D01*
X171240641Y-62694119D01*
X171240643Y-62694124D01*
X171332684Y-62843345D01*
X171456654Y-62967315D01*
X171605875Y-63059356D01*
X171605880Y-63059358D01*
X171772302Y-63114505D01*
X171772309Y-63114506D01*
X171875019Y-63124999D01*
X172149999Y-63124999D01*
X172150000Y-63124998D01*
X172150000Y-62287500D01*
X171175001Y-62287500D01*
X171175001Y-62424986D01*
X170136479Y-62424986D01*
X170070852Y-62391547D01*
X170070849Y-62391546D01*
X169957652Y-62354767D01*
X169957643Y-62354764D01*
X169895029Y-62334420D01*
X169875340Y-62331301D01*
X169868140Y-62329249D01*
X169844678Y-62314431D01*
X169819602Y-62302544D01*
X169815548Y-62296033D01*
X169809065Y-62291939D01*
X169797338Y-62266787D01*
X169782671Y-62243232D01*
X169782780Y-62235565D01*
X169779540Y-62228615D01*
X169783272Y-62201116D01*
X169783669Y-62173370D01*
X169787906Y-62166978D01*
X169788938Y-62159380D01*
X169806943Y-62138265D01*
X169822279Y-62115137D01*
X169829467Y-62111854D01*
X169834275Y-62106217D01*
X169856556Y-62099483D01*
X169882737Y-62087527D01*
X169884508Y-62087246D01*
X169895029Y-62085580D01*
X170070852Y-62028452D01*
X170235572Y-61944523D01*
X170385136Y-61835859D01*
X170515859Y-61705136D01*
X170624523Y-61555572D01*
X170708452Y-61390852D01*
X170708453Y-61390849D01*
X170765580Y-61215030D01*
X170794500Y-61032440D01*
X170794500Y-60847559D01*
X170765580Y-60664969D01*
X170708453Y-60489150D01*
X170708452Y-60489147D01*
X170637562Y-60350019D01*
X170624523Y-60324428D01*
X170580172Y-60263384D01*
X170515864Y-60174870D01*
X170515860Y-60174865D01*
X170385134Y-60044139D01*
X170385129Y-60044135D01*
X170235575Y-59935479D01*
X170235574Y-59935478D01*
X170235572Y-59935477D01*
X170164051Y-59899035D01*
X170070852Y-59851547D01*
X170070849Y-59851546D01*
X169895030Y-59794420D01*
X169882737Y-59792473D01*
X169819602Y-59762544D01*
X169782671Y-59703232D01*
X169783669Y-59633370D01*
X169822279Y-59575137D01*
X169882737Y-59547527D01*
X169884508Y-59547246D01*
X169895029Y-59545580D01*
X170070852Y-59488452D01*
X170235572Y-59404523D01*
X170385136Y-59295859D01*
X170515859Y-59165136D01*
X170624523Y-59015572D01*
X170708452Y-58850852D01*
X170740907Y-58750965D01*
X170765580Y-58675030D01*
X170794500Y-58492440D01*
X170794500Y-58307559D01*
X170765580Y-58124969D01*
X170708453Y-57949150D01*
X170708452Y-57949147D01*
X170679388Y-57892106D01*
X170624523Y-57784428D01*
X170556360Y-57690609D01*
X170515864Y-57634870D01*
X170515860Y-57634865D01*
X170385134Y-57504139D01*
X170385129Y-57504135D01*
X170235575Y-57395479D01*
X170235574Y-57395478D01*
X170235572Y-57395477D01*
X170182799Y-57368588D01*
X170070852Y-57311547D01*
X170070849Y-57311546D01*
X169895030Y-57254420D01*
X169882737Y-57252473D01*
X169819602Y-57222544D01*
X169782671Y-57163232D01*
X169783669Y-57093370D01*
X169822279Y-57035137D01*
X169882737Y-57007527D01*
X169884508Y-57007246D01*
X169895029Y-57005580D01*
X170070852Y-56948452D01*
X170235572Y-56864523D01*
X170385136Y-56755859D01*
X170515859Y-56625136D01*
X170624523Y-56475572D01*
X170708452Y-56310852D01*
X170739680Y-56214743D01*
X170765580Y-56135030D01*
X170794500Y-55952440D01*
X170794500Y-55767567D01*
X170794499Y-55767559D01*
X170777382Y-55659490D01*
X170786336Y-55590200D01*
X170812171Y-55552417D01*
X170997395Y-55367193D01*
X171058716Y-55333710D01*
X171128408Y-55338694D01*
G37*
%TD.AperFunction*%
%TA.AperFunction,Conductor*%
G36*
X169023057Y-46714015D02*
G01*
X169169147Y-46788452D01*
X169169150Y-46788453D01*
X169344970Y-46845580D01*
X169358860Y-46847780D01*
X169421995Y-46877709D01*
X169458927Y-46937020D01*
X169457929Y-47006883D01*
X169419320Y-47065115D01*
X169358864Y-47092726D01*
X169345088Y-47094908D01*
X169169338Y-47152013D01*
X169004692Y-47235903D01*
X169004688Y-47235906D01*
X168984283Y-47250729D01*
X168984283Y-47250730D01*
X169555910Y-47822356D01*
X169457886Y-47848622D01*
X169362114Y-47903916D01*
X169283916Y-47982114D01*
X169228622Y-48077886D01*
X169202356Y-48175909D01*
X168630730Y-47604283D01*
X168630729Y-47604283D01*
X168615906Y-47624688D01*
X168615903Y-47624692D01*
X168532013Y-47789338D01*
X168474907Y-47965091D01*
X168446000Y-48147604D01*
X168446000Y-48332395D01*
X168474907Y-48514908D01*
X168532014Y-48690664D01*
X168615900Y-48855303D01*
X168615903Y-48855307D01*
X168630730Y-48875715D01*
X168630730Y-48875716D01*
X169202356Y-48304090D01*
X169228622Y-48402114D01*
X169283916Y-48497886D01*
X169362114Y-48576084D01*
X169457886Y-48631378D01*
X169555909Y-48657643D01*
X168984283Y-49229268D01*
X168984283Y-49229269D01*
X169004686Y-49244092D01*
X169169338Y-49327986D01*
X169345030Y-49385073D01*
X169347300Y-49386625D01*
X169350046Y-49386822D01*
X169375975Y-49406233D01*
X169402706Y-49424511D01*
X169403777Y-49427045D01*
X169405979Y-49428694D01*
X169417293Y-49459028D01*
X169429904Y-49488869D01*
X169429434Y-49491580D01*
X169430396Y-49494158D01*
X169423512Y-49525802D01*
X169417989Y-49557716D01*
X169415949Y-49560565D01*
X169415544Y-49562431D01*
X169394393Y-49590685D01*
X169374447Y-49610631D01*
X169325084Y-49640881D01*
X169169150Y-49691546D01*
X169169147Y-49691547D01*
X169004424Y-49775479D01*
X168854870Y-49884135D01*
X168854865Y-49884139D01*
X168724139Y-50014865D01*
X168724135Y-50014870D01*
X168615479Y-50164424D01*
X168531547Y-50329147D01*
X168531546Y-50329150D01*
X168474419Y-50504969D01*
X168445500Y-50687559D01*
X168445500Y-50872440D01*
X168474419Y-51055030D01*
X168531546Y-51230849D01*
X168531547Y-51230852D01*
X168572023Y-51310289D01*
X168598488Y-51362230D01*
X168615479Y-51395575D01*
X168724135Y-51545129D01*
X168724139Y-51545134D01*
X168854865Y-51675860D01*
X168854870Y-51675864D01*
X168973177Y-51761818D01*
X169004428Y-51784523D01*
X169112106Y-51839388D01*
X169169147Y-51868452D01*
X169169150Y-51868453D01*
X169257059Y-51897016D01*
X169344971Y-51925580D01*
X169355150Y-51927192D01*
X169357263Y-51927527D01*
X169420397Y-51957457D01*
X169457328Y-52016769D01*
X169456330Y-52086631D01*
X169417719Y-52144864D01*
X169357263Y-52172473D01*
X169344969Y-52174420D01*
X169169150Y-52231546D01*
X169169147Y-52231547D01*
X169004424Y-52315479D01*
X168854870Y-52424135D01*
X168854865Y-52424139D01*
X168724137Y-52554867D01*
X168659828Y-52643384D01*
X168604498Y-52686051D01*
X168559509Y-52694500D01*
X166541606Y-52694500D01*
X166418393Y-52694500D01*
X166368481Y-52704428D01*
X166368480Y-52704427D01*
X166297555Y-52718535D01*
X166297545Y-52718538D01*
X166183716Y-52765687D01*
X166097142Y-52823535D01*
X166097141Y-52823536D01*
X166081263Y-52834144D01*
X166081262Y-52834145D01*
X165084937Y-53830472D01*
X164801269Y-54114140D01*
X164801267Y-54114142D01*
X164767920Y-54147489D01*
X164714142Y-54201266D01*
X164694478Y-54230697D01*
X164683009Y-54247861D01*
X164645688Y-54303714D01*
X164613075Y-54382451D01*
X164605803Y-54400008D01*
X164603920Y-54404551D01*
X164603910Y-54404573D01*
X164598540Y-54417538D01*
X164598535Y-54417555D01*
X164582875Y-54496287D01*
X164574500Y-54538389D01*
X164574500Y-61389127D01*
X164554815Y-61456166D01*
X164502011Y-61501921D01*
X164432853Y-61511865D01*
X164384607Y-61493378D01*
X164384554Y-61493479D01*
X164383750Y-61493049D01*
X164381609Y-61492229D01*
X164379185Y-61490609D01*
X164379172Y-61490602D01*
X164233501Y-61430264D01*
X164233489Y-61430261D01*
X164122285Y-61408141D01*
X164060374Y-61375756D01*
X164058795Y-61374205D01*
X163261819Y-60577229D01*
X163228334Y-60515906D01*
X163225500Y-60489548D01*
X163225500Y-50138395D01*
X163224788Y-50134815D01*
X163218979Y-50105612D01*
X163201463Y-50017549D01*
X163194077Y-49999718D01*
X163186186Y-49980666D01*
X163186184Y-49980660D01*
X163154315Y-49903720D01*
X163154313Y-49903717D01*
X163154312Y-49903714D01*
X163115540Y-49845689D01*
X163085858Y-49801267D01*
X163085856Y-49801264D01*
X162995637Y-49711045D01*
X162995606Y-49711016D01*
X162025793Y-48741203D01*
X161992308Y-48679880D01*
X161991887Y-48677864D01*
X161969737Y-48566503D01*
X161941315Y-48497886D01*
X161909397Y-48420827D01*
X161909390Y-48420814D01*
X161821789Y-48289711D01*
X161821786Y-48289707D01*
X161710292Y-48178213D01*
X161710288Y-48178210D01*
X161579185Y-48090609D01*
X161579178Y-48090605D01*
X161570415Y-48086976D01*
X161516011Y-48043135D01*
X161493945Y-47976841D01*
X161511224Y-47909142D01*
X161530180Y-47884738D01*
X162678102Y-46736819D01*
X162739425Y-46703334D01*
X162765783Y-46700500D01*
X168966762Y-46700500D01*
X169023057Y-46714015D01*
G37*
%TD.AperFunction*%
%TA.AperFunction,Conductor*%
G36*
X170518834Y-46564675D02*
G01*
X170574767Y-46606547D01*
X170599184Y-46672011D01*
X170599500Y-46680857D01*
X170599500Y-47562691D01*
X170579815Y-47629730D01*
X170563181Y-47650372D01*
X170037643Y-48175910D01*
X170011378Y-48077886D01*
X169956084Y-47982114D01*
X169877886Y-47903916D01*
X169782114Y-47848622D01*
X169684090Y-47822356D01*
X170255716Y-47250730D01*
X170235307Y-47235903D01*
X170235303Y-47235900D01*
X170070664Y-47152014D01*
X169894910Y-47094907D01*
X169881136Y-47092726D01*
X169818002Y-47062796D01*
X169781072Y-47003484D01*
X169782070Y-46933621D01*
X169820681Y-46875389D01*
X169881137Y-46847780D01*
X169895029Y-46845580D01*
X170070852Y-46788452D01*
X170235572Y-46704523D01*
X170385136Y-46595859D01*
X170387819Y-46593176D01*
X170449142Y-46559691D01*
X170518834Y-46564675D01*
G37*
%TD.AperFunction*%
%TD*%
M02*
